<svg width="328" height="101" viewBox="0 0 328 101" fill="none" xmlns="http://www.w3.org/2000/svg">
<path d="M0 10C0 4.47715 4.47715 0 10 0H318C323.523 0 328 4.47715 328 10V91C328 96.5229 323.523 101 318 101H9.99999C4.47714 101 0 96.5229 0 91V10Z" fill="#00C77D"/>
<path d="M130.02 22.94L127.67 27.43V30H126.52V27.43L124.16 22.94H125.48L127.1 26.21L128.72 22.94H130.02ZM133.392 24.42C133.925 24.42 134.405 24.5333 134.832 24.76C135.258 24.9867 135.592 25.3133 135.832 25.74C136.072 26.1667 136.192 26.6667 136.192 27.24C136.192 27.82 136.072 28.3233 135.832 28.75C135.592 29.1767 135.258 29.5033 134.832 29.73C134.405 29.9567 133.925 30.07 133.392 30.07C132.858 30.07 132.378 29.9567 131.952 29.73C131.532 29.5033 131.198 29.1767 130.952 28.75C130.712 28.3167 130.592 27.8133 130.592 27.24C130.592 26.6667 130.712 26.1667 130.952 25.74C131.198 25.3133 131.532 24.9867 131.952 24.76C132.378 24.5333 132.858 24.42 133.392 24.42ZM133.392 25.41C133.098 25.41 132.828 25.4767 132.582 25.61C132.335 25.7433 132.135 25.95 131.982 26.23C131.835 26.5033 131.762 26.84 131.762 27.24C131.762 27.6467 131.835 27.9867 131.982 28.26C132.135 28.5333 132.335 28.7367 132.582 28.87C132.828 29.0033 133.098 29.07 133.392 29.07C133.685 29.07 133.955 29.0033 134.202 28.87C134.448 28.7367 134.645 28.5333 134.792 28.26C134.945 27.9867 135.022 27.6467 135.022 27.24C135.022 26.84 134.945 26.5033 134.792 26.23C134.645 25.95 134.448 25.7433 134.202 25.61C133.955 25.4767 133.685 25.41 133.392 25.41ZM142.368 24.49V30H141.218V28.8C141.078 29.2067 140.834 29.5233 140.488 29.75C140.141 29.97 139.738 30.08 139.278 30.08C138.638 30.08 138.124 29.8733 137.738 29.46C137.351 29.0467 137.158 28.4567 137.158 27.69V24.49H138.298V27.57C138.298 28.07 138.424 28.4567 138.678 28.73C138.931 28.9967 139.278 29.13 139.718 29.13C140.171 29.13 140.534 28.9833 140.808 28.69C141.081 28.3967 141.218 27.97 141.218 27.41V24.49H142.368ZM144.873 25.57C145.06 25.21 145.326 24.9267 145.673 24.72C146.02 24.5067 146.42 24.4 146.873 24.4V25.64H146.533C146.033 25.64 145.63 25.7633 145.323 26.01C145.023 26.25 144.873 26.65 144.873 27.21V30H143.733V24.49H144.873V25.57ZM152.281 24.42C152.781 24.42 153.208 24.5433 153.561 24.79C153.914 25.0367 154.164 25.3633 154.311 25.77V24.49H155.451V30H154.311V28.72C154.164 29.1267 153.914 29.4533 153.561 29.7C153.208 29.9467 152.781 30.07 152.281 30.07C151.801 30.07 151.371 29.9567 150.991 29.73C150.618 29.5033 150.324 29.1767 150.111 28.75C149.898 28.3233 149.791 27.82 149.791 27.24C149.791 26.6667 149.898 26.1667 150.111 25.74C150.324 25.3133 150.618 24.9867 150.991 24.76C151.371 24.5333 151.801 24.42 152.281 24.42ZM152.631 25.42C152.124 25.42 151.718 25.5833 151.411 25.91C151.111 26.23 150.961 26.6733 150.961 27.24C150.961 27.8067 151.111 28.2533 151.411 28.58C151.718 28.9 152.124 29.06 152.631 29.06C152.951 29.06 153.238 28.9867 153.491 28.84C153.744 28.6867 153.944 28.4733 154.091 28.2C154.238 27.9267 154.311 27.6067 154.311 27.24C154.311 26.88 154.238 26.5633 154.091 26.29C153.944 26.01 153.744 25.7967 153.491 25.65C153.238 25.4967 152.951 25.42 152.631 25.42ZM159.079 28.82L160.639 24.49H161.859L159.759 30H158.379L156.279 24.49H157.499L159.079 28.82ZM167.818 26.98C167.818 27.1667 167.804 27.33 167.778 27.47H163.538C163.558 28.0367 163.714 28.4567 164.008 28.73C164.301 29.0033 164.664 29.14 165.098 29.14C165.478 29.14 165.798 29.0433 166.058 28.85C166.324 28.6567 166.488 28.4 166.548 28.08H167.768C167.694 28.4667 167.541 28.81 167.308 29.11C167.074 29.41 166.771 29.6467 166.398 29.82C166.024 29.9867 165.608 30.07 165.148 30.07C164.614 30.07 164.141 29.9567 163.728 29.73C163.321 29.5033 163.001 29.1767 162.768 28.75C162.534 28.3233 162.418 27.82 162.418 27.24C162.418 26.6667 162.534 26.1667 162.768 25.74C163.001 25.3133 163.321 24.9867 163.728 24.76C164.141 24.5333 164.614 24.42 165.148 24.42C165.688 24.42 166.158 24.5333 166.558 24.76C166.964 24.98 167.274 25.2867 167.488 25.68C167.708 26.0667 167.818 26.5 167.818 26.98ZM166.668 26.95C166.681 26.59 166.618 26.29 166.478 26.05C166.344 25.8033 166.158 25.6233 165.918 25.51C165.684 25.39 165.428 25.33 165.148 25.33C164.701 25.33 164.328 25.4667 164.028 25.74C163.728 26.0133 163.564 26.4167 163.538 26.95H166.668ZM170.059 25.57C170.245 25.21 170.512 24.9267 170.859 24.72C171.205 24.5067 171.605 24.4 172.059 24.4V25.64H171.719C171.219 25.64 170.815 25.7633 170.509 26.01C170.209 26.25 170.059 26.65 170.059 27.21V30H168.919V24.49H170.059V25.57ZM175.123 24.42C175.623 24.42 176.049 24.5433 176.403 24.79C176.756 25.0367 177.006 25.3633 177.153 25.77V24.49H178.293V30H177.153V28.72C177.006 29.1267 176.756 29.4533 176.403 29.7C176.049 29.9467 175.623 30.07 175.123 30.07C174.643 30.07 174.213 29.9567 173.833 29.73C173.459 29.5033 173.166 29.1767 172.953 28.75C172.739 28.3233 172.633 27.82 172.633 27.24C172.633 26.6667 172.739 26.1667 172.953 25.74C173.166 25.3133 173.459 24.9867 173.833 24.76C174.213 24.5333 174.643 24.42 175.123 24.42ZM175.473 25.42C174.966 25.42 174.559 25.5833 174.253 25.91C173.953 26.23 173.803 26.6733 173.803 27.24C173.803 27.8067 173.953 28.2533 174.253 28.58C174.559 28.9 174.966 29.06 175.473 29.06C175.793 29.06 176.079 28.9867 176.333 28.84C176.586 28.6867 176.786 28.4733 176.933 28.2C177.079 27.9267 177.153 27.6067 177.153 27.24C177.153 26.88 177.079 26.5633 176.933 26.29C176.786 26.01 176.586 25.7967 176.333 25.65C176.079 25.4967 175.793 25.42 175.473 25.42ZM181.871 24.42C182.371 24.42 182.797 24.5433 183.151 24.79C183.504 25.0367 183.754 25.3633 183.901 25.77V24.49H185.041V30.06C185.041 30.5733 184.934 31.0267 184.721 31.42C184.514 31.82 184.214 32.1333 183.821 32.36C183.427 32.5867 182.961 32.7 182.421 32.7C181.647 32.7 181.021 32.5167 180.541 32.15C180.067 31.7833 179.771 31.2867 179.651 30.66H180.781C180.874 30.9867 181.054 31.24 181.321 31.42C181.587 31.6067 181.927 31.7 182.341 31.7C182.794 31.7 183.167 31.56 183.461 31.28C183.754 31 183.901 30.5933 183.901 30.06V28.72C183.754 29.1267 183.504 29.4533 183.151 29.7C182.797 29.9467 182.371 30.07 181.871 30.07C181.391 30.07 180.961 29.9567 180.581 29.73C180.207 29.5033 179.914 29.1767 179.701 28.75C179.487 28.3233 179.381 27.82 179.381 27.24C179.381 26.6667 179.487 26.1667 179.701 25.74C179.914 25.3133 180.207 24.9867 180.581 24.76C180.961 24.5333 181.391 24.42 181.871 24.42ZM182.221 25.42C181.714 25.42 181.307 25.5833 181.001 25.91C180.701 26.23 180.551 26.6733 180.551 27.24C180.551 27.8067 180.701 28.2533 181.001 28.58C181.307 28.9 181.714 29.06 182.221 29.06C182.541 29.06 182.827 28.9867 183.081 28.84C183.334 28.6867 183.534 28.4733 183.681 28.2C183.827 27.9267 183.901 27.6067 183.901 27.24C183.901 26.88 183.827 26.5633 183.681 26.29C183.534 26.01 183.334 25.7967 183.081 25.65C182.827 25.4967 182.541 25.42 182.221 25.42ZM191.529 26.98C191.529 27.1667 191.515 27.33 191.489 27.47H187.249C187.269 28.0367 187.425 28.4567 187.719 28.73C188.012 29.0033 188.375 29.14 188.809 29.14C189.189 29.14 189.509 29.0433 189.769 28.85C190.035 28.6567 190.199 28.4 190.259 28.08H191.479C191.405 28.4667 191.252 28.81 191.019 29.11C190.785 29.41 190.482 29.6467 190.109 29.82C189.735 29.9867 189.319 30.07 188.859 30.07C188.325 30.07 187.852 29.9567 187.439 29.73C187.032 29.5033 186.712 29.1767 186.479 28.75C186.245 28.3233 186.129 27.82 186.129 27.24C186.129 26.6667 186.245 26.1667 186.479 25.74C186.712 25.3133 187.032 24.9867 187.439 24.76C187.852 24.5333 188.325 24.42 188.859 24.42C189.399 24.42 189.869 24.5333 190.269 24.76C190.675 24.98 190.985 25.2867 191.199 25.68C191.419 26.0667 191.529 26.5 191.529 26.98ZM190.379 26.95C190.392 26.59 190.329 26.29 190.189 26.05C190.055 25.8033 189.869 25.6233 189.629 25.51C189.395 25.39 189.139 25.33 188.859 25.33C188.412 25.33 188.039 25.4667 187.739 25.74C187.439 26.0133 187.275 26.4167 187.249 26.95H190.379ZM200.093 26.98C200.093 27.1667 200.08 27.33 200.053 27.47H195.813C195.833 28.0367 195.99 28.4567 196.283 28.73C196.577 29.0033 196.94 29.14 197.373 29.14C197.753 29.14 198.073 29.0433 198.333 28.85C198.6 28.6567 198.763 28.4 198.823 28.08H200.043C199.97 28.4667 199.817 28.81 199.583 29.11C199.35 29.41 199.047 29.6467 198.673 29.82C198.3 29.9867 197.883 30.07 197.423 30.07C196.89 30.07 196.417 29.9567 196.003 29.73C195.597 29.5033 195.277 29.1767 195.043 28.75C194.81 28.3233 194.693 27.82 194.693 27.24C194.693 26.6667 194.81 26.1667 195.043 25.74C195.277 25.3133 195.597 24.9867 196.003 24.76C196.417 24.5333 196.89 24.42 197.423 24.42C197.963 24.42 198.433 24.5333 198.833 24.76C199.24 24.98 199.55 25.2867 199.763 25.68C199.983 26.0667 200.093 26.5 200.093 26.98ZM198.943 26.95C198.957 26.59 198.893 26.29 198.753 26.05C198.62 25.8033 198.433 25.6233 198.193 25.51C197.96 25.39 197.703 25.33 197.423 25.33C196.977 25.33 196.603 25.4667 196.303 25.74C196.003 26.0133 195.84 26.4167 195.813 26.95H198.943ZM204.454 30L203.104 28.05L201.924 30H200.654L202.474 27.14L200.634 24.49H201.924L203.244 26.39L204.414 24.49H205.674L203.854 27.27L205.744 30H204.454ZM209.696 24.42C210.176 24.42 210.602 24.5333 210.976 24.76C211.356 24.9867 211.652 25.3133 211.866 25.74C212.079 26.1667 212.186 26.6667 212.186 27.24C212.186 27.82 212.079 28.3233 211.866 28.75C211.652 29.1767 211.356 29.5033 210.976 29.73C210.602 29.9567 210.176 30.07 209.696 30.07C209.196 30.07 208.769 29.9467 208.416 29.7C208.062 29.4533 207.816 29.1267 207.676 28.72V32.62H206.536V24.49H207.676V25.77C207.816 25.3633 208.062 25.0367 208.416 24.79C208.769 24.5433 209.196 24.42 209.696 24.42ZM209.346 25.42C209.026 25.42 208.739 25.4967 208.486 25.65C208.232 25.7967 208.032 26.01 207.886 26.29C207.739 26.5633 207.666 26.88 207.666 27.24C207.666 27.6067 207.739 27.9267 207.886 28.2C208.032 28.4733 208.232 28.6867 208.486 28.84C208.739 28.9867 209.026 29.06 209.346 29.06C209.852 29.06 210.259 28.9 210.566 28.58C210.872 28.2533 211.026 27.8067 211.026 27.24C211.026 26.68 210.872 26.2367 210.566 25.91C210.259 25.5833 209.852 25.42 209.346 25.42ZM218.404 26.98C218.404 27.1667 218.39 27.33 218.364 27.47H214.124C214.144 28.0367 214.3 28.4567 214.594 28.73C214.887 29.0033 215.25 29.14 215.684 29.14C216.064 29.14 216.384 29.0433 216.644 28.85C216.91 28.6567 217.074 28.4 217.134 28.08H218.354C218.28 28.4667 218.127 28.81 217.894 29.11C217.66 29.41 217.357 29.6467 216.984 29.82C216.61 29.9867 216.194 30.07 215.734 30.07C215.2 30.07 214.727 29.9567 214.314 29.73C213.907 29.5033 213.587 29.1767 213.354 28.75C213.12 28.3233 213.004 27.82 213.004 27.24C213.004 26.6667 213.12 26.1667 213.354 25.74C213.587 25.3133 213.907 24.9867 214.314 24.76C214.727 24.5333 215.2 24.42 215.734 24.42C216.274 24.42 216.744 24.5333 217.144 24.76C217.55 24.98 217.86 25.2867 218.074 25.68C218.294 26.0667 218.404 26.5 218.404 26.98ZM217.254 26.95C217.267 26.59 217.204 26.29 217.064 26.05C216.93 25.8033 216.744 25.6233 216.504 25.51C216.27 25.39 216.014 25.33 215.734 25.33C215.287 25.33 214.914 25.4667 214.614 25.74C214.314 26.0133 214.15 26.4167 214.124 26.95H217.254ZM222.584 24.4C223.224 24.4 223.738 24.6067 224.124 25.02C224.511 25.4333 224.704 26.0233 224.704 26.79V30H223.564V26.91C223.564 26.4167 223.438 26.0367 223.184 25.77C222.931 25.4967 222.584 25.36 222.144 25.36C221.691 25.36 221.328 25.5067 221.054 25.8C220.781 26.0867 220.644 26.51 220.644 27.07V30H219.504V24.49H220.644V25.7C220.791 25.2867 221.038 24.9667 221.384 24.74C221.731 24.5133 222.131 24.4 222.584 24.4ZM227.848 24.42C228.494 24.42 229.011 24.5867 229.398 24.92C229.791 25.2467 230.031 25.6867 230.118 26.24H229.038C228.991 25.94 228.861 25.7 228.648 25.52C228.441 25.3333 228.164 25.24 227.818 25.24C227.531 25.24 227.308 25.31 227.148 25.45C226.994 25.5833 226.918 25.7667 226.918 26C226.918 26.1733 226.974 26.3133 227.088 26.42C227.201 26.5267 227.341 26.61 227.508 26.67C227.681 26.73 227.924 26.7967 228.238 26.87C228.651 26.9633 228.984 27.06 229.238 27.16C229.498 27.26 229.718 27.42 229.898 27.64C230.084 27.8533 230.178 28.1467 230.178 28.52C230.178 28.98 230.001 29.3533 229.648 29.64C229.301 29.9267 228.831 30.07 228.238 30.07C227.551 30.07 226.994 29.91 226.568 29.59C226.148 29.27 225.894 28.8233 225.808 28.25H226.918C226.951 28.55 227.084 28.7933 227.318 28.98C227.551 29.1667 227.858 29.26 228.238 29.26C228.511 29.26 228.724 29.19 228.878 29.05C229.038 28.9033 229.118 28.72 229.118 28.5C229.118 28.3067 229.058 28.1533 228.938 28.04C228.818 27.9267 228.668 27.84 228.488 27.78C228.308 27.7133 228.061 27.6467 227.748 27.58C227.348 27.4867 227.021 27.3933 226.768 27.3C226.521 27.2067 226.308 27.0567 226.128 26.85C225.954 26.6367 225.868 26.35 225.868 25.99C225.868 25.5233 226.041 25.1467 226.388 24.86C226.741 24.5667 227.228 24.42 227.848 24.42ZM236.441 26.98C236.441 27.1667 236.428 27.33 236.401 27.47H232.161C232.181 28.0367 232.338 28.4567 232.631 28.73C232.924 29.0033 233.288 29.14 233.721 29.14C234.101 29.14 234.421 29.0433 234.681 28.85C234.948 28.6567 235.111 28.4 235.171 28.08H236.391C236.318 28.4667 236.164 28.81 235.931 29.11C235.698 29.41 235.394 29.6467 235.021 29.82C234.648 29.9867 234.231 30.07 233.771 30.07C233.238 30.07 232.764 29.9567 232.351 29.73C231.944 29.5033 231.624 29.1767 231.391 28.75C231.158 28.3233 231.041 27.82 231.041 27.24C231.041 26.6667 231.158 26.1667 231.391 25.74C231.624 25.3133 231.944 24.9867 232.351 24.76C232.764 24.5333 233.238 24.42 233.771 24.42C234.311 24.42 234.781 24.5333 235.181 24.76C235.588 24.98 235.898 25.2867 236.111 25.68C236.331 26.0667 236.441 26.5 236.441 26.98ZM235.291 26.95C235.304 26.59 235.241 26.29 235.101 26.05C234.968 25.8033 234.781 25.6233 234.541 25.51C234.308 25.39 234.051 25.33 233.771 25.33C233.324 25.33 232.951 25.4667 232.651 25.74C232.351 26.0133 232.188 26.4167 232.161 26.95H235.291ZM242.655 29.01V30H241.955C241.369 30 240.922 29.86 240.615 29.58C240.315 29.2933 240.165 28.82 240.165 28.16V25.46H239.375V24.49H240.165V23.12H241.315V24.49H242.645V25.46H241.315V28.18C241.315 28.4933 241.372 28.71 241.485 28.83C241.605 28.95 241.812 29.01 242.105 29.01H242.655ZM246.803 24.4C247.443 24.4 247.957 24.6067 248.343 25.02C248.73 25.4333 248.923 26.0233 248.923 26.79V30H247.783V26.91C247.783 26.4167 247.657 26.0367 247.403 25.77C247.15 25.4967 246.803 25.36 246.363 25.36C245.91 25.36 245.547 25.5067 245.273 25.8C245 26.0867 244.863 26.51 244.863 27.07V30H243.723V22.6H244.863V25.7C245.01 25.2867 245.257 24.9667 245.603 24.74C245.95 24.5133 246.35 24.4 246.803 24.4ZM250.096 22.89C250.096 22.6967 250.163 22.5367 250.296 22.41C250.43 22.2833 250.606 22.22 250.826 22.22C251.046 22.22 251.223 22.2833 251.356 22.41C251.496 22.5367 251.566 22.6967 251.566 22.89C251.566 23.0833 251.496 23.24 251.356 23.36C251.223 23.48 251.046 23.54 250.826 23.54C250.606 23.54 250.43 23.48 250.296 23.36C250.163 23.24 250.096 23.0833 250.096 22.89ZM251.396 24.49V30H250.256V24.49H251.396ZM254.586 24.42C255.233 24.42 255.749 24.5867 256.136 24.92C256.529 25.2467 256.769 25.6867 256.856 26.24H255.776C255.729 25.94 255.599 25.7 255.386 25.52C255.179 25.3333 254.903 25.24 254.556 25.24C254.269 25.24 254.046 25.31 253.886 25.45C253.733 25.5833 253.656 25.7667 253.656 26C253.656 26.1733 253.713 26.3133 253.826 26.42C253.939 26.5267 254.079 26.61 254.246 26.67C254.419 26.73 254.663 26.7967 254.976 26.87C255.389 26.9633 255.723 27.06 255.976 27.16C256.236 27.26 256.456 27.42 256.636 27.64C256.823 27.8533 256.916 28.1467 256.916 28.52C256.916 28.98 256.739 29.3533 256.386 29.64C256.039 29.9267 255.569 30.07 254.976 30.07C254.289 30.07 253.733 29.91 253.306 29.59C252.886 29.27 252.633 28.8233 252.546 28.25H253.656C253.689 28.55 253.823 28.7933 254.056 28.98C254.289 29.1667 254.596 29.26 254.976 29.26C255.249 29.26 255.463 29.19 255.616 29.05C255.776 28.9033 255.856 28.72 255.856 28.5C255.856 28.3067 255.796 28.1533 255.676 28.04C255.556 27.9267 255.406 27.84 255.226 27.78C255.046 27.7133 254.799 27.6467 254.486 27.58C254.086 27.4867 253.759 27.3933 253.506 27.3C253.259 27.2067 253.046 27.0567 252.866 26.85C252.693 26.6367 252.606 26.35 252.606 25.99C252.606 25.5233 252.779 25.1467 253.126 24.86C253.479 24.5667 253.966 24.42 254.586 24.42ZM268.123 24.49L266.593 30H265.333L263.973 25.74L262.593 30H261.343L259.813 24.49H260.963L262.013 28.95L263.393 24.49H264.593L265.993 28.95L267.043 24.49H268.123ZM274.019 26.98C274.019 27.1667 274.006 27.33 273.979 27.47H269.739C269.759 28.0367 269.916 28.4567 270.209 28.73C270.502 29.0033 270.866 29.14 271.299 29.14C271.679 29.14 271.999 29.0433 272.259 28.85C272.526 28.6567 272.689 28.4 272.749 28.08H273.969C273.896 28.4667 273.742 28.81 273.509 29.11C273.276 29.41 272.972 29.6467 272.599 29.82C272.226 29.9867 271.809 30.07 271.349 30.07C270.816 30.07 270.342 29.9567 269.929 29.73C269.522 29.5033 269.202 29.1767 268.969 28.75C268.736 28.3233 268.619 27.82 268.619 27.24C268.619 26.6667 268.736 26.1667 268.969 25.74C269.202 25.3133 269.522 24.9867 269.929 24.76C270.342 24.5333 270.816 24.42 271.349 24.42C271.889 24.42 272.359 24.5333 272.759 24.76C273.166 24.98 273.476 25.2867 273.689 25.68C273.909 26.0667 274.019 26.5 274.019 26.98ZM272.869 26.95C272.882 26.59 272.819 26.29 272.679 26.05C272.546 25.8033 272.359 25.6233 272.119 25.51C271.886 25.39 271.629 25.33 271.349 25.33C270.902 25.33 270.529 25.4667 270.229 25.74C269.929 26.0133 269.766 26.4167 269.739 26.95H272.869ZM280.24 26.98C280.24 27.1667 280.226 27.33 280.2 27.47H275.96C275.98 28.0367 276.136 28.4567 276.43 28.73C276.723 29.0033 277.086 29.14 277.52 29.14C277.9 29.14 278.22 29.0433 278.48 28.85C278.746 28.6567 278.91 28.4 278.97 28.08H280.19C280.116 28.4667 279.963 28.81 279.73 29.11C279.496 29.41 279.193 29.6467 278.82 29.82C278.446 29.9867 278.03 30.07 277.57 30.07C277.036 30.07 276.563 29.9567 276.15 29.73C275.743 29.5033 275.423 29.1767 275.19 28.75C274.956 28.3233 274.84 27.82 274.84 27.24C274.84 26.6667 274.956 26.1667 275.19 25.74C275.423 25.3133 275.743 24.9867 276.15 24.76C276.563 24.5333 277.036 24.42 277.57 24.42C278.11 24.42 278.58 24.5333 278.98 24.76C279.386 24.98 279.696 25.2867 279.91 25.68C280.13 26.0667 280.24 26.5 280.24 26.98ZM279.09 26.95C279.103 26.59 279.04 26.29 278.9 26.05C278.766 25.8033 278.58 25.6233 278.34 25.51C278.106 25.39 277.85 25.33 277.57 25.33C277.123 25.33 276.75 25.4667 276.45 25.74C276.15 26.0133 275.986 26.4167 275.96 26.95H279.09ZM284.46 30L282.48 27.55V30H281.34V22.6H282.48V26.84L284.44 24.49H285.81L283.41 27.23L285.87 30H284.46ZM288.798 22.89C288.798 22.6967 288.864 22.5367 288.998 22.41C289.131 22.2833 289.308 22.22 289.528 22.22C289.748 22.22 289.924 22.2833 290.058 22.41C290.198 22.5367 290.268 22.6967 290.268 22.89C290.268 23.0833 290.198 23.24 290.058 23.36C289.924 23.48 289.748 23.54 289.528 23.54C289.308 23.54 289.131 23.48 288.998 23.36C288.864 23.24 288.798 23.0833 288.798 22.89ZM290.098 24.49V30H288.958V24.49H290.098ZM293.287 24.42C293.934 24.42 294.45 24.5867 294.837 24.92C295.23 25.2467 295.47 25.6867 295.557 26.24H294.477C294.43 25.94 294.3 25.7 294.087 25.52C293.88 25.3333 293.604 25.24 293.257 25.24C292.97 25.24 292.747 25.31 292.587 25.45C292.434 25.5833 292.357 25.7667 292.357 26C292.357 26.1733 292.414 26.3133 292.527 26.42C292.64 26.5267 292.78 26.61 292.947 26.67C293.12 26.73 293.364 26.7967 293.677 26.87C294.09 26.9633 294.424 27.06 294.677 27.16C294.937 27.26 295.157 27.42 295.337 27.64C295.524 27.8533 295.617 28.1467 295.617 28.52C295.617 28.98 295.44 29.3533 295.087 29.64C294.74 29.9267 294.27 30.07 293.677 30.07C292.99 30.07 292.434 29.91 292.007 29.59C291.587 29.27 291.334 28.8233 291.247 28.25H292.357C292.39 28.55 292.524 28.7933 292.757 28.98C292.99 29.1667 293.297 29.26 293.677 29.26C293.95 29.26 294.164 29.19 294.317 29.05C294.477 28.9033 294.557 28.72 294.557 28.5C294.557 28.3067 294.497 28.1533 294.377 28.04C294.257 27.9267 294.107 27.84 293.927 27.78C293.747 27.7133 293.5 27.6467 293.187 27.58C292.787 27.4867 292.46 27.3933 292.207 27.3C291.96 27.2067 291.747 27.0567 291.567 26.85C291.394 26.6367 291.307 26.35 291.307 25.99C291.307 25.5233 291.48 25.1467 291.827 24.86C292.18 24.5667 292.667 24.42 293.287 24.42ZM128.4 44L126.64 41.18H125.83V44H124.69V36.94H127.18C127.987 36.94 128.597 37.1367 129.01 37.53C129.43 37.9233 129.64 38.4433 129.64 39.09C129.64 39.6433 129.483 40.0967 129.17 40.45C128.863 40.8033 128.417 41.03 127.83 41.13L129.68 44H128.4ZM125.83 40.37H127.09C128.01 40.37 128.47 39.9633 128.47 39.15C128.47 38.7633 128.357 38.4633 128.13 38.25C127.91 38.03 127.563 37.92 127.09 37.92H125.83V40.37ZM133.827 38.42C134.307 38.42 134.733 38.5333 135.107 38.76C135.487 38.9867 135.783 39.3133 135.997 39.74C136.21 40.1667 136.317 40.6667 136.317 41.24C136.317 41.82 136.21 42.3233 135.997 42.75C135.783 43.1767 135.487 43.5033 135.107 43.73C134.733 43.9567 134.307 44.07 133.827 44.07C133.327 44.07 132.9 43.9467 132.547 43.7C132.193 43.4533 131.947 43.1267 131.807 42.72V46.62H130.667V38.49H131.807V39.77C131.947 39.3633 132.193 39.0367 132.547 38.79C132.9 38.5433 133.327 38.42 133.827 38.42ZM133.477 39.42C133.157 39.42 132.87 39.4967 132.617 39.65C132.363 39.7967 132.163 40.01 132.017 40.29C131.87 40.5633 131.797 40.88 131.797 41.24C131.797 41.6067 131.87 41.9267 132.017 42.2C132.163 42.4733 132.363 42.6867 132.617 42.84C132.87 42.9867 133.157 43.06 133.477 43.06C133.983 43.06 134.39 42.9 134.697 42.58C135.003 42.2533 135.157 41.8067 135.157 41.24C135.157 40.68 135.003 40.2367 134.697 39.91C134.39 39.5833 133.983 39.42 133.477 39.42ZM137.245 40.42C137.245 41.5467 137.445 42.43 137.845 43.07C138.245 43.7033 138.911 44.02 139.845 44.02C140.778 44.02 141.445 43.7 141.845 43.06C142.245 42.42 142.445 41.54 142.445 40.42C142.445 39.3067 142.245 38.4333 141.845 37.8C141.445 37.16 140.778 36.84 139.845 36.84C138.911 36.84 138.245 37.1567 137.845 37.79C137.445 38.4233 137.245 39.3 137.245 40.42ZM141.305 40.42C141.305 41.2333 141.205 41.8567 141.005 42.29C140.805 42.7233 140.418 42.94 139.845 42.94C139.265 42.94 138.875 42.7233 138.675 42.29C138.475 41.8567 138.375 41.2333 138.375 40.42C138.375 39.6133 138.475 38.9967 138.675 38.57C138.875 38.1433 139.265 37.93 139.845 37.93C140.418 37.93 140.805 38.1467 141.005 38.58C141.205 39.0067 141.305 39.62 141.305 40.42ZM146.775 34.56L144.055 45.76H142.945L145.665 34.56H146.775ZM149.634 38.42C150.134 38.42 150.561 38.5433 150.914 38.79C151.268 39.0367 151.514 39.3633 151.654 39.77V36.6H152.804V44H151.654V42.72C151.514 43.1267 151.268 43.4533 150.914 43.7C150.561 43.9467 150.134 44.07 149.634 44.07C149.154 44.07 148.724 43.9567 148.344 43.73C147.971 43.5033 147.678 43.1767 147.464 42.75C147.251 42.3233 147.144 41.82 147.144 41.24C147.144 40.6667 147.251 40.1667 147.464 39.74C147.678 39.3133 147.971 38.9867 148.344 38.76C148.724 38.5333 149.154 38.42 149.634 38.42ZM149.984 39.42C149.478 39.42 149.071 39.5833 148.764 39.91C148.464 40.23 148.314 40.6733 148.314 41.24C148.314 41.8067 148.464 42.2533 148.764 42.58C149.071 42.9 149.478 43.06 149.984 43.06C150.304 43.06 150.591 42.9867 150.844 42.84C151.098 42.6867 151.298 42.4733 151.444 42.2C151.591 41.9267 151.664 41.6067 151.664 41.24C151.664 40.88 151.591 40.5633 151.444 40.29C151.298 40.01 151.098 39.7967 150.844 39.65C150.591 39.4967 150.304 39.42 149.984 39.42ZM156.382 38.42C156.882 38.42 157.309 38.5433 157.662 38.79C158.016 39.0367 158.266 39.3633 158.412 39.77V38.49H159.552V44H158.412V42.72C158.266 43.1267 158.016 43.4533 157.662 43.7C157.309 43.9467 156.882 44.07 156.382 44.07C155.902 44.07 155.472 43.9567 155.092 43.73C154.719 43.5033 154.426 43.1767 154.212 42.75C153.999 42.3233 153.892 41.82 153.892 41.24C153.892 40.6667 153.999 40.1667 154.212 39.74C154.426 39.3133 154.719 38.9867 155.092 38.76C155.472 38.5333 155.902 38.42 156.382 38.42ZM156.732 39.42C156.226 39.42 155.819 39.5833 155.512 39.91C155.212 40.23 155.062 40.6733 155.062 41.24C155.062 41.8067 155.212 42.2533 155.512 42.58C155.819 42.9 156.226 43.06 156.732 43.06C157.052 43.06 157.339 42.9867 157.592 42.84C157.846 42.6867 158.046 42.4733 158.192 42.2C158.339 41.9267 158.412 41.6067 158.412 41.24C158.412 40.88 158.339 40.5633 158.192 40.29C158.046 40.01 157.846 39.7967 157.592 39.65C157.339 39.4967 157.052 39.42 156.732 39.42ZM161.57 38.49L163.22 42.54L164.75 38.49H166.02L162.69 46.62H161.42L162.61 43.87L160.29 38.49H161.57ZM167.67 42.74V44H166.38V42.74H167.67Z" fill="white"/>
<path d="M130.588 73.684C130.588 74.116 130.48 74.516 130.264 74.884C130.048 75.244 129.728 75.536 129.304 75.76C128.88 75.976 128.364 76.084 127.756 76.084C127.156 76.084 126.62 75.984 126.148 75.784C125.676 75.576 125.296 75.28 125.008 74.896C124.728 74.512 124.568 74.064 124.528 73.552H126.328C126.368 73.896 126.504 74.184 126.736 74.416C126.976 74.64 127.292 74.752 127.684 74.752C128.036 74.752 128.304 74.66 128.488 74.476C128.68 74.284 128.776 74.04 128.776 73.744C128.776 73.48 128.7 73.264 128.548 73.096C128.396 72.92 128.204 72.78 127.972 72.676C127.74 72.572 127.42 72.452 127.012 72.316C126.484 72.14 126.052 71.968 125.716 71.8C125.38 71.624 125.092 71.372 124.852 71.044C124.62 70.716 124.504 70.288 124.504 69.76C124.504 69.032 124.764 68.46 125.284 68.044C125.812 67.62 126.508 67.408 127.372 67.408C128.268 67.408 128.98 67.624 129.508 68.056C130.044 68.488 130.348 69.064 130.42 69.784H128.596C128.548 69.48 128.42 69.232 128.212 69.04C128.004 68.84 127.72 68.74 127.36 68.74C127.048 68.74 126.796 68.824 126.604 68.992C126.412 69.152 126.316 69.388 126.316 69.7C126.316 69.948 126.388 70.156 126.532 70.324C126.684 70.484 126.872 70.616 127.096 70.72C127.328 70.824 127.64 70.94 128.032 71.068C128.576 71.26 129.016 71.44 129.352 71.608C129.696 71.776 129.988 72.028 130.228 72.364C130.468 72.7 130.588 73.14 130.588 73.684ZM138.086 72.424C138.086 72.592 138.066 72.784 138.026 73H133.154C133.178 73.592 133.338 74.028 133.634 74.308C133.93 74.588 134.298 74.728 134.738 74.728C135.13 74.728 135.454 74.632 135.71 74.44C135.974 74.248 136.142 73.988 136.214 73.66H138.002C137.914 74.124 137.726 74.54 137.438 74.908C137.15 75.276 136.778 75.564 136.322 75.772C135.874 75.98 135.374 76.084 134.822 76.084C134.174 76.084 133.598 75.948 133.094 75.676C132.59 75.396 132.198 75 131.918 74.488C131.638 73.976 131.498 73.372 131.498 72.676C131.498 71.98 131.638 71.376 131.918 70.864C132.198 70.344 132.59 69.948 133.094 69.676C133.598 69.404 134.174 69.268 134.822 69.268C135.478 69.268 136.05 69.404 136.538 69.676C137.034 69.948 137.414 70.324 137.678 70.804C137.95 71.276 138.086 71.816 138.086 72.424ZM136.382 72.256C136.406 71.712 136.262 71.3 135.95 71.02C135.646 70.74 135.27 70.6 134.822 70.6C134.366 70.6 133.982 70.74 133.67 71.02C133.358 71.3 133.186 71.712 133.154 72.256H136.382ZM142.84 74.548V76H141.952C141.208 76 140.636 75.82 140.236 75.46C139.844 75.1 139.648 74.5 139.648 73.66V70.78H138.724V69.352H139.648V67.708H141.34V69.352H142.828V70.78H141.34V73.684C141.34 74.004 141.404 74.228 141.532 74.356C141.66 74.484 141.876 74.548 142.18 74.548H142.84ZM147.81 69.352L149.622 73.864L151.302 69.352H153.162L149.094 79.168H147.222L148.722 75.808L145.926 69.352H147.81ZM157.031 69.268C157.679 69.268 158.259 69.404 158.771 69.676C159.291 69.948 159.699 70.344 159.995 70.864C160.291 71.376 160.439 71.98 160.439 72.676C160.439 73.372 160.291 73.976 159.995 74.488C159.699 75 159.291 75.396 158.771 75.676C158.259 75.948 157.679 76.084 157.031 76.084C156.383 76.084 155.799 75.948 155.279 75.676C154.767 75.396 154.363 75 154.067 74.488C153.771 73.976 153.623 73.372 153.623 72.676C153.623 71.98 153.771 71.376 154.067 70.864C154.363 70.344 154.767 69.948 155.279 69.676C155.799 69.404 156.383 69.268 157.031 69.268ZM157.031 70.732C156.559 70.732 156.159 70.9 155.831 71.236C155.503 71.564 155.339 72.044 155.339 72.676C155.339 73.308 155.503 73.792 155.831 74.128C156.159 74.456 156.559 74.62 157.031 74.62C157.503 74.62 157.903 74.456 158.231 74.128C158.559 73.792 158.723 73.308 158.723 72.676C158.723 72.044 158.559 71.564 158.231 71.236C157.903 70.9 157.503 70.732 157.031 70.732ZM167.995 69.352V76H166.303V74.656C166.127 75.104 165.835 75.456 165.427 75.712C165.027 75.96 164.563 76.084 164.035 76.084C163.267 76.084 162.655 75.832 162.199 75.328C161.743 74.824 161.515 74.12 161.515 73.216V69.352H163.195V73.024C163.195 73.552 163.331 73.964 163.603 74.26C163.875 74.548 164.243 74.692 164.707 74.692C165.195 74.692 165.583 74.536 165.871 74.224C166.159 73.912 166.303 73.464 166.303 72.88V69.352H167.995ZM171.226 70.624C171.474 70.2 171.802 69.868 172.21 69.628C172.618 69.38 173.074 69.256 173.578 69.256V71.068H173.086C171.846 71.068 171.226 71.644 171.226 72.796V76H169.534V69.352H171.226V70.624ZM181.099 69.268C181.659 69.268 182.163 69.404 182.611 69.676C183.059 69.948 183.407 70.344 183.655 70.864C183.911 71.376 184.039 71.98 184.039 72.676C184.039 73.372 183.911 73.98 183.655 74.5C183.407 75.012 183.059 75.404 182.611 75.676C182.163 75.948 181.659 76.084 181.099 76.084C180.539 76.084 180.059 75.952 179.659 75.688C179.267 75.416 178.987 75.056 178.819 74.608V76H177.127V67.12H178.819V70.732C178.987 70.284 179.267 69.928 179.659 69.664C180.059 69.4 180.539 69.268 181.099 69.268ZM180.571 70.744C180.059 70.744 179.635 70.92 179.299 71.272C178.971 71.616 178.807 72.084 178.807 72.676C178.807 73.26 178.971 73.728 179.299 74.08C179.635 74.424 180.059 74.596 180.571 74.596C181.099 74.596 181.523 74.428 181.843 74.092C182.163 73.748 182.323 73.276 182.323 72.676C182.323 72.076 182.163 71.604 181.843 71.26C181.523 70.916 181.099 70.744 180.571 70.744ZM191.597 69.352V76H189.905V74.656C189.729 75.104 189.437 75.456 189.029 75.712C188.629 75.96 188.165 76.084 187.637 76.084C186.869 76.084 186.257 75.832 185.801 75.328C185.345 74.824 185.117 74.12 185.117 73.216V69.352H186.797V73.024C186.797 73.552 186.933 73.964 187.205 74.26C187.477 74.548 187.845 74.692 188.309 74.692C188.797 74.692 189.185 74.536 189.473 74.224C189.761 73.912 189.905 73.464 189.905 72.88V69.352H191.597ZM195.739 69.268C196.299 69.268 196.775 69.4 197.167 69.664C197.567 69.928 197.855 70.284 198.031 70.732V67.12H199.711V76H198.031V74.608C197.855 75.056 197.567 75.416 197.167 75.688C196.775 75.952 196.299 76.084 195.739 76.084C195.179 76.084 194.675 75.948 194.227 75.676C193.779 75.404 193.427 75.012 193.171 74.5C192.923 73.98 192.799 73.372 192.799 72.676C192.799 71.98 192.923 71.376 193.171 70.864C193.427 70.344 193.779 69.948 194.227 69.676C194.675 69.404 195.179 69.268 195.739 69.268ZM196.267 70.744C195.739 70.744 195.315 70.916 194.995 71.26C194.675 71.604 194.515 72.076 194.515 72.676C194.515 73.276 194.675 73.748 194.995 74.092C195.315 74.428 195.739 74.596 196.267 74.596C196.779 74.596 197.199 74.424 197.527 74.08C197.863 73.728 198.031 73.26 198.031 72.676C198.031 72.084 197.863 71.616 197.527 71.272C197.199 70.92 196.779 70.744 196.267 70.744ZM203.849 69.268C204.409 69.268 204.889 69.4 205.289 69.664C205.689 69.928 205.973 70.284 206.141 70.732V69.352H207.821V76.024C207.821 76.64 207.697 77.192 207.449 77.68C207.209 78.176 206.845 78.564 206.357 78.844C205.877 79.124 205.293 79.264 204.605 79.264C203.645 79.264 202.869 79.036 202.277 78.58C201.685 78.124 201.325 77.504 201.197 76.72H202.865C202.961 77.056 203.145 77.316 203.417 77.5C203.697 77.692 204.053 77.788 204.485 77.788C204.981 77.788 205.381 77.64 205.685 77.344C205.989 77.056 206.141 76.616 206.141 76.024V74.608C205.973 75.056 205.689 75.416 205.289 75.688C204.889 75.952 204.409 76.084 203.849 76.084C203.289 76.084 202.785 75.948 202.337 75.676C201.889 75.404 201.537 75.012 201.281 74.5C201.033 73.98 200.909 73.372 200.909 72.676C200.909 71.98 201.033 71.376 201.281 70.864C201.537 70.344 201.889 69.948 202.337 69.676C202.785 69.404 203.289 69.268 203.849 69.268ZM204.377 70.744C203.849 70.744 203.425 70.916 203.105 71.26C202.785 71.604 202.625 72.076 202.625 72.676C202.625 73.276 202.785 73.748 203.105 74.092C203.425 74.428 203.849 74.596 204.377 74.596C204.889 74.596 205.309 74.424 205.637 74.08C205.973 73.728 206.141 73.26 206.141 72.676C206.141 72.084 205.973 71.616 205.637 71.272C205.309 70.92 204.889 70.744 204.377 70.744ZM215.606 72.424C215.606 72.592 215.586 72.784 215.546 73H210.674C210.698 73.592 210.858 74.028 211.154 74.308C211.45 74.588 211.818 74.728 212.258 74.728C212.65 74.728 212.974 74.632 213.23 74.44C213.494 74.248 213.662 73.988 213.734 73.66H215.522C215.434 74.124 215.246 74.54 214.958 74.908C214.67 75.276 214.298 75.564 213.842 75.772C213.394 75.98 212.894 76.084 212.342 76.084C211.694 76.084 211.118 75.948 210.614 75.676C210.11 75.396 209.718 75 209.438 74.488C209.158 73.976 209.018 73.372 209.018 72.676C209.018 71.98 209.158 71.376 209.438 70.864C209.718 70.344 210.11 69.948 210.614 69.676C211.118 69.404 211.694 69.268 212.342 69.268C212.998 69.268 213.57 69.404 214.058 69.676C214.554 69.948 214.934 70.324 215.198 70.804C215.47 71.276 215.606 71.816 215.606 72.424ZM213.902 72.256C213.926 71.712 213.782 71.3 213.47 71.02C213.166 70.74 212.79 70.6 212.342 70.6C211.886 70.6 211.502 70.74 211.19 71.02C210.878 71.3 210.706 71.712 210.674 72.256H213.902ZM220.359 74.548V76H219.471C218.727 76 218.155 75.82 217.755 75.46C217.363 75.1 217.167 74.5 217.167 73.66V70.78H216.243V69.352H217.167V67.708H218.859V69.352H220.347V70.78H218.859V73.684C218.859 74.004 218.923 74.228 219.051 74.356C219.179 74.484 219.395 74.548 219.699 74.548H220.359Z" fill="#BDFFD5"/>
<circle cx="294" cy="72" r="11" fill="#00A677"/>
<path d="M291.827 67.3686C291.465 67.7101 291.465 68.2617 291.827 68.6032L295.428 72.0008L291.827 75.3983C291.465 75.7398 291.465 76.2915 291.827 76.633C292.189 76.9745 292.774 76.9745 293.136 76.633L297.395 72.6137C297.757 72.2722 297.757 71.7206 297.395 71.3791L293.136 67.3598C292.783 67.0271 292.189 67.0271 291.827 67.3686Z" fill="white"/>
<path d="M45.8578 18.7601C46.4376 19.33 47.0482 19.8661 47.7268 20.3137C51.1878 22.597 61.4818 28.0834 77.7656 25.7631C98.1116 22.864 95.2032 43.3431 92.2947 48.8093C89.3862 54.2755 78.6514 64.3163 77.7656 69.3301C76.8798 74.3439 80.8039 88.0137 71.7161 83.9418C62.6283 79.8699 57.3508 70.272 45.4473 71.4354C33.5437 72.5989 25.1091 67.3539 30.3444 57.9065C35.5796 48.459 41.8584 42.351 33.7747 31.8805C25.9154 21.7007 39.0518 12.0708 45.8578 18.7601Z" fill="#00A677"/>
<path d="M35.8299 44.6736L77.6404 36.5303L76.0318 28.2712C75.9774 27.9919 75.8685 27.726 75.7113 27.4888C75.5542 27.2516 75.3518 27.0476 75.1159 26.8886C74.8799 26.7295 74.6149 26.6185 74.336 26.5619C74.0571 26.5053 73.7698 26.5041 73.4905 26.5585L35.0264 40.5482L35.8299 44.6736Z" fill="#00856C"/>
<path d="M35.0518 40.6792L80.7753 31.7741C81.4326 31.646 82.1139 31.7844 82.6692 32.1586C83.2245 32.5329 83.6084 33.1125 83.7364 33.7698L88.995 60.7698C89.123 61.4271 88.9847 62.1084 88.6104 62.6637C88.2361 63.219 87.6566 63.6029 86.9993 63.7309L43.7541 72.1534C43.0968 72.2814 42.4156 72.143 41.8602 71.7688C41.3049 71.3945 40.921 70.815 40.793 70.1576L35.0518 40.6792Z" fill="#BDFFD5"/>
<path d="M69.0416 44.9086L85.0247 41.7957C85.682 41.6677 86.3633 41.8061 86.9186 42.1803C87.4739 42.5546 87.8578 43.1341 87.9858 43.7915L89.1729 49.8864C89.3009 50.5437 89.1626 51.225 88.7883 51.7803C88.414 52.3356 87.8345 52.7195 87.1772 52.8476L71.1941 55.9604C71.0683 55.9849 70.9379 55.9585 70.8317 55.8869C70.7254 55.8152 70.652 55.7043 70.6275 55.5786L68.6597 45.4752C68.6352 45.3494 68.6617 45.2191 68.7333 45.1128C68.8049 45.0066 68.9158 44.9331 69.0416 44.9086Z" fill="#00856C"/>
<path d="M75.3643 51.9894C76.7878 51.9894 77.9418 50.8354 77.9418 49.4119C77.9418 47.9884 76.7878 46.8345 75.3643 46.8345C73.9408 46.8345 72.7869 47.9884 72.7869 49.4119C72.7869 50.8354 73.9408 51.9894 75.3643 51.9894Z" fill="#BDFFD5"/>
</svg>
