<svg width="358" height="144" viewBox="0 0 358 144" fill="none" xmlns="http://www.w3.org/2000/svg">
<g clip-path="url(#clip0_398_4014)">
<rect width="360" height="800" transform="translate(0 -100)" fill="white"/>
<path d="M0 -2H359V124C359 135.046 350.046 144 339 144H20C8.95431 144 0 135.046 0 124V-2Z" fill="#00C77D"/>
<g style="mix-blend-mode:multiply">
<path fill-rule="evenodd" clip-rule="evenodd" d="M15.9532 143.806C16.8681 143.934 17.8029 144 18.7532 144H337.753C348.799 144 357.753 135.046 357.753 124V-82H354.56L15.9532 143.806Z" fill="url(#paint0_linear_398_4014)" fill-opacity="0.7"/>
</g>
<rect x="16" y="21" width="328" height="103" rx="10" fill="white"/>
<rect x="29" y="103" width="301" height="5" rx="2.5" fill="#D9D9D9"/>
<path d="M37.416 49.596L35.904 47.952C35.536 48.048 35.152 48.096 34.752 48.096C33.96 48.096 33.244 47.912 32.604 47.544C31.972 47.168 31.472 46.652 31.104 45.996C30.736 45.332 30.552 44.584 30.552 43.752C30.552 42.92 30.736 42.176 31.104 41.52C31.472 40.856 31.972 40.34 32.604 39.972C33.244 39.604 33.96 39.42 34.752 39.42C35.536 39.42 36.244 39.604 36.876 39.972C37.516 40.34 38.016 40.856 38.376 41.52C38.744 42.176 38.928 42.92 38.928 43.752C38.928 44.552 38.756 45.276 38.412 45.924C38.068 46.572 37.6 47.084 37.008 47.46L39.108 49.596H37.416ZM31.956 43.752C31.956 44.368 32.072 44.908 32.304 45.372C32.544 45.836 32.876 46.192 33.3 46.44C33.724 46.688 34.208 46.812 34.752 46.812C35.288 46.812 35.764 46.688 36.18 46.44C36.604 46.192 36.932 45.836 37.164 45.372C37.404 44.908 37.524 44.368 37.524 43.752C37.524 43.136 37.404 42.596 37.164 42.132C36.932 41.668 36.604 41.312 36.18 41.064C35.764 40.816 35.288 40.692 34.752 40.692C34.208 40.692 33.724 40.816 33.3 41.064C32.876 41.312 32.544 41.668 32.304 42.132C32.072 42.596 31.956 43.136 31.956 43.752ZM44.3165 43.08V44.232H39.3725V43.08H44.3165ZM47.7468 44.712V48H46.3788V39.528H49.2588C50.2348 39.528 50.9668 39.76 51.4548 40.224C51.9508 40.688 52.1988 41.324 52.1988 42.132C52.1988 42.932 51.9468 43.564 51.4428 44.028C50.9388 44.484 50.2108 44.712 49.2588 44.712H47.7468ZM49.1148 43.596C50.2428 43.596 50.8068 43.108 50.8068 42.132C50.8068 41.652 50.6708 41.288 50.3988 41.04C50.1348 40.784 49.7068 40.656 49.1148 40.656H47.7468V43.596H49.1148ZM56.4223 41.304C57.0623 41.304 57.6383 41.44 58.1503 41.712C58.6623 41.984 59.0623 42.376 59.3503 42.888C59.6383 43.4 59.7823 44 59.7823 44.688C59.7823 45.384 59.6383 45.988 59.3503 46.5C59.0623 47.012 58.6623 47.404 58.1503 47.676C57.6383 47.948 57.0623 48.084 56.4223 48.084C55.7823 48.084 55.2063 47.948 54.6943 47.676C54.1903 47.404 53.7903 47.012 53.4943 46.5C53.2063 45.98 53.0623 45.376 53.0623 44.688C53.0623 44 53.2063 43.4 53.4943 42.888C53.7903 42.376 54.1903 41.984 54.6943 41.712C55.2063 41.44 55.7823 41.304 56.4223 41.304ZM56.4223 42.492C56.0703 42.492 55.7463 42.572 55.4503 42.732C55.1543 42.892 54.9143 43.14 54.7303 43.476C54.5543 43.804 54.4663 44.208 54.4663 44.688C54.4663 45.176 54.5543 45.584 54.7303 45.912C54.9143 46.24 55.1543 46.484 55.4503 46.644C55.7463 46.804 56.0703 46.884 56.4223 46.884C56.7743 46.884 57.0983 46.804 57.3943 46.644C57.6903 46.484 57.9263 46.24 58.1023 45.912C58.2863 45.584 58.3783 45.176 58.3783 44.688C58.3783 44.208 58.2863 43.804 58.1023 43.476C57.9263 43.14 57.6903 42.892 57.3943 42.732C57.0983 42.572 56.7743 42.492 56.4223 42.492ZM60.9055 39.468C60.9055 39.236 60.9855 39.044 61.1455 38.892C61.3055 38.74 61.5175 38.664 61.7815 38.664C62.0455 38.664 62.2575 38.74 62.4175 38.892C62.5855 39.044 62.6695 39.236 62.6695 39.468C62.6695 39.7 62.5855 39.888 62.4175 40.032C62.2575 40.176 62.0455 40.248 61.7815 40.248C61.5175 40.248 61.3055 40.176 61.1455 40.032C60.9855 39.888 60.9055 39.7 60.9055 39.468ZM62.4655 41.388V48H61.0975V41.388H62.4655ZM67.817 41.28C68.585 41.28 69.201 41.528 69.665 42.024C70.129 42.52 70.361 43.228 70.361 44.148V48H68.993V44.292C68.993 43.7 68.841 43.244 68.537 42.924C68.233 42.596 67.817 42.432 67.289 42.432C66.745 42.432 66.309 42.608 65.981 42.96C65.653 43.304 65.489 43.812 65.489 44.484V48H64.121V41.388H65.489V42.84C65.665 42.344 65.961 41.96 66.377 41.688C66.793 41.416 67.273 41.28 67.817 41.28ZM75.2848 46.812V48H74.4448C73.7408 48 73.2048 47.832 72.8368 47.496C72.4768 47.152 72.2968 46.584 72.2968 45.792V42.552H71.3488V41.388H72.2968V39.744H73.6768V41.388H75.2728V42.552H73.6768V45.816C73.6768 46.192 73.7448 46.452 73.8808 46.596C74.0248 46.74 74.2728 46.812 74.6248 46.812H75.2848Z" fill="black"/>
<path d="M44 59C36.272 59 30 65.048 30 72.5C30 79.952 36.272 86 44 86C51.728 86 58 79.952 58 72.5C58 65.048 51.728 59 44 59ZM45.974 80.7215V81.5045C45.974 82.49 45.134 83.3 44.112 83.3H44.098C43.076 83.3 42.236 82.49 42.236 81.5045V80.6945C40.374 80.3165 38.722 79.331 38.022 77.6705C37.7 76.928 38.302 76.1045 39.142 76.1045H39.478C39.996 76.1045 40.416 76.442 40.612 76.9145C41.018 77.927 42.082 78.629 44.126 78.629C46.87 78.629 47.486 77.306 47.486 76.4825C47.486 75.362 46.87 74.309 43.748 73.5935C40.276 72.7835 37.896 71.4065 37.896 68.639C37.896 66.317 39.842 64.805 42.25 64.3055V63.4955C42.25 62.51 43.09 61.7 44.112 61.7H44.126C45.148 61.7 45.988 62.51 45.988 63.4955V64.3325C47.92 64.7915 49.138 65.9525 49.67 67.3835C49.95 68.126 49.362 68.909 48.536 68.909H48.172C47.654 68.909 47.234 68.558 47.094 68.072C46.772 67.046 45.89 66.3845 44.126 66.3845C42.026 66.3845 40.766 67.3025 40.766 68.5985C40.766 69.7325 41.676 70.475 44.504 71.177C47.332 71.879 50.356 73.0535 50.356 76.4555C50.328 78.926 48.41 80.276 45.974 80.7215Z" fill="#F8AB5D"/>
<path d="M78.536 68.224H70.904V71.656C71.24 71.272 71.704 70.976 72.296 70.768C72.904 70.544 73.56 70.432 74.264 70.432C75.4 70.432 76.352 70.688 77.12 71.2C77.888 71.696 78.456 72.368 78.824 73.216C79.192 74.064 79.376 75 79.376 76.024C79.376 77.88 78.856 79.352 77.816 80.44C76.776 81.512 75.312 82.048 73.424 82.048C72.144 82.048 71.032 81.824 70.088 81.376C69.144 80.912 68.416 80.272 67.904 79.456C67.392 78.64 67.12 77.696 67.088 76.624H71.096C71.176 77.168 71.392 77.616 71.744 77.968C72.112 78.32 72.608 78.496 73.232 78.496C73.952 78.496 74.488 78.264 74.84 77.8C75.208 77.336 75.392 76.72 75.392 75.952C75.392 75.216 75.2 74.648 74.816 74.248C74.432 73.848 73.896 73.648 73.208 73.648C72.68 73.648 72.24 73.768 71.888 74.008C71.536 74.232 71.296 74.528 71.168 74.896H67.184V64.624H78.536V68.224ZM81.4299 73.336C81.4299 75.992 81.9659 78.096 83.0379 79.648C84.1099 81.2 85.8219 81.976 88.1739 81.976C90.5099 81.976 92.2139 81.2 93.2859 79.648C94.3739 78.096 94.9179 75.992 94.9179 73.336C94.9179 70.696 94.3739 68.608 93.2859 67.072C92.2139 65.52 90.5099 64.744 88.1739 64.744C85.8219 64.744 84.1099 65.52 83.0379 67.072C81.9659 68.608 81.4299 70.696 81.4299 73.336ZM90.8379 73.336C90.8379 74.856 90.6539 76.032 90.2859 76.864C89.9339 77.68 89.2299 78.088 88.1739 78.088C87.1019 78.088 86.3819 77.68 86.0139 76.864C85.6459 76.032 85.4619 74.856 85.4619 73.336C85.4619 71.832 85.6459 70.672 86.0139 69.856C86.3819 69.04 87.1019 68.632 88.1739 68.632C89.2299 68.632 89.9339 69.04 90.2859 69.856C90.6539 70.656 90.8379 71.816 90.8379 73.336ZM96.8752 73.336C96.8752 75.992 97.4112 78.096 98.4832 79.648C99.5552 81.2 101.267 81.976 103.619 81.976C105.955 81.976 107.659 81.2 108.731 79.648C109.819 78.096 110.363 75.992 110.363 73.336C110.363 70.696 109.819 68.608 108.731 67.072C107.659 65.52 105.955 64.744 103.619 64.744C101.267 64.744 99.5552 65.52 98.4832 67.072C97.4112 68.608 96.8752 70.696 96.8752 73.336ZM106.283 73.336C106.283 74.856 106.099 76.032 105.731 76.864C105.379 77.68 104.675 78.088 103.619 78.088C102.547 78.088 101.827 77.68 101.459 76.864C101.091 76.032 100.907 74.856 100.907 73.336C100.907 71.832 101.091 70.672 101.459 69.856C101.827 69.04 102.547 68.632 103.619 68.632C104.675 68.632 105.379 69.04 105.731 69.856C106.099 70.656 106.283 71.816 106.283 73.336Z" fill="black"/>
<g filter="url(#filter0_d_398_4014)">
<rect width="360" height="70" transform="translate(0 -72)" fill="white"/>
</g>
</g>
<defs>
<filter id="filter0_d_398_4014" x="-2" y="-72" width="364" height="74" filterUnits="userSpaceOnUse" color-interpolation-filters="sRGB">
<feFlood flood-opacity="0" result="BackgroundImageFix"/>
<feColorMatrix in="SourceAlpha" type="matrix" values="0 0 0 0 0 0 0 0 0 0 0 0 0 0 0 0 0 0 127 0" result="hardAlpha"/>
<feOffset dy="2"/>
<feGaussianBlur stdDeviation="1"/>
<feComposite in2="hardAlpha" operator="out"/>
<feColorMatrix type="matrix" values="0 0 0 0 0 0 0 0 0 0 0 0 0 0 0 0 0 0 0.15 0"/>
<feBlend mode="normal" in2="BackgroundImageFix" result="effect1_dropShadow_398_4014"/>
<feBlend mode="normal" in="SourceGraphic" in2="effect1_dropShadow_398_4014" result="shape"/>
</filter>
<linearGradient id="paint0_linear_398_4014" x1="98.2176" y1="144" x2="369.615" y2="15.8092" gradientUnits="userSpaceOnUse">
<stop stop-color="#D9D9D9" stop-opacity="0.7"/>
<stop offset="1" stop-color="#D9D9D9" stop-opacity="0.2"/>
</linearGradient>
<clipPath id="clip0_398_4014">
<rect width="360" height="800" fill="white" transform="translate(0 -100)"/>
</clipPath>
</defs>
</svg>
