<svg width="360" height="129" viewBox="0 0 360 129" fill="none" xmlns="http://www.w3.org/2000/svg">
<g clip-path="url(#clip0_98_681)">
<rect width="360" height="800" transform="translate(0 -671)" fill="white"/>
<path d="M21.3749 12.383C-88.17 57.6106 6.92818 166.655 68.1704 215.523C79.1483 226.552 112.648 243.33 158.826 222.208C216.547 195.805 119.526 313.534 209.324 272.941C299.121 232.348 286.325 358.74 314.646 256.385C342.968 154.03 345.956 81.078 234.514 116.805C123.073 152.531 158.306 -44.1515 21.3749 12.383Z" fill="url(#paint0_linear_98_681)"/>
<path d="M35.9799 89.4278C-114.532 155.219 53.6993 241.952 128.905 302.947C142.112 316.872 184.45 337.112 248.144 306.667C327.762 268.61 185.094 429.294 308.897 370.724C432.701 312.154 400.518 479.528 450.361 342.975C500.205 206.422 427.391 92.2861 275.513 145.656C123.635 199.026 224.12 7.18891 35.9799 89.4278Z" fill="url(#paint1_linear_98_681)"/>
</g>
<defs>
<linearGradient id="paint0_linear_98_681" x1="309.27" y1="286.256" x2="24.2017" y2="-2.28356" gradientUnits="userSpaceOnUse">
<stop stop-color="#8E92B8"/>
<stop offset="1" stop-color="#7C5496"/>
</linearGradient>
<linearGradient id="paint1_linear_98_681" x1="439.641" y1="382.664" x2="96.7161" y2="18.4368" gradientUnits="userSpaceOnUse">
<stop stop-color="#8E92B8"/>
<stop offset="1" stop-color="#7C5295"/>
</linearGradient>
<clipPath id="clip0_98_681">
<rect width="360" height="800" fill="white" transform="translate(0 -671)"/>
</clipPath>
</defs>
</svg>
