<svg width="318" height="146" viewBox="0 0 318 146" fill="none" xmlns="http://www.w3.org/2000/svg">
<path d="M4.89898 26.3639L3.23898 23.5139H2.13898V26.3639H1.22898V19.3939H3.47898C4.00565 19.3939 4.44898 19.4839 4.80898 19.6639C5.17565 19.8439 5.44898 20.0872 5.62898 20.3939C5.80898 20.7006 5.89898 21.0506 5.89898 21.4439C5.89898 21.9239 5.75898 22.3472 5.47898 22.7139C5.20565 23.0806 4.79232 23.3239 4.23898 23.4439L5.98898 26.3639H4.89898ZM2.13898 22.7839H3.47898C3.97232 22.7839 4.34232 22.6639 4.58898 22.4239C4.83565 22.1772 4.95898 21.8506 4.95898 21.4439C4.95898 21.0306 4.83565 20.7106 4.58898 20.4839C4.34898 20.2572 3.97898 20.1439 3.47898 20.1439H2.13898V22.7839ZM8.22297 21.8939C8.40297 21.5806 8.66964 21.3206 9.02297 21.1139C9.38297 20.9006 9.79964 20.7939 10.273 20.7939C10.7596 20.7939 11.1996 20.9106 11.593 21.1439C11.993 21.3772 12.3063 21.7072 12.533 22.1339C12.7596 22.5539 12.873 23.0439 12.873 23.6039C12.873 24.1572 12.7596 24.6506 12.533 25.0839C12.3063 25.5172 11.993 25.8539 11.593 26.0939C11.1996 26.3339 10.7596 26.4539 10.273 26.4539C9.8063 26.4539 9.39297 26.3506 9.03297 26.1439C8.67964 25.9306 8.40964 25.6672 8.22297 25.3539V28.9639H7.31297V20.8839H8.22297V21.8939ZM11.943 23.6039C11.943 23.1906 11.8596 22.8306 11.693 22.5239C11.5263 22.2172 11.2996 21.9839 11.013 21.8239C10.733 21.6639 10.423 21.5839 10.083 21.5839C9.74964 21.5839 9.43964 21.6672 9.15297 21.8339C8.87297 21.9939 8.6463 22.2306 8.47297 22.5439C8.3063 22.8506 8.22297 23.2072 8.22297 23.6139C8.22297 24.0272 8.3063 24.3906 8.47297 24.7039C8.6463 25.0106 8.87297 25.2472 9.15297 25.4139C9.43964 25.5739 9.74964 25.6539 10.083 25.6539C10.423 25.6539 10.733 25.5739 11.013 25.4139C11.2996 25.2472 11.5263 25.0106 11.693 24.7039C11.8596 24.3906 11.943 24.0239 11.943 23.6039ZM13.6808 19.9639V19.1339H15.5608V26.3639H14.6408V19.9639H13.6808ZM21.7339 19.9239H18.2239V22.2039C18.3772 21.9906 18.6039 21.8172 18.9039 21.6839C19.2039 21.5439 19.5272 21.4739 19.8739 21.4739C20.4272 21.4739 20.8772 21.5906 21.2239 21.8239C21.5706 22.0506 21.8172 22.3472 21.9639 22.7139C22.1172 23.0739 22.1939 23.4572 22.1939 23.8639C22.1939 24.3439 22.1039 24.7739 21.9239 25.1539C21.7439 25.5339 21.4672 25.8339 21.0939 26.0539C20.7272 26.2739 20.2706 26.3839 19.7239 26.3839C19.0239 26.3839 18.4572 26.2039 18.0239 25.8439C17.5906 25.4839 17.3272 25.0039 17.2339 24.4039H18.1239C18.2106 24.7839 18.3939 25.0806 18.6739 25.2939C18.9539 25.5072 19.3072 25.6139 19.7339 25.6139C20.2606 25.6139 20.6572 25.4572 20.9239 25.1439C21.1906 24.8239 21.3239 24.4039 21.3239 23.8839C21.3239 23.3639 21.1906 22.9639 20.9239 22.6839C20.6572 22.3972 20.2639 22.2539 19.7439 22.2539C19.3906 22.2539 19.0806 22.3406 18.8139 22.5139C18.5539 22.6806 18.3639 22.9106 18.2439 23.2039H17.3839V19.1239H21.7339V19.9239ZM23.4032 22.6739C23.4032 21.5272 23.5899 20.6339 23.9632 19.9939C24.3365 19.3472 24.9899 19.0239 25.9232 19.0239C26.8499 19.0239 27.4999 19.3472 27.8732 19.9939C28.2465 20.6339 28.4332 21.5272 28.4332 22.6739C28.4332 23.8406 28.2465 24.7472 27.8732 25.3939C27.4999 26.0406 26.8499 26.3639 25.9232 26.3639C24.9899 26.3639 24.3365 26.0406 23.9632 25.3939C23.5899 24.7472 23.4032 23.8406 23.4032 22.6739ZM27.5332 22.6739C27.5332 22.0939 27.4932 21.6039 27.4132 21.2039C27.3399 20.7972 27.1832 20.4706 26.9432 20.2239C26.7099 19.9772 26.3699 19.8539 25.9232 19.8539C25.4699 19.8539 25.1232 19.9772 24.8832 20.2239C24.6499 20.4706 24.4932 20.7972 24.4132 21.2039C24.3399 21.6039 24.3032 22.0939 24.3032 22.6739C24.3032 23.2739 24.3399 23.7772 24.4132 24.1839C24.4932 24.5906 24.6499 24.9172 24.8832 25.1639C25.1232 25.4106 25.4699 25.5339 25.9232 25.5339C26.3699 25.5339 26.7099 25.4106 26.9432 25.1639C27.1832 24.9172 27.3399 24.5906 27.4132 24.1839C27.4932 23.7772 27.5332 23.2739 27.5332 22.6739ZM30.1225 26.4239C29.9492 26.4239 29.8025 26.3639 29.6825 26.2439C29.5625 26.1239 29.5025 25.9772 29.5025 25.8039C29.5025 25.6306 29.5625 25.4839 29.6825 25.3639C29.8025 25.2439 29.9492 25.1839 30.1225 25.1839C30.2892 25.1839 30.4292 25.2439 30.5425 25.3639C30.6625 25.4839 30.7225 25.6306 30.7225 25.8039C30.7225 25.9772 30.6625 26.1239 30.5425 26.2439C30.4292 26.3639 30.2892 26.4239 30.1225 26.4239ZM31.7821 22.6739C31.7821 21.5272 31.9688 20.6339 32.3421 19.9939C32.7154 19.3472 33.3688 19.0239 34.3021 19.0239C35.2288 19.0239 35.8788 19.3472 36.2521 19.9939C36.6254 20.6339 36.8121 21.5272 36.8121 22.6739C36.8121 23.8406 36.6254 24.7472 36.2521 25.3939C35.8788 26.0406 35.2288 26.3639 34.3021 26.3639C33.3688 26.3639 32.7154 26.0406 32.3421 25.3939C31.9688 24.7472 31.7821 23.8406 31.7821 22.6739ZM35.9121 22.6739C35.9121 22.0939 35.8721 21.6039 35.7921 21.2039C35.7188 20.7972 35.5621 20.4706 35.3221 20.2239C35.0888 19.9772 34.7488 19.8539 34.3021 19.8539C33.8488 19.8539 33.5021 19.9772 33.2621 20.2239C33.0288 20.4706 32.8721 20.7972 32.7921 21.2039C32.7188 21.6039 32.6821 22.0939 32.6821 22.6739C32.6821 23.2739 32.7188 23.7772 32.7921 24.1839C32.8721 24.5906 33.0288 24.9172 33.2621 25.1639C33.5021 25.4106 33.8488 25.5339 34.3021 25.5339C34.7488 25.5339 35.0888 25.4106 35.3221 25.1639C35.5621 24.9172 35.7188 24.5906 35.7921 24.1839C35.8721 23.7772 35.9121 23.2739 35.9121 22.6739ZM38.0614 22.6739C38.0614 21.5272 38.2481 20.6339 38.6214 19.9939C38.9947 19.3472 39.6481 19.0239 40.5814 19.0239C41.5081 19.0239 42.1581 19.3472 42.5314 19.9939C42.9047 20.6339 43.0914 21.5272 43.0914 22.6739C43.0914 23.8406 42.9047 24.7472 42.5314 25.3939C42.1581 26.0406 41.5081 26.3639 40.5814 26.3639C39.6481 26.3639 38.9947 26.0406 38.6214 25.3939C38.2481 24.7472 38.0614 23.8406 38.0614 22.6739ZM42.1914 22.6739C42.1914 22.0939 42.1514 21.6039 42.0714 21.2039C41.9981 20.7972 41.8414 20.4706 41.6014 20.2239C41.3681 19.9772 41.0281 19.8539 40.5814 19.8539C40.1281 19.8539 39.7814 19.9772 39.5414 20.2239C39.3081 20.4706 39.1514 20.7972 39.0714 21.2039C38.9981 21.6039 38.9614 22.0939 38.9614 22.6739C38.9614 23.2739 38.9981 23.7772 39.0714 24.1839C39.1514 24.5906 39.3081 24.9172 39.5414 25.1639C39.7814 25.4106 40.1281 25.5339 40.5814 25.5339C41.0281 25.5339 41.3681 25.4106 41.6014 25.1639C41.8414 24.9172 41.9981 24.5906 42.0714 24.1839C42.1514 23.7772 42.1914 23.2739 42.1914 22.6739ZM44.3407 22.6739C44.3407 21.5272 44.5274 20.6339 44.9007 19.9939C45.274 19.3472 45.9274 19.0239 46.8607 19.0239C47.7874 19.0239 48.4374 19.3472 48.8107 19.9939C49.184 20.6339 49.3707 21.5272 49.3707 22.6739C49.3707 23.8406 49.184 24.7472 48.8107 25.3939C48.4374 26.0406 47.7874 26.3639 46.8607 26.3639C45.9274 26.3639 45.274 26.0406 44.9007 25.3939C44.5274 24.7472 44.3407 23.8406 44.3407 22.6739ZM48.4707 22.6739C48.4707 22.0939 48.4307 21.6039 48.3507 21.2039C48.2774 20.7972 48.1207 20.4706 47.8807 20.2239C47.6474 19.9772 47.3074 19.8539 46.8607 19.8539C46.4074 19.8539 46.0607 19.9772 45.8207 20.2239C45.5874 20.4706 45.4307 20.7972 45.3507 21.2039C45.2774 21.6039 45.2407 22.0939 45.2407 22.6739C45.2407 23.2739 45.2774 23.7772 45.3507 24.1839C45.4307 24.5906 45.5874 24.9172 45.8207 25.1639C46.0607 25.4106 46.4074 25.5339 46.8607 25.5339C47.3074 25.5339 47.6474 25.4106 47.8807 25.1639C48.1207 24.9172 48.2774 24.5906 48.3507 24.1839C48.4307 23.7772 48.4707 23.2739 48.4707 22.6739Z" fill="#86909C"/>
<path d="M58 22.3639H318" stroke="#E5E6EB" stroke-dasharray="4 4"/>
<path d="M5.42633 47.5907L3.76633 44.7407H2.66633V47.5907H1.75633V40.6207H4.00633C4.53299 40.6207 4.97633 40.7107 5.33633 40.8907C5.70299 41.0707 5.97633 41.314 6.15633 41.6207C6.33633 41.9274 6.42633 42.2774 6.42633 42.6707C6.42633 43.1507 6.28633 43.574 6.00633 43.9407C5.733 44.3074 5.31966 44.5507 4.76633 44.6707L6.51633 47.5907H5.42633ZM2.66633 44.0107H4.00633C4.49966 44.0107 4.86966 43.8907 5.11633 43.6507C5.36299 43.404 5.48633 43.0774 5.48633 42.6707C5.48633 42.2574 5.36299 41.9374 5.11633 41.7107C4.87633 41.484 4.50633 41.3707 4.00633 41.3707H2.66633V44.0107ZM8.75031 43.1207C8.93031 42.8074 9.19698 42.5474 9.55031 42.3407C9.91031 42.1274 10.327 42.0207 10.8003 42.0207C11.287 42.0207 11.727 42.1374 12.1203 42.3707C12.5203 42.604 12.8336 42.934 13.0603 43.3607C13.287 43.7807 13.4003 44.2707 13.4003 44.8307C13.4003 45.384 13.287 45.8774 13.0603 46.3107C12.8336 46.744 12.5203 47.0807 12.1203 47.3207C11.727 47.5607 11.287 47.6807 10.8003 47.6807C10.3336 47.6807 9.92031 47.5774 9.56031 47.3707C9.20698 47.1574 8.93698 46.894 8.75031 46.5807V50.1907H7.84031V42.1107H8.75031V43.1207ZM12.4703 44.8307C12.4703 44.4174 12.387 44.0574 12.2203 43.7507C12.0536 43.444 11.827 43.2107 11.5403 43.0507C11.2603 42.8907 10.9503 42.8107 10.6103 42.8107C10.277 42.8107 9.96698 42.894 9.68031 43.0607C9.40031 43.2207 9.17365 43.4574 9.00031 43.7707C8.83365 44.0774 8.75031 44.434 8.75031 44.8407C8.75031 45.254 8.83365 45.6174 9.00031 45.9307C9.17365 46.2374 9.40031 46.474 9.68031 46.6407C9.96698 46.8007 10.277 46.8807 10.6103 46.8807C10.9503 46.8807 11.2603 46.8007 11.5403 46.6407C11.827 46.474 12.0536 46.2374 12.2203 45.9307C12.387 45.6174 12.4703 45.2507 12.4703 44.8307ZM14.2081 41.1907V40.3607H16.0881V47.5907H15.1681V41.1907H14.2081ZM17.5413 46.8607C18.3879 46.1807 19.0513 45.624 19.5312 45.1907C20.0113 44.7507 20.4146 44.294 20.7413 43.8207C21.0746 43.3407 21.2413 42.8707 21.2413 42.4107C21.2413 41.9774 21.1346 41.6374 20.9213 41.3907C20.7146 41.1374 20.3779 41.0107 19.9113 41.0107C19.4579 41.0107 19.1046 41.154 18.8513 41.4407C18.6046 41.7207 18.4713 42.0974 18.4513 42.5707H17.5713C17.5979 41.824 17.8246 41.2474 18.2513 40.8407C18.6779 40.434 19.2279 40.2307 19.9013 40.2307C20.5879 40.2307 21.1313 40.4207 21.5313 40.8007C21.9379 41.1807 22.1413 41.704 22.1413 42.3707C22.1413 42.924 21.9746 43.464 21.6413 43.9907C21.3146 44.5107 20.9413 44.9707 20.5213 45.3707C20.1013 45.764 19.5646 46.224 18.9113 46.7507H22.3513V47.5107H17.5413V46.8607ZM28.0132 41.1507H24.5032V43.4307C24.6565 43.2174 24.8832 43.044 25.1832 42.9107C25.4832 42.7707 25.8065 42.7007 26.1532 42.7007C26.7065 42.7007 27.1565 42.8174 27.5032 43.0507C27.8499 43.2774 28.0965 43.574 28.2432 43.9407C28.3965 44.3007 28.4732 44.684 28.4732 45.0907C28.4732 45.5707 28.3832 46.0007 28.2032 46.3807C28.0232 46.7607 27.7465 47.0607 27.3732 47.2807C27.0065 47.5007 26.5499 47.6107 26.0032 47.6107C25.3032 47.6107 24.7365 47.4307 24.3032 47.0707C23.8699 46.7107 23.6065 46.2307 23.5132 45.6307H24.4032C24.4899 46.0107 24.6732 46.3074 24.9532 46.5207C25.2332 46.734 25.5865 46.8407 26.0132 46.8407C26.5399 46.8407 26.9365 46.684 27.2032 46.3707C27.4699 46.0507 27.6032 45.6307 27.6032 45.1107C27.6032 44.5907 27.4699 44.1907 27.2032 43.9107C26.9365 43.624 26.5432 43.4807 26.0232 43.4807C25.6699 43.4807 25.3599 43.5674 25.0932 43.7407C24.8332 43.9074 24.6432 44.1374 24.5232 44.4307H23.6632V40.3507H28.0132V41.1507ZM30.1225 47.6507C29.9492 47.6507 29.8025 47.5907 29.6825 47.4707C29.5625 47.3507 29.5025 47.204 29.5025 47.0307C29.5025 46.8574 29.5625 46.7107 29.6825 46.5907C29.8025 46.4707 29.9492 46.4107 30.1225 46.4107C30.2892 46.4107 30.4292 46.4707 30.5425 46.5907C30.6625 46.7107 30.7225 46.8574 30.7225 47.0307C30.7225 47.204 30.6625 47.3507 30.5425 47.4707C30.4292 47.5907 30.2892 47.6507 30.1225 47.6507ZM31.7821 43.9007C31.7821 42.754 31.9688 41.8607 32.3421 41.2207C32.7154 40.574 33.3688 40.2507 34.3021 40.2507C35.2288 40.2507 35.8788 40.574 36.2521 41.2207C36.6254 41.8607 36.8121 42.754 36.8121 43.9007C36.8121 45.0674 36.6254 45.974 36.2521 46.6207C35.8788 47.2674 35.2288 47.5907 34.3021 47.5907C33.3688 47.5907 32.7154 47.2674 32.3421 46.6207C31.9688 45.974 31.7821 45.0674 31.7821 43.9007ZM35.9121 43.9007C35.9121 43.3207 35.8721 42.8307 35.7921 42.4307C35.7188 42.024 35.5621 41.6974 35.3221 41.4507C35.0888 41.204 34.7488 41.0807 34.3021 41.0807C33.8488 41.0807 33.5021 41.204 33.2621 41.4507C33.0288 41.6974 32.8721 42.024 32.7921 42.4307C32.7188 42.8307 32.6821 43.3207 32.6821 43.9007C32.6821 44.5007 32.7188 45.004 32.7921 45.4107C32.8721 45.8174 33.0288 46.144 33.2621 46.3907C33.5021 46.6374 33.8488 46.7607 34.3021 46.7607C34.7488 46.7607 35.0888 46.6374 35.3221 46.3907C35.5621 46.144 35.7188 45.8174 35.7921 45.4107C35.8721 45.004 35.9121 44.5007 35.9121 43.9007ZM38.0614 43.9007C38.0614 42.754 38.2481 41.8607 38.6214 41.2207C38.9947 40.574 39.6481 40.2507 40.5814 40.2507C41.5081 40.2507 42.1581 40.574 42.5314 41.2207C42.9047 41.8607 43.0914 42.754 43.0914 43.9007C43.0914 45.0674 42.9047 45.974 42.5314 46.6207C42.1581 47.2674 41.5081 47.5907 40.5814 47.5907C39.6481 47.5907 38.9947 47.2674 38.6214 46.6207C38.2481 45.974 38.0614 45.0674 38.0614 43.9007ZM42.1914 43.9007C42.1914 43.3207 42.1514 42.8307 42.0714 42.4307C41.9981 42.024 41.8414 41.6974 41.6014 41.4507C41.3681 41.204 41.0281 41.0807 40.5814 41.0807C40.1281 41.0807 39.7814 41.204 39.5414 41.4507C39.3081 41.6974 39.1514 42.024 39.0714 42.4307C38.9981 42.8307 38.9614 43.3207 38.9614 43.9007C38.9614 44.5007 38.9981 45.004 39.0714 45.4107C39.1514 45.8174 39.3081 46.144 39.5414 46.3907C39.7814 46.6374 40.1281 46.7607 40.5814 46.7607C41.0281 46.7607 41.3681 46.6374 41.6014 46.3907C41.8414 46.144 41.9981 45.8174 42.0714 45.4107C42.1514 45.004 42.1914 44.5007 42.1914 43.9007ZM44.3407 43.9007C44.3407 42.754 44.5274 41.8607 44.9007 41.2207C45.274 40.574 45.9274 40.2507 46.8607 40.2507C47.7874 40.2507 48.4374 40.574 48.8107 41.2207C49.184 41.8607 49.3707 42.754 49.3707 43.9007C49.3707 45.0674 49.184 45.974 48.8107 46.6207C48.4374 47.2674 47.7874 47.5907 46.8607 47.5907C45.9274 47.5907 45.274 47.2674 44.9007 46.6207C44.5274 45.974 44.3407 45.0674 44.3407 43.9007ZM48.4707 43.9007C48.4707 43.3207 48.4307 42.8307 48.3507 42.4307C48.2774 42.024 48.1207 41.6974 47.8807 41.4507C47.6474 41.204 47.3074 41.0807 46.8607 41.0807C46.4074 41.0807 46.0607 41.204 45.8207 41.4507C45.5874 41.6974 45.4307 42.024 45.3507 42.4307C45.2774 42.8307 45.2407 43.3207 45.2407 43.9007C45.2407 44.5007 45.2774 45.004 45.3507 45.4107C45.4307 45.8174 45.5874 46.144 45.8207 46.3907C46.0607 46.6374 46.4074 46.7607 46.8607 46.7607C47.3074 46.7607 47.6474 46.6374 47.8807 46.3907C48.1207 46.144 48.2774 45.8174 48.3507 45.4107C48.4307 45.004 48.4707 44.5007 48.4707 43.9007Z" fill="#86909C"/>
<path d="M58 43.5907H318" stroke="#E5E6EB" stroke-dasharray="4 4"/>
<path d="M4.89898 68.8195L3.23898 65.9695H2.13898V68.8195H1.22898V61.8495H3.47898C4.00565 61.8495 4.44898 61.9395 4.80898 62.1195C5.17565 62.2995 5.44898 62.5428 5.62898 62.8495C5.80898 63.1561 5.89898 63.5061 5.89898 63.8995C5.89898 64.3795 5.75898 64.8028 5.47898 65.1695C5.20565 65.5361 4.79232 65.7795 4.23898 65.8995L5.98898 68.8195H4.89898ZM2.13898 65.2395H3.47898C3.97232 65.2395 4.34232 65.1195 4.58898 64.8795C4.83565 64.6328 4.95898 64.3061 4.95898 63.8995C4.95898 63.4861 4.83565 63.1661 4.58898 62.9395C4.34898 62.7128 3.97898 62.5995 3.47898 62.5995H2.13898V65.2395ZM8.22297 64.3495C8.40297 64.0361 8.66964 63.7761 9.02297 63.5695C9.38297 63.3561 9.79964 63.2495 10.273 63.2495C10.7596 63.2495 11.1996 63.3661 11.593 63.5995C11.993 63.8328 12.3063 64.1628 12.533 64.5895C12.7596 65.0095 12.873 65.4995 12.873 66.0595C12.873 66.6128 12.7596 67.1061 12.533 67.5395C12.3063 67.9728 11.993 68.3095 11.593 68.5495C11.1996 68.7895 10.7596 68.9095 10.273 68.9095C9.8063 68.9095 9.39297 68.8061 9.03297 68.5995C8.67964 68.3861 8.40964 68.1228 8.22297 67.8095V71.4195H7.31297V63.3395H8.22297V64.3495ZM11.943 66.0595C11.943 65.6461 11.8596 65.2861 11.693 64.9795C11.5263 64.6728 11.2996 64.4395 11.013 64.2795C10.733 64.1195 10.423 64.0395 10.083 64.0395C9.74964 64.0395 9.43964 64.1228 9.15297 64.2895C8.87297 64.4495 8.6463 64.6861 8.47297 64.9995C8.3063 65.3061 8.22297 65.6628 8.22297 66.0695C8.22297 66.4828 8.3063 66.8461 8.47297 67.1595C8.6463 67.4661 8.87297 67.7028 9.15297 67.8695C9.43964 68.0295 9.74964 68.1095 10.083 68.1095C10.423 68.1095 10.733 68.0295 11.013 67.8695C11.2996 67.7028 11.5263 67.4661 11.693 67.1595C11.8596 66.8461 11.943 66.4795 11.943 66.0595ZM13.6808 62.4195V61.5895H15.5608V68.8195H14.6408V62.4195H13.6808ZM17.1239 65.1295C17.1239 63.9828 17.3106 63.0895 17.6839 62.4495C18.0572 61.8028 18.7106 61.4795 19.6439 61.4795C20.5706 61.4795 21.2206 61.8028 21.5939 62.4495C21.9672 63.0895 22.1539 63.9828 22.1539 65.1295C22.1539 66.2961 21.9672 67.2028 21.5939 67.8495C21.2206 68.4961 20.5706 68.8195 19.6439 68.8195C18.7106 68.8195 18.0572 68.4961 17.6839 67.8495C17.3106 67.2028 17.1239 66.2961 17.1239 65.1295ZM21.2539 65.1295C21.2539 64.5495 21.2139 64.0595 21.1339 63.6595C21.0606 63.2528 20.9039 62.9261 20.6639 62.6795C20.4306 62.4328 20.0906 62.3095 19.6439 62.3095C19.1906 62.3095 18.8439 62.4328 18.6039 62.6795C18.3706 62.9261 18.2139 63.2528 18.1339 63.6595C18.0606 64.0595 18.0239 64.5495 18.0239 65.1295C18.0239 65.7295 18.0606 66.2328 18.1339 66.6395C18.2139 67.0461 18.3706 67.3728 18.6039 67.6195C18.8439 67.8661 19.1906 67.9895 19.6439 67.9895C20.0906 67.9895 20.4306 67.8661 20.6639 67.6195C20.9039 67.3728 21.0606 67.0461 21.1339 66.6395C21.2139 66.2328 21.2539 65.7295 21.2539 65.1295ZM23.4032 65.1295C23.4032 63.9828 23.5899 63.0895 23.9632 62.4495C24.3365 61.8028 24.9899 61.4795 25.9232 61.4795C26.8499 61.4795 27.4999 61.8028 27.8732 62.4495C28.2465 63.0895 28.4332 63.9828 28.4332 65.1295C28.4332 66.2961 28.2465 67.2028 27.8732 67.8495C27.4999 68.4961 26.8499 68.8195 25.9232 68.8195C24.9899 68.8195 24.3365 68.4961 23.9632 67.8495C23.5899 67.2028 23.4032 66.2961 23.4032 65.1295ZM27.5332 65.1295C27.5332 64.5495 27.4932 64.0595 27.4132 63.6595C27.3399 63.2528 27.1832 62.9261 26.9432 62.6795C26.7099 62.4328 26.3699 62.3095 25.9232 62.3095C25.4699 62.3095 25.1232 62.4328 24.8832 62.6795C24.6499 62.9261 24.4932 63.2528 24.4132 63.6595C24.3399 64.0595 24.3032 64.5495 24.3032 65.1295C24.3032 65.7295 24.3399 66.2328 24.4132 66.6395C24.4932 67.0461 24.6499 67.3728 24.8832 67.6195C25.1232 67.8661 25.4699 67.9895 25.9232 67.9895C26.3699 67.9895 26.7099 67.8661 26.9432 67.6195C27.1832 67.3728 27.3399 67.0461 27.4132 66.6395C27.4932 66.2328 27.5332 65.7295 27.5332 65.1295ZM30.1225 68.8795C29.9492 68.8795 29.8025 68.8195 29.6825 68.6995C29.5625 68.5795 29.5025 68.4328 29.5025 68.2595C29.5025 68.0861 29.5625 67.9395 29.6825 67.8195C29.8025 67.6995 29.9492 67.6395 30.1225 67.6395C30.2892 67.6395 30.4292 67.6995 30.5425 67.8195C30.6625 67.9395 30.7225 68.0861 30.7225 68.2595C30.7225 68.4328 30.6625 68.5795 30.5425 68.6995C30.4292 68.8195 30.2892 68.8795 30.1225 68.8795ZM31.7821 65.1295C31.7821 63.9828 31.9688 63.0895 32.3421 62.4495C32.7154 61.8028 33.3688 61.4795 34.3021 61.4795C35.2288 61.4795 35.8788 61.8028 36.2521 62.4495C36.6254 63.0895 36.8121 63.9828 36.8121 65.1295C36.8121 66.2961 36.6254 67.2028 36.2521 67.8495C35.8788 68.4961 35.2288 68.8195 34.3021 68.8195C33.3688 68.8195 32.7154 68.4961 32.3421 67.8495C31.9688 67.2028 31.7821 66.2961 31.7821 65.1295ZM35.9121 65.1295C35.9121 64.5495 35.8721 64.0595 35.7921 63.6595C35.7188 63.2528 35.5621 62.9261 35.3221 62.6795C35.0888 62.4328 34.7488 62.3095 34.3021 62.3095C33.8488 62.3095 33.5021 62.4328 33.2621 62.6795C33.0288 62.9261 32.8721 63.2528 32.7921 63.6595C32.7188 64.0595 32.6821 64.5495 32.6821 65.1295C32.6821 65.7295 32.7188 66.2328 32.7921 66.6395C32.8721 67.0461 33.0288 67.3728 33.2621 67.6195C33.5021 67.8661 33.8488 67.9895 34.3021 67.9895C34.7488 67.9895 35.0888 67.8661 35.3221 67.6195C35.5621 67.3728 35.7188 67.0461 35.7921 66.6395C35.8721 66.2328 35.9121 65.7295 35.9121 65.1295ZM38.0614 65.1295C38.0614 63.9828 38.2481 63.0895 38.6214 62.4495C38.9947 61.8028 39.6481 61.4795 40.5814 61.4795C41.5081 61.4795 42.1581 61.8028 42.5314 62.4495C42.9047 63.0895 43.0914 63.9828 43.0914 65.1295C43.0914 66.2961 42.9047 67.2028 42.5314 67.8495C42.1581 68.4961 41.5081 68.8195 40.5814 68.8195C39.6481 68.8195 38.9947 68.4961 38.6214 67.8495C38.2481 67.2028 38.0614 66.2961 38.0614 65.1295ZM42.1914 65.1295C42.1914 64.5495 42.1514 64.0595 42.0714 63.6595C41.9981 63.2528 41.8414 62.9261 41.6014 62.6795C41.3681 62.4328 41.0281 62.3095 40.5814 62.3095C40.1281 62.3095 39.7814 62.4328 39.5414 62.6795C39.3081 62.9261 39.1514 63.2528 39.0714 63.6595C38.9981 64.0595 38.9614 64.5495 38.9614 65.1295C38.9614 65.7295 38.9981 66.2328 39.0714 66.6395C39.1514 67.0461 39.3081 67.3728 39.5414 67.6195C39.7814 67.8661 40.1281 67.9895 40.5814 67.9895C41.0281 67.9895 41.3681 67.8661 41.6014 67.6195C41.8414 67.3728 41.9981 67.0461 42.0714 66.6395C42.1514 66.2328 42.1914 65.7295 42.1914 65.1295ZM44.3407 65.1295C44.3407 63.9828 44.5274 63.0895 44.9007 62.4495C45.274 61.8028 45.9274 61.4795 46.8607 61.4795C47.7874 61.4795 48.4374 61.8028 48.8107 62.4495C49.184 63.0895 49.3707 63.9828 49.3707 65.1295C49.3707 66.2961 49.184 67.2028 48.8107 67.8495C48.4374 68.4961 47.7874 68.8195 46.8607 68.8195C45.9274 68.8195 45.274 68.4961 44.9007 67.8495C44.5274 67.2028 44.3407 66.2961 44.3407 65.1295ZM48.4707 65.1295C48.4707 64.5495 48.4307 64.0595 48.3507 63.6595C48.2774 63.2528 48.1207 62.9261 47.8807 62.6795C47.6474 62.4328 47.3074 62.3095 46.8607 62.3095C46.4074 62.3095 46.0607 62.4328 45.8207 62.6795C45.5874 62.9261 45.4307 63.2528 45.3507 63.6595C45.2774 64.0595 45.2407 64.5495 45.2407 65.1295C45.2407 65.7295 45.2774 66.2328 45.3507 66.6395C45.4307 67.0461 45.5874 67.3728 45.8207 67.6195C46.0607 67.8661 46.4074 67.9895 46.8607 67.9895C47.3074 67.9895 47.6474 67.8661 47.8807 67.6195C48.1207 67.3728 48.2774 67.0461 48.3507 66.6395C48.4307 66.2328 48.4707 65.7295 48.4707 65.1295Z" fill="#86909C"/>
<path d="M58 64.8195H318" stroke="#E5E6EB" stroke-dasharray="4 4"/>
<path d="M4.92242 90.0463L3.26242 87.1963H2.16242V90.0463H1.25242V83.0763H3.50242C4.02909 83.0763 4.47242 83.1663 4.83242 83.3463C5.19909 83.5263 5.47242 83.7696 5.65242 84.0763C5.83242 84.3829 5.92242 84.7329 5.92242 85.1263C5.92242 85.6063 5.78242 86.0296 5.50242 86.3963C5.22909 86.7629 4.81576 87.0063 4.26242 87.1263L6.01242 90.0463H4.92242ZM2.16242 86.4663H3.50242C3.99576 86.4663 4.36576 86.3463 4.61242 86.1063C4.85909 85.8596 4.98242 85.5329 4.98242 85.1263C4.98242 84.7129 4.85909 84.3929 4.61242 84.1663C4.37242 83.9396 4.00242 83.8263 3.50242 83.8263H2.16242V86.4663ZM8.24641 85.5763C8.42641 85.2629 8.69307 85.0029 9.04641 84.7963C9.40641 84.5829 9.82307 84.4763 10.2964 84.4763C10.7831 84.4763 11.2231 84.5929 11.6164 84.8263C12.0164 85.0596 12.3297 85.3896 12.5564 85.8163C12.7831 86.2363 12.8964 86.7263 12.8964 87.2863C12.8964 87.8396 12.7831 88.3329 12.5564 88.7663C12.3297 89.1996 12.0164 89.5363 11.6164 89.7763C11.2231 90.0163 10.7831 90.1363 10.2964 90.1363C9.82974 90.1363 9.41641 90.0329 9.05641 89.8263C8.70307 89.6129 8.43307 89.3496 8.24641 89.0363V92.6463H7.33641V84.5663H8.24641V85.5763ZM11.9664 87.2863C11.9664 86.8729 11.8831 86.5129 11.7164 86.2063C11.5497 85.8996 11.3231 85.6663 11.0364 85.5063C10.7564 85.3463 10.4464 85.2663 10.1064 85.2663C9.77307 85.2663 9.46307 85.3496 9.17641 85.5163C8.89641 85.6763 8.66974 85.9129 8.49641 86.2263C8.32974 86.5329 8.24641 86.8896 8.24641 87.2963C8.24641 87.7096 8.32974 88.0729 8.49641 88.3863C8.66974 88.6929 8.89641 88.9296 9.17641 89.0963C9.46307 89.2563 9.77307 89.3363 10.1064 89.3363C10.4464 89.3363 10.7564 89.2563 11.0364 89.0963C11.3231 88.9296 11.5497 88.6929 11.7164 88.3863C11.8831 88.0729 11.9664 87.7063 11.9664 87.2863ZM18.3942 83.5263L15.6142 90.0463H14.6942L17.5142 83.6163H13.6542V82.8363H18.3942V83.5263ZM24.0132 83.6063H20.5032V85.8863C20.6565 85.6729 20.8832 85.4996 21.1832 85.3663C21.4832 85.2263 21.8065 85.1563 22.1532 85.1563C22.7065 85.1563 23.1565 85.2729 23.5032 85.5063C23.8499 85.7329 24.0965 86.0296 24.2432 86.3963C24.3965 86.7563 24.4732 87.1396 24.4732 87.5463C24.4732 88.0263 24.3832 88.4563 24.2032 88.8363C24.0232 89.2163 23.7465 89.5163 23.3732 89.7363C23.0065 89.9563 22.5499 90.0663 22.0032 90.0663C21.3032 90.0663 20.7365 89.8863 20.3032 89.5263C19.8699 89.1663 19.6065 88.6863 19.5132 88.0863H20.4032C20.4899 88.4663 20.6732 88.7629 20.9532 88.9763C21.2332 89.1896 21.5865 89.2963 22.0132 89.2963C22.5399 89.2963 22.9365 89.1396 23.2032 88.8263C23.4699 88.5063 23.6032 88.0863 23.6032 87.5663C23.6032 87.0463 23.4699 86.6463 23.2032 86.3663C22.9365 86.0796 22.5432 85.9363 22.0232 85.9363C21.6699 85.9363 21.3599 86.0229 21.0932 86.1963C20.8332 86.3629 20.6432 86.5929 20.5232 86.8863H19.6632V82.8063H24.0132V83.6063ZM26.1225 90.1063C25.9492 90.1063 25.8025 90.0463 25.6825 89.9263C25.5625 89.8063 25.5025 89.6596 25.5025 89.4863C25.5025 89.3129 25.5625 89.1663 25.6825 89.0463C25.8025 88.9263 25.9492 88.8663 26.1225 88.8663C26.2892 88.8663 26.4292 88.9263 26.5425 89.0463C26.6625 89.1663 26.7225 89.3129 26.7225 89.4863C26.7225 89.6596 26.6625 89.8063 26.5425 89.9263C26.4292 90.0463 26.2892 90.1063 26.1225 90.1063ZM27.7821 86.3563C27.7821 85.2096 27.9688 84.3163 28.3421 83.6763C28.7154 83.0296 29.3688 82.7063 30.3021 82.7063C31.2288 82.7063 31.8788 83.0296 32.2521 83.6763C32.6254 84.3163 32.8121 85.2096 32.8121 86.3563C32.8121 87.5229 32.6254 88.4296 32.2521 89.0763C31.8788 89.7229 31.2288 90.0463 30.3021 90.0463C29.3688 90.0463 28.7154 89.7229 28.3421 89.0763C27.9688 88.4296 27.7821 87.5229 27.7821 86.3563ZM31.9121 86.3563C31.9121 85.7763 31.8721 85.2863 31.7921 84.8863C31.7188 84.4796 31.5621 84.1529 31.3221 83.9063C31.0888 83.6596 30.7488 83.5363 30.3021 83.5363C29.8488 83.5363 29.5021 83.6596 29.2621 83.9063C29.0288 84.1529 28.8721 84.4796 28.7921 84.8863C28.7188 85.2863 28.6821 85.7763 28.6821 86.3563C28.6821 86.9563 28.7188 87.4596 28.7921 87.8663C28.8721 88.2729 29.0288 88.5996 29.2621 88.8463C29.5021 89.0929 29.8488 89.2163 30.3021 89.2163C30.7488 89.2163 31.0888 89.0929 31.3221 88.8463C31.5621 88.5996 31.7188 88.2729 31.7921 87.8663C31.8721 87.4596 31.9121 86.9563 31.9121 86.3563ZM34.0614 86.3563C34.0614 85.2096 34.2481 84.3163 34.6214 83.6763C34.9947 83.0296 35.6481 82.7063 36.5814 82.7063C37.5081 82.7063 38.1581 83.0296 38.5314 83.6763C38.9047 84.3163 39.0914 85.2096 39.0914 86.3563C39.0914 87.5229 38.9047 88.4296 38.5314 89.0763C38.1581 89.7229 37.5081 90.0463 36.5814 90.0463C35.6481 90.0463 34.9947 89.7229 34.6214 89.0763C34.2481 88.4296 34.0614 87.5229 34.0614 86.3563ZM38.1914 86.3563C38.1914 85.7763 38.1514 85.2863 38.0714 84.8863C37.9981 84.4796 37.8414 84.1529 37.6014 83.9063C37.3681 83.6596 37.0281 83.5363 36.5814 83.5363C36.1281 83.5363 35.7814 83.6596 35.5414 83.9063C35.3081 84.1529 35.1514 84.4796 35.0714 84.8863C34.9981 85.2863 34.9614 85.7763 34.9614 86.3563C34.9614 86.9563 34.9981 87.4596 35.0714 87.8663C35.1514 88.2729 35.3081 88.5996 35.5414 88.8463C35.7814 89.0929 36.1281 89.2163 36.5814 89.2163C37.0281 89.2163 37.3681 89.0929 37.6014 88.8463C37.8414 88.5996 37.9981 88.2729 38.0714 87.8663C38.1514 87.4596 38.1914 86.9563 38.1914 86.3563ZM40.3407 86.3563C40.3407 85.2096 40.5274 84.3163 40.9007 83.6763C41.274 83.0296 41.9274 82.7063 42.8607 82.7063C43.7874 82.7063 44.4374 83.0296 44.8107 83.6763C45.184 84.3163 45.3707 85.2096 45.3707 86.3563C45.3707 87.5229 45.184 88.4296 44.8107 89.0763C44.4374 89.7229 43.7874 90.0463 42.8607 90.0463C41.9274 90.0463 41.274 89.7229 40.9007 89.0763C40.5274 88.4296 40.3407 87.5229 40.3407 86.3563ZM44.4707 86.3563C44.4707 85.7763 44.4307 85.2863 44.3507 84.8863C44.2774 84.4796 44.1207 84.1529 43.8807 83.9063C43.6474 83.6596 43.3074 83.5363 42.8607 83.5363C42.4074 83.5363 42.0607 83.6596 41.8207 83.9063C41.5874 84.1529 41.4307 84.4796 41.3507 84.8863C41.2774 85.2863 41.2407 85.7763 41.2407 86.3563C41.2407 86.9563 41.2774 87.4596 41.3507 87.8663C41.4307 88.2729 41.5874 88.5996 41.8207 88.8463C42.0607 89.0929 42.4074 89.2163 42.8607 89.2163C43.3074 89.2163 43.6474 89.0929 43.8807 88.8463C44.1207 88.5996 44.2774 88.2729 44.3507 87.8663C44.4307 87.4596 44.4707 86.9563 44.4707 86.3563Z" fill="#86909C"/>
<path d="M54 86.0463H318" stroke="#E5E6EB" stroke-dasharray="4 4"/>
<path d="M5.10211 111.273L3.44211 108.423H2.34211V111.273H1.43211V104.303H3.68211C4.20878 104.303 4.65211 104.393 5.01211 104.573C5.37878 104.753 5.65211 104.996 5.83211 105.303C6.01211 105.61 6.10211 105.96 6.10211 106.353C6.10211 106.833 5.96211 107.256 5.68211 107.623C5.40878 107.99 4.99544 108.233 4.44211 108.353L6.19211 111.273H5.10211ZM2.34211 107.693H3.68211C4.17544 107.693 4.54544 107.573 4.79211 107.333C5.03878 107.086 5.16211 106.76 5.16211 106.353C5.16211 105.94 5.03878 105.62 4.79211 105.393C4.55211 105.166 4.18211 105.053 3.68211 105.053H2.34211V107.693ZM8.42609 106.803C8.60609 106.49 8.87276 106.23 9.22609 106.023C9.58609 105.81 10.0028 105.703 10.4761 105.703C10.9628 105.703 11.4028 105.82 11.7961 106.053C12.1961 106.286 12.5094 106.616 12.7361 107.043C12.9628 107.463 13.0761 107.953 13.0761 108.513C13.0761 109.066 12.9628 109.56 12.7361 109.993C12.5094 110.426 12.1961 110.763 11.7961 111.003C11.4028 111.243 10.9628 111.363 10.4761 111.363C10.0094 111.363 9.59609 111.26 9.23609 111.053C8.88276 110.84 8.61276 110.576 8.42609 110.263V113.873H7.51609V105.793H8.42609V106.803ZM12.1461 108.513C12.1461 108.1 12.0628 107.74 11.8961 107.433C11.7294 107.126 11.5028 106.893 11.2161 106.733C10.9361 106.573 10.6261 106.493 10.2861 106.493C9.95276 106.493 9.64276 106.576 9.35609 106.743C9.07609 106.903 8.84943 107.14 8.67609 107.453C8.50943 107.76 8.42609 108.116 8.42609 108.523C8.42609 108.936 8.50943 109.3 8.67609 109.613C8.84943 109.92 9.07609 110.156 9.35609 110.323C9.64276 110.483 9.95276 110.563 10.2861 110.563C10.6261 110.563 10.9361 110.483 11.2161 110.323C11.5028 110.156 11.7294 109.92 11.8961 109.613C12.0628 109.3 12.1461 108.933 12.1461 108.513ZM18.7339 104.833H15.2239V107.113C15.3772 106.9 15.6039 106.726 15.9039 106.593C16.2039 106.453 16.5272 106.383 16.8739 106.383C17.4272 106.383 17.8772 106.5 18.2239 106.733C18.5706 106.96 18.8172 107.256 18.9639 107.623C19.1172 107.983 19.1939 108.366 19.1939 108.773C19.1939 109.253 19.1039 109.683 18.9239 110.063C18.7439 110.443 18.4672 110.743 18.0939 110.963C17.7272 111.183 17.2706 111.293 16.7239 111.293C16.0239 111.293 15.4572 111.113 15.0239 110.753C14.5906 110.393 14.3272 109.913 14.2339 109.313H15.1239C15.2106 109.693 15.3939 109.99 15.6739 110.203C15.9539 110.416 16.3072 110.523 16.7339 110.523C17.2606 110.523 17.6572 110.366 17.9239 110.053C18.1906 109.733 18.3239 109.313 18.3239 108.793C18.3239 108.273 18.1906 107.873 17.9239 107.593C17.6572 107.306 17.2639 107.163 16.7439 107.163C16.3906 107.163 16.0806 107.25 15.8139 107.423C15.5539 107.59 15.3639 107.82 15.2439 108.113H14.3839V104.033H18.7339V104.833ZM20.4032 107.583C20.4032 106.436 20.5899 105.543 20.9632 104.903C21.3365 104.256 21.9899 103.933 22.9232 103.933C23.8499 103.933 24.4999 104.256 24.8732 104.903C25.2465 105.543 25.4332 106.436 25.4332 107.583C25.4332 108.75 25.2465 109.656 24.8732 110.303C24.4999 110.95 23.8499 111.273 22.9232 111.273C21.9899 111.273 21.3365 110.95 20.9632 110.303C20.5899 109.656 20.4032 108.75 20.4032 107.583ZM24.5332 107.583C24.5332 107.003 24.4932 106.513 24.4132 106.113C24.3399 105.706 24.1832 105.38 23.9432 105.133C23.7099 104.886 23.3699 104.763 22.9232 104.763C22.4699 104.763 22.1232 104.886 21.8832 105.133C21.6499 105.38 21.4932 105.706 21.4132 106.113C21.3399 106.513 21.3032 107.003 21.3032 107.583C21.3032 108.183 21.3399 108.686 21.4132 109.093C21.4932 109.5 21.6499 109.826 21.8832 110.073C22.1232 110.32 22.4699 110.443 22.9232 110.443C23.3699 110.443 23.7099 110.32 23.9432 110.073C24.1832 109.826 24.3399 109.5 24.4132 109.093C24.4932 108.686 24.5332 108.183 24.5332 107.583ZM27.1225 111.333C26.9492 111.333 26.8025 111.273 26.6825 111.153C26.5625 111.033 26.5025 110.886 26.5025 110.713C26.5025 110.54 26.5625 110.393 26.6825 110.273C26.8025 110.153 26.9492 110.093 27.1225 110.093C27.2892 110.093 27.4292 110.153 27.5425 110.273C27.6625 110.393 27.7225 110.54 27.7225 110.713C27.7225 110.886 27.6625 111.033 27.5425 111.153C27.4292 111.273 27.2892 111.333 27.1225 111.333ZM28.7821 107.583C28.7821 106.436 28.9688 105.543 29.3421 104.903C29.7154 104.256 30.3688 103.933 31.3021 103.933C32.2288 103.933 32.8788 104.256 33.2521 104.903C33.6254 105.543 33.8121 106.436 33.8121 107.583C33.8121 108.75 33.6254 109.656 33.2521 110.303C32.8788 110.95 32.2288 111.273 31.3021 111.273C30.3688 111.273 29.7154 110.95 29.3421 110.303C28.9688 109.656 28.7821 108.75 28.7821 107.583ZM32.9121 107.583C32.9121 107.003 32.8721 106.513 32.7921 106.113C32.7188 105.706 32.5621 105.38 32.3221 105.133C32.0888 104.886 31.7488 104.763 31.3021 104.763C30.8488 104.763 30.5021 104.886 30.2621 105.133C30.0288 105.38 29.8721 105.706 29.7921 106.113C29.7188 106.513 29.6821 107.003 29.6821 107.583C29.6821 108.183 29.7188 108.686 29.7921 109.093C29.8721 109.5 30.0288 109.826 30.2621 110.073C30.5021 110.32 30.8488 110.443 31.3021 110.443C31.7488 110.443 32.0888 110.32 32.3221 110.073C32.5621 109.826 32.7188 109.5 32.7921 109.093C32.8721 108.686 32.9121 108.183 32.9121 107.583ZM35.0614 107.583C35.0614 106.436 35.2481 105.543 35.6214 104.903C35.9947 104.256 36.6481 103.933 37.5814 103.933C38.5081 103.933 39.1581 104.256 39.5314 104.903C39.9047 105.543 40.0914 106.436 40.0914 107.583C40.0914 108.75 39.9047 109.656 39.5314 110.303C39.1581 110.95 38.5081 111.273 37.5814 111.273C36.6481 111.273 35.9947 110.95 35.6214 110.303C35.2481 109.656 35.0614 108.75 35.0614 107.583ZM39.1914 107.583C39.1914 107.003 39.1514 106.513 39.0714 106.113C38.9981 105.706 38.8414 105.38 38.6014 105.133C38.3681 104.886 38.0281 104.763 37.5814 104.763C37.1281 104.763 36.7814 104.886 36.5414 105.133C36.3081 105.38 36.1514 105.706 36.0714 106.113C35.9981 106.513 35.9614 107.003 35.9614 107.583C35.9614 108.183 35.9981 108.686 36.0714 109.093C36.1514 109.5 36.3081 109.826 36.5414 110.073C36.7814 110.32 37.1281 110.443 37.5814 110.443C38.0281 110.443 38.3681 110.32 38.6014 110.073C38.8414 109.826 38.9981 109.5 39.0714 109.093C39.1514 108.686 39.1914 108.183 39.1914 107.583ZM41.3407 107.583C41.3407 106.436 41.5274 105.543 41.9007 104.903C42.274 104.256 42.9274 103.933 43.8607 103.933C44.7874 103.933 45.4374 104.256 45.8107 104.903C46.184 105.543 46.3707 106.436 46.3707 107.583C46.3707 108.75 46.184 109.656 45.8107 110.303C45.4374 110.95 44.7874 111.273 43.8607 111.273C42.9274 111.273 42.274 110.95 41.9007 110.303C41.5274 109.656 41.3407 108.75 41.3407 107.583ZM45.4707 107.583C45.4707 107.003 45.4307 106.513 45.3507 106.113C45.2774 105.706 45.1207 105.38 44.8807 105.133C44.6474 104.886 44.3074 104.763 43.8607 104.763C43.4074 104.763 43.0607 104.886 42.8207 105.133C42.5874 105.38 42.4307 105.706 42.3507 106.113C42.2774 106.513 42.2407 107.003 42.2407 107.583C42.2407 108.183 42.2774 108.686 42.3507 109.093C42.4307 109.5 42.5874 109.826 42.8207 110.073C43.0607 110.32 43.4074 110.443 43.8607 110.443C44.3074 110.443 44.6474 110.32 44.8807 110.073C45.1207 109.826 45.2774 109.5 45.3507 109.093C45.4307 108.686 45.4707 108.183 45.4707 107.583Z" fill="#86909C"/>
<path d="M55 107.273H318" stroke="#E5E6EB" stroke-dasharray="4 4"/>
<path d="M37.5533 132.608V137.758C37.5533 138.331 37.3766 138.791 37.0233 139.138C36.6699 139.478 36.2033 139.648 35.6233 139.648C35.0366 139.648 34.5666 139.474 34.2133 139.128C33.8599 138.774 33.6833 138.294 33.6833 137.688H34.5933C34.5999 138.028 34.6866 138.304 34.8533 138.518C35.0266 138.731 35.2833 138.838 35.6233 138.838C35.9633 138.838 36.2166 138.738 36.3833 138.538C36.5499 138.331 36.6333 138.071 36.6333 137.758V132.608H37.5533ZM39.006 136.818C39.006 136.258 39.1193 135.768 39.346 135.348C39.5727 134.921 39.8827 134.591 40.276 134.358C40.676 134.124 41.1193 134.008 41.606 134.008C42.086 134.008 42.5027 134.111 42.856 134.318C43.2093 134.524 43.4727 134.784 43.646 135.098V134.098H44.566V139.578H43.646V138.558C43.466 138.878 43.196 139.144 42.836 139.358C42.4827 139.564 42.0693 139.668 41.596 139.668C41.1093 139.668 40.6693 139.548 40.276 139.308C39.8827 139.068 39.5727 138.731 39.346 138.298C39.1193 137.864 39.006 137.371 39.006 136.818ZM43.646 136.828C43.646 136.414 43.5627 136.054 43.396 135.748C43.2293 135.441 43.0027 135.208 42.716 135.048C42.436 134.881 42.126 134.798 41.786 134.798C41.446 134.798 41.136 134.878 40.856 135.038C40.576 135.198 40.3527 135.431 40.186 135.738C40.0193 136.044 39.936 136.404 39.936 136.818C39.936 137.238 40.0193 137.604 40.186 137.918C40.3527 138.224 40.576 138.461 40.856 138.628C41.136 138.788 41.446 138.868 41.786 138.868C42.126 138.868 42.436 138.788 42.716 138.628C43.0027 138.461 43.2293 138.224 43.396 137.918C43.5627 137.604 43.646 137.241 43.646 136.828ZM48.7738 133.998C49.4405 133.998 49.9805 134.201 50.3938 134.608C50.8071 135.008 51.0138 135.588 51.0138 136.348V139.578H50.1138V136.478C50.1138 135.931 49.9771 135.514 49.7038 135.228C49.4305 134.934 49.0571 134.788 48.5838 134.788C48.1038 134.788 47.7205 134.938 47.4338 135.238C47.1538 135.538 47.0138 135.974 47.0138 136.548V139.578H46.1038V134.098H47.0138V134.878C47.1938 134.598 47.4371 134.381 47.7438 134.228C48.0571 134.074 48.4005 133.998 48.7738 133.998Z" fill="#86909C"/>
<path d="M62.1691 132.608V133.348H59.1391V135.698H61.5991V136.438H59.1391V139.578H58.2291V132.608H62.1691ZM68.2682 136.628C68.2682 136.801 68.2582 136.984 68.2382 137.178H63.8582C63.8915 137.718 64.0748 138.141 64.4082 138.448C64.7482 138.748 65.1582 138.898 65.6382 138.898C66.0315 138.898 66.3582 138.808 66.6182 138.628C66.8848 138.441 67.0715 138.194 67.1782 137.888H68.1582C68.0115 138.414 67.7182 138.844 67.2782 139.178C66.8382 139.504 66.2915 139.668 65.6382 139.668C65.1182 139.668 64.6515 139.551 64.2382 139.318C63.8315 139.084 63.5115 138.754 63.2782 138.328C63.0448 137.894 62.9282 137.394 62.9282 136.828C62.9282 136.261 63.0415 135.764 63.2682 135.338C63.4948 134.911 63.8115 134.584 64.2182 134.358C64.6315 134.124 65.1048 134.008 65.6382 134.008C66.1582 134.008 66.6182 134.121 67.0182 134.348C67.4182 134.574 67.7248 134.888 67.9382 135.288C68.1582 135.681 68.2682 136.128 68.2682 136.628ZM67.3282 136.438C67.3282 136.091 67.2515 135.794 67.0982 135.548C66.9448 135.294 66.7348 135.104 66.4682 134.978C66.2082 134.844 65.9182 134.778 65.5982 134.778C65.1382 134.778 64.7448 134.924 64.4182 135.218C64.0982 135.511 63.9148 135.918 63.8682 136.438H67.3282ZM70.3793 135.118C70.566 134.791 70.8393 134.524 71.1993 134.318C71.5593 134.111 71.9693 134.008 72.4293 134.008C72.9227 134.008 73.366 134.124 73.7593 134.358C74.1527 134.591 74.4627 134.921 74.6893 135.348C74.916 135.768 75.0293 136.258 75.0293 136.818C75.0293 137.371 74.916 137.864 74.6893 138.298C74.4627 138.731 74.1493 139.068 73.7493 139.308C73.356 139.548 72.916 139.668 72.4293 139.668C71.956 139.668 71.5393 139.564 71.1793 139.358C70.826 139.151 70.5593 138.888 70.3793 138.568V139.578H69.4693V132.178H70.3793V135.118ZM74.0993 136.818C74.0993 136.404 74.016 136.044 73.8493 135.738C73.6827 135.431 73.456 135.198 73.1693 135.038C72.8893 134.878 72.5793 134.798 72.2393 134.798C71.906 134.798 71.596 134.881 71.3093 135.048C71.0293 135.208 70.8027 135.444 70.6293 135.758C70.4627 136.064 70.3793 136.421 70.3793 136.828C70.3793 137.241 70.4627 137.604 70.6293 137.918C70.8027 138.224 71.0293 138.461 71.3093 138.628C71.596 138.788 71.906 138.868 72.2393 138.868C72.5793 138.868 72.8893 138.788 73.1693 138.628C73.456 138.461 73.6827 138.224 73.8493 137.918C74.016 137.604 74.0993 137.238 74.0993 136.818Z" fill="#86909C"/>
<path d="M88.7037 132.658V139.578H87.7937V134.418L85.4937 139.578H84.8537L82.5437 134.408V139.578H81.6337V132.658H82.6137L85.1737 138.378L87.7337 132.658H88.7037ZM89.907 136.818C89.907 136.258 90.0203 135.768 90.247 135.348C90.4737 134.921 90.7837 134.591 91.177 134.358C91.577 134.124 92.0203 134.008 92.507 134.008C92.987 134.008 93.4037 134.111 93.757 134.318C94.1103 134.524 94.3737 134.784 94.547 135.098V134.098H95.467V139.578H94.547V138.558C94.367 138.878 94.097 139.144 93.737 139.358C93.3837 139.564 92.9703 139.668 92.497 139.668C92.0103 139.668 91.5703 139.548 91.177 139.308C90.7837 139.068 90.4737 138.731 90.247 138.298C90.0203 137.864 89.907 137.371 89.907 136.818ZM94.547 136.828C94.547 136.414 94.4637 136.054 94.297 135.748C94.1303 135.441 93.9037 135.208 93.617 135.048C93.337 134.881 93.027 134.798 92.687 134.798C92.347 134.798 92.037 134.878 91.757 135.038C91.477 135.198 91.2537 135.431 91.087 135.738C90.9203 136.044 90.837 136.404 90.837 136.818C90.837 137.238 90.9203 137.604 91.087 137.918C91.2537 138.224 91.477 138.461 91.757 138.628C92.037 138.788 92.347 138.868 92.687 138.868C93.027 138.868 93.337 138.788 93.617 138.628C93.9037 138.461 94.1303 138.224 94.297 137.918C94.4637 137.604 94.547 137.241 94.547 136.828ZM97.9148 134.988C98.0748 134.674 98.3015 134.431 98.5948 134.258C98.8948 134.084 99.2581 133.998 99.6848 133.998V134.938H99.4448C98.4248 134.938 97.9148 135.491 97.9148 136.598V139.578H97.0048V134.098H97.9148V134.988Z" fill="#86909C"/>
<path d="M110.648 138.028H107.608L107.048 139.578H106.088L108.608 132.648H109.658L112.168 139.578H111.208L110.648 138.028ZM110.388 137.288L109.128 133.768L107.868 137.288H110.388ZM114.176 135.108C114.356 134.794 114.623 134.534 114.976 134.328C115.336 134.114 115.753 134.008 116.226 134.008C116.713 134.008 117.153 134.124 117.546 134.358C117.946 134.591 118.259 134.921 118.486 135.348C118.713 135.768 118.826 136.258 118.826 136.818C118.826 137.371 118.713 137.864 118.486 138.298C118.259 138.731 117.946 139.068 117.546 139.308C117.153 139.548 116.713 139.668 116.226 139.668C115.759 139.668 115.346 139.564 114.986 139.358C114.633 139.144 114.363 138.881 114.176 138.568V142.178H113.266V134.098H114.176V135.108ZM117.896 136.818C117.896 136.404 117.813 136.044 117.646 135.738C117.479 135.431 117.253 135.198 116.966 135.038C116.686 134.878 116.376 134.798 116.036 134.798C115.703 134.798 115.393 134.881 115.106 135.048C114.826 135.208 114.599 135.444 114.426 135.758C114.259 136.064 114.176 136.421 114.176 136.828C114.176 137.241 114.259 137.604 114.426 137.918C114.599 138.224 114.826 138.461 115.106 138.628C115.393 138.788 115.703 138.868 116.036 138.868C116.376 138.868 116.686 138.788 116.966 138.628C117.253 138.461 117.479 138.224 117.646 137.918C117.813 137.604 117.896 137.238 117.896 136.818ZM120.934 134.988C121.094 134.674 121.32 134.431 121.614 134.258C121.914 134.084 122.277 133.998 122.704 133.998V134.938H122.464C121.444 134.938 120.934 135.491 120.934 136.598V139.578H120.024V134.098H120.934V134.988Z" fill="#86909C"/>
<path d="M137.53 132.658V139.578H136.62V134.418L134.32 139.578H133.68L131.37 134.408V139.578H130.46V132.658H131.44L134 138.378L136.56 132.658H137.53ZM144.073 136.628C144.073 136.801 144.063 136.984 144.043 137.178H139.663C139.696 137.718 139.879 138.141 140.213 138.448C140.553 138.748 140.963 138.898 141.443 138.898C141.836 138.898 142.163 138.808 142.423 138.628C142.689 138.441 142.876 138.194 142.983 137.888H143.963C143.816 138.414 143.523 138.844 143.083 139.178C142.643 139.504 142.096 139.668 141.443 139.668C140.923 139.668 140.456 139.551 140.043 139.318C139.636 139.084 139.316 138.754 139.083 138.328C138.849 137.894 138.733 137.394 138.733 136.828C138.733 136.261 138.846 135.764 139.073 135.338C139.299 134.911 139.616 134.584 140.023 134.358C140.436 134.124 140.909 134.008 141.443 134.008C141.963 134.008 142.423 134.121 142.823 134.348C143.223 134.574 143.529 134.888 143.743 135.288C143.963 135.681 144.073 136.128 144.073 136.628ZM143.133 136.438C143.133 136.091 143.056 135.794 142.903 135.548C142.749 135.294 142.539 135.104 142.273 134.978C142.013 134.844 141.723 134.778 141.403 134.778C140.943 134.778 140.549 134.924 140.223 135.218C139.903 135.511 139.719 135.918 139.673 136.438H143.133ZM145.744 133.208C145.571 133.208 145.424 133.148 145.304 133.028C145.184 132.908 145.124 132.761 145.124 132.588C145.124 132.414 145.184 132.268 145.304 132.148C145.424 132.028 145.571 131.968 145.744 131.968C145.911 131.968 146.051 132.028 146.164 132.148C146.284 132.268 146.344 132.414 146.344 132.588C146.344 132.761 146.284 132.908 146.164 133.028C146.051 133.148 145.911 133.208 145.744 133.208ZM146.184 134.098V139.578H145.274V134.098H146.184Z" fill="#86909C"/>
<path d="M157.516 132.608V137.758C157.516 138.331 157.339 138.791 156.986 139.138C156.632 139.478 156.166 139.648 155.586 139.648C154.999 139.648 154.529 139.474 154.176 139.128C153.822 138.774 153.646 138.294 153.646 137.688H154.556C154.562 138.028 154.649 138.304 154.816 138.518C154.989 138.731 155.246 138.838 155.586 138.838C155.926 138.838 156.179 138.738 156.346 138.538C156.512 138.331 156.596 138.071 156.596 137.758V132.608H157.516ZM164.168 134.098V139.578H163.258V138.768C163.085 139.048 162.842 139.268 162.528 139.428C162.222 139.581 161.882 139.658 161.508 139.658C161.082 139.658 160.698 139.571 160.358 139.398C160.018 139.218 159.748 138.951 159.548 138.598C159.355 138.244 159.258 137.814 159.258 137.308V134.098H160.158V137.188C160.158 137.728 160.295 138.144 160.568 138.438C160.842 138.724 161.215 138.868 161.688 138.868C162.175 138.868 162.558 138.718 162.838 138.418C163.118 138.118 163.258 137.681 163.258 137.108V134.098H164.168ZM168.375 133.998C169.042 133.998 169.582 134.201 169.995 134.608C170.408 135.008 170.615 135.588 170.615 136.348V139.578H169.715V136.478C169.715 135.931 169.578 135.514 169.305 135.228C169.032 134.934 168.658 134.788 168.185 134.788C167.705 134.788 167.322 134.938 167.035 135.238C166.755 135.538 166.615 135.974 166.615 136.548V139.578H165.705V134.098H166.615V134.878C166.795 134.598 167.038 134.381 167.345 134.228C167.658 134.074 168.002 133.998 168.375 133.998Z" fill="#86909C"/>
<path d="M183.44 132.608V137.758C183.44 138.331 183.263 138.791 182.91 139.138C182.557 139.478 182.09 139.648 181.51 139.648C180.923 139.648 180.453 139.474 180.1 139.128C179.747 138.774 179.57 138.294 179.57 137.688H180.48C180.487 138.028 180.573 138.304 180.74 138.518C180.913 138.731 181.17 138.838 181.51 138.838C181.85 138.838 182.103 138.738 182.27 138.538C182.437 138.331 182.52 138.071 182.52 137.758V132.608H183.44ZM190.093 134.098V139.578H189.183V138.768C189.009 139.048 188.766 139.268 188.453 139.428C188.146 139.581 187.806 139.658 187.433 139.658C187.006 139.658 186.623 139.571 186.283 139.398C185.943 139.218 185.673 138.951 185.473 138.598C185.279 138.244 185.183 137.814 185.183 137.308V134.098H186.083V137.188C186.083 137.728 186.219 138.144 186.493 138.438C186.766 138.724 187.139 138.868 187.613 138.868C188.099 138.868 188.483 138.718 188.763 138.418C189.043 138.118 189.183 137.681 189.183 137.108V134.098H190.093ZM192.539 132.178V139.578H191.629V132.178H192.539Z" fill="#86909C"/>
<path d="M205.14 138.028H202.1L201.54 139.578H200.58L203.1 132.648H204.15L206.66 139.578H205.7L205.14 138.028ZM204.88 137.288L203.62 133.768L202.36 137.288H204.88ZM212.618 134.098V139.578H211.708V138.768C211.535 139.048 211.292 139.268 210.978 139.428C210.672 139.581 210.332 139.658 209.958 139.658C209.532 139.658 209.148 139.571 208.808 139.398C208.468 139.218 208.198 138.951 207.998 138.598C207.805 138.244 207.708 137.814 207.708 137.308V134.098H208.608V137.188C208.608 137.728 208.745 138.144 209.018 138.438C209.292 138.724 209.665 138.868 210.138 138.868C210.625 138.868 211.008 138.718 211.288 138.418C211.568 138.118 211.708 137.681 211.708 137.108V134.098H212.618ZM216.415 134.008C216.888 134.008 217.301 134.111 217.655 134.318C218.015 134.524 218.281 134.784 218.455 135.098V134.098H219.375V139.698C219.375 140.198 219.268 140.641 219.055 141.028C218.841 141.421 218.535 141.728 218.135 141.948C217.741 142.168 217.281 142.278 216.755 142.278C216.035 142.278 215.435 142.108 214.955 141.768C214.475 141.428 214.191 140.964 214.105 140.378H215.005C215.105 140.711 215.311 140.978 215.625 141.178C215.938 141.384 216.315 141.488 216.755 141.488C217.255 141.488 217.661 141.331 217.975 141.018C218.295 140.704 218.455 140.264 218.455 139.698V138.548C218.275 138.868 218.008 139.134 217.655 139.348C217.301 139.561 216.888 139.668 216.415 139.668C215.928 139.668 215.485 139.548 215.085 139.308C214.691 139.068 214.381 138.731 214.155 138.298C213.928 137.864 213.815 137.371 213.815 136.818C213.815 136.258 213.928 135.768 214.155 135.348C214.381 134.921 214.691 134.591 215.085 134.358C215.485 134.124 215.928 134.008 216.415 134.008ZM218.455 136.828C218.455 136.414 218.371 136.054 218.205 135.748C218.038 135.441 217.811 135.208 217.525 135.048C217.245 134.881 216.935 134.798 216.595 134.798C216.255 134.798 215.945 134.878 215.665 135.038C215.385 135.198 215.161 135.431 214.995 135.738C214.828 136.044 214.745 136.404 214.745 136.818C214.745 137.238 214.828 137.604 214.995 137.918C215.161 138.224 215.385 138.461 215.665 138.628C215.945 138.788 216.255 138.868 216.595 138.868C216.935 138.868 217.245 138.788 217.525 138.628C217.811 138.461 218.038 138.224 218.205 137.918C218.371 137.604 218.455 137.241 218.455 136.828Z" fill="#86909C"/>
<path d="M227.719 139.648C227.259 139.648 226.845 139.568 226.479 139.408C226.119 139.241 225.835 139.014 225.629 138.728C225.422 138.434 225.315 138.098 225.309 137.718H226.279C226.312 138.044 226.445 138.321 226.679 138.548C226.919 138.768 227.265 138.878 227.719 138.878C228.152 138.878 228.492 138.771 228.739 138.558C228.992 138.338 229.119 138.058 229.119 137.718C229.119 137.451 229.045 137.234 228.899 137.068C228.752 136.901 228.569 136.774 228.349 136.688C228.129 136.601 227.832 136.508 227.459 136.408C226.999 136.288 226.629 136.168 226.349 136.048C226.075 135.928 225.839 135.741 225.639 135.488C225.445 135.228 225.349 134.881 225.349 134.448C225.349 134.068 225.445 133.731 225.639 133.438C225.832 133.144 226.102 132.918 226.449 132.758C226.802 132.598 227.205 132.518 227.659 132.518C228.312 132.518 228.845 132.681 229.259 133.008C229.679 133.334 229.915 133.768 229.969 134.308H228.969C228.935 134.041 228.795 133.808 228.549 133.608C228.302 133.401 227.975 133.298 227.569 133.298C227.189 133.298 226.879 133.398 226.639 133.598C226.399 133.791 226.279 134.064 226.279 134.418C226.279 134.671 226.349 134.878 226.489 135.038C226.635 135.198 226.812 135.321 227.019 135.408C227.232 135.488 227.529 135.581 227.909 135.688C228.369 135.814 228.739 135.941 229.019 136.068C229.299 136.188 229.539 136.378 229.739 136.638C229.939 136.891 230.039 137.238 230.039 137.678C230.039 138.018 229.949 138.338 229.769 138.638C229.589 138.938 229.322 139.181 228.969 139.368C228.615 139.554 228.199 139.648 227.719 139.648ZM236.378 136.628C236.378 136.801 236.368 136.984 236.348 137.178H231.968C232.001 137.718 232.184 138.141 232.518 138.448C232.858 138.748 233.268 138.898 233.748 138.898C234.141 138.898 234.468 138.808 234.728 138.628C234.994 138.441 235.181 138.194 235.288 137.888H236.268C236.121 138.414 235.828 138.844 235.388 139.178C234.948 139.504 234.401 139.668 233.748 139.668C233.228 139.668 232.761 139.551 232.348 139.318C231.941 139.084 231.621 138.754 231.388 138.328C231.154 137.894 231.038 137.394 231.038 136.828C231.038 136.261 231.151 135.764 231.378 135.338C231.604 134.911 231.921 134.584 232.328 134.358C232.741 134.124 233.214 134.008 233.748 134.008C234.268 134.008 234.728 134.121 235.128 134.348C235.528 134.574 235.834 134.888 236.048 135.288C236.268 135.681 236.378 136.128 236.378 136.628ZM235.438 136.438C235.438 136.091 235.361 135.794 235.208 135.548C235.054 135.294 234.844 135.104 234.578 134.978C234.318 134.844 234.028 134.778 233.708 134.778C233.248 134.778 232.854 134.924 232.528 135.218C232.208 135.511 232.024 135.918 231.978 136.438H235.438ZM238.489 135.108C238.669 134.794 238.936 134.534 239.289 134.328C239.649 134.114 240.066 134.008 240.539 134.008C241.026 134.008 241.466 134.124 241.859 134.358C242.259 134.591 242.572 134.921 242.799 135.348C243.026 135.768 243.139 136.258 243.139 136.818C243.139 137.371 243.026 137.864 242.799 138.298C242.572 138.731 242.259 139.068 241.859 139.308C241.466 139.548 241.026 139.668 240.539 139.668C240.072 139.668 239.659 139.564 239.299 139.358C238.946 139.144 238.676 138.881 238.489 138.568V142.178H237.579V134.098H238.489V135.108ZM242.209 136.818C242.209 136.404 242.126 136.044 241.959 135.738C241.792 135.431 241.566 135.198 241.279 135.038C240.999 134.878 240.689 134.798 240.349 134.798C240.016 134.798 239.706 134.881 239.419 135.048C239.139 135.208 238.912 135.444 238.739 135.758C238.572 136.064 238.489 136.421 238.489 136.828C238.489 137.241 238.572 137.604 238.739 137.918C238.912 138.224 239.139 138.461 239.419 138.628C239.706 138.788 240.016 138.868 240.349 138.868C240.689 138.868 240.999 138.788 241.279 138.628C241.566 138.461 241.792 138.224 241.959 137.918C242.126 137.604 242.209 137.238 242.209 136.818Z" fill="#86909C"/>
<path d="M253.714 139.648C253.067 139.648 252.477 139.498 251.944 139.198C251.411 138.891 250.987 138.468 250.674 137.928C250.367 137.381 250.214 136.768 250.214 136.088C250.214 135.408 250.367 134.798 250.674 134.258C250.987 133.711 251.411 133.288 251.944 132.988C252.477 132.681 253.067 132.528 253.714 132.528C254.367 132.528 254.961 132.681 255.494 132.988C256.027 133.288 256.447 133.708 256.754 134.248C257.061 134.788 257.214 135.401 257.214 136.088C257.214 136.774 257.061 137.388 256.754 137.928C256.447 138.468 256.027 138.891 255.494 139.198C254.961 139.498 254.367 139.648 253.714 139.648ZM253.714 138.858C254.201 138.858 254.637 138.744 255.024 138.518C255.417 138.291 255.724 137.968 255.944 137.548C256.171 137.128 256.284 136.641 256.284 136.088C256.284 135.528 256.171 135.041 255.944 134.628C255.724 134.208 255.421 133.884 255.034 133.658C254.647 133.431 254.207 133.318 253.714 133.318C253.221 133.318 252.781 133.431 252.394 133.658C252.007 133.884 251.701 134.208 251.474 134.628C251.254 135.041 251.144 135.528 251.144 136.088C251.144 136.641 251.254 137.128 251.474 137.548C251.701 137.968 252.007 138.291 252.394 138.518C252.787 138.744 253.227 138.858 253.714 138.858ZM261.475 139.578L259.325 137.158V139.578H258.415V132.178H259.325V136.528L261.435 134.098H262.705L260.125 136.828L262.715 139.578H261.475ZM264.672 134.848V138.078C264.672 138.344 264.728 138.534 264.842 138.648C264.955 138.754 265.152 138.808 265.432 138.808H266.102V139.578H265.282C264.775 139.578 264.395 139.461 264.142 139.228C263.888 138.994 263.762 138.611 263.762 138.078V134.848H263.052V134.098H263.762V132.718H264.672V134.098H266.102V134.848H264.672Z" fill="#86909C"/>
<path d="M278.799 139.578H277.889L274.229 134.028V139.578H273.319V132.598H274.229L277.889 138.138V132.598H278.799V139.578ZM282.74 139.668C282.227 139.668 281.76 139.551 281.34 139.318C280.927 139.084 280.6 138.754 280.36 138.328C280.127 137.894 280.01 137.394 280.01 136.828C280.01 136.268 280.13 135.774 280.37 135.348C280.617 134.914 280.95 134.584 281.37 134.358C281.79 134.124 282.26 134.008 282.78 134.008C283.3 134.008 283.77 134.124 284.19 134.358C284.61 134.584 284.94 134.911 285.18 135.338C285.427 135.764 285.55 136.261 285.55 136.828C285.55 137.394 285.423 137.894 285.17 138.328C284.923 138.754 284.587 139.084 284.16 139.318C283.733 139.551 283.26 139.668 282.74 139.668ZM282.74 138.868C283.067 138.868 283.373 138.791 283.66 138.638C283.947 138.484 284.177 138.254 284.35 137.948C284.53 137.641 284.62 137.268 284.62 136.828C284.62 136.388 284.533 136.014 284.36 135.708C284.187 135.401 283.96 135.174 283.68 135.028C283.4 134.874 283.097 134.798 282.77 134.798C282.437 134.798 282.13 134.874 281.85 135.028C281.577 135.174 281.357 135.401 281.19 135.708C281.023 136.014 280.94 136.388 280.94 136.828C280.94 137.274 281.02 137.651 281.18 137.958C281.347 138.264 281.567 138.494 281.84 138.648C282.113 138.794 282.413 138.868 282.74 138.868ZM288.787 138.738L290.487 134.098H291.457L289.307 139.578H288.247L286.097 134.098H287.077L288.787 138.738Z" fill="#86909C"/>
<path d="M299.714 132.608C300.474 132.608 301.13 132.751 301.684 133.038C302.244 133.318 302.67 133.721 302.964 134.248C303.264 134.774 303.414 135.394 303.414 136.108C303.414 136.821 303.264 137.441 302.964 137.968C302.67 138.488 302.244 138.888 301.684 139.168C301.13 139.441 300.474 139.578 299.714 139.578H297.544V132.608H299.714ZM299.714 138.828C300.614 138.828 301.3 138.591 301.774 138.118C302.247 137.638 302.484 136.968 302.484 136.108C302.484 135.241 302.244 134.564 301.764 134.078C301.29 133.591 300.607 133.348 299.714 133.348H298.454V138.828H299.714ZM309.614 136.628C309.614 136.801 309.604 136.984 309.584 137.178H305.204C305.237 137.718 305.421 138.141 305.754 138.448C306.094 138.748 306.504 138.898 306.984 138.898C307.377 138.898 307.704 138.808 307.964 138.628C308.231 138.441 308.417 138.194 308.524 137.888H309.504C309.357 138.414 309.064 138.844 308.624 139.178C308.184 139.504 307.637 139.668 306.984 139.668C306.464 139.668 305.997 139.551 305.584 139.318C305.177 139.084 304.857 138.754 304.624 138.328C304.391 137.894 304.274 137.394 304.274 136.828C304.274 136.261 304.387 135.764 304.614 135.338C304.841 134.911 305.157 134.584 305.564 134.358C305.977 134.124 306.451 134.008 306.984 134.008C307.504 134.008 307.964 134.121 308.364 134.348C308.764 134.574 309.071 134.888 309.284 135.288C309.504 135.681 309.614 136.128 309.614 136.628ZM308.674 136.438C308.674 136.091 308.597 135.794 308.444 135.548C308.291 135.294 308.081 135.104 307.814 134.978C307.554 134.844 307.264 134.778 306.944 134.778C306.484 134.778 306.091 134.924 305.764 135.218C305.444 135.511 305.261 135.918 305.214 136.438H308.674ZM312.755 139.668C312.335 139.668 311.959 139.598 311.625 139.458C311.292 139.311 311.029 139.111 310.835 138.858C310.642 138.598 310.535 138.301 310.515 137.968H311.455C311.482 138.241 311.609 138.464 311.835 138.638C312.069 138.811 312.372 138.898 312.745 138.898C313.092 138.898 313.365 138.821 313.565 138.668C313.765 138.514 313.865 138.321 313.865 138.088C313.865 137.848 313.759 137.671 313.545 137.558C313.332 137.438 313.002 137.321 312.555 137.208C312.149 137.101 311.815 136.994 311.555 136.888C311.302 136.774 311.082 136.611 310.895 136.398C310.715 136.178 310.625 135.891 310.625 135.538C310.625 135.258 310.709 135.001 310.875 134.768C311.042 134.534 311.279 134.351 311.585 134.218C311.892 134.078 312.242 134.008 312.635 134.008C313.242 134.008 313.732 134.161 314.105 134.468C314.479 134.774 314.679 135.194 314.705 135.728H313.795C313.775 135.441 313.659 135.211 313.445 135.038C313.239 134.864 312.959 134.778 312.605 134.778C312.279 134.778 312.019 134.848 311.825 134.988C311.632 135.128 311.535 135.311 311.535 135.538C311.535 135.718 311.592 135.868 311.705 135.988C311.825 136.101 311.972 136.194 312.145 136.268C312.325 136.334 312.572 136.411 312.885 136.498C313.279 136.604 313.599 136.711 313.845 136.818C314.092 136.918 314.302 137.071 314.475 137.278C314.655 137.484 314.749 137.754 314.755 138.088C314.755 138.388 314.672 138.658 314.505 138.898C314.339 139.138 314.102 139.328 313.795 139.468C313.495 139.601 313.149 139.668 312.755 139.668Z" fill="#86909C"/>
<path d="M30.5236 99.4853C39.5242 95.9065 45.3911 94.6723 55.4469 94.2419C65.2717 93.8215 70.5749 97.8959 80.3703 97.1623C90.679 96.3903 94.9804 90.7264 105.294 89.9941C115.108 89.2973 120.485 94.3395 130.217 93.1136C141.272 91.721 143.948 81.7507 155.14 81.8968C166.688 82.0475 168.522 94.8199 180.064 94.5074C193.112 94.1541 194.395 76.9021 204.987 76.8525C215.58 76.8029 218.606 88.864 229.911 88.5461C246.339 88.0842 242.684 59.4493 254.834 61.6696C266.984 63.89 264.258 119.406 279.757 116.447C295.257 113.487 299.112 61.6696 304.681 24.132" stroke="#00C77D" stroke-width="2" stroke-linejoin="round"/>
<path d="M80.3703 97.1623C70.5749 97.8959 65.2717 93.8215 55.4469 94.2419C45.3911 94.6723 39.5242 95.9065 30.5236 99.4853V128.502H304.681V24.132C299.112 61.6696 295.257 113.487 279.757 116.447C264.258 119.406 266.984 63.89 254.834 61.6696C242.684 59.4493 246.339 88.0842 229.911 88.5461C218.606 88.864 215.58 76.8029 204.987 76.8525C194.395 76.9021 193.112 94.1541 180.064 94.5074C168.522 94.8199 166.688 82.0475 155.14 81.8968C143.948 81.7507 141.272 91.721 130.217 93.1136C120.485 94.3395 115.108 89.2973 105.294 89.9941C94.9804 90.7264 90.679 96.3903 80.3703 97.1623Z" fill="url(#paint0_linear_185_604)"/>
<defs>
<linearGradient id="paint0_linear_185_604" x1="167.602" y1="24.132" x2="167.602" y2="128.502" gradientUnits="userSpaceOnUse">
<stop stop-color="#165DFF" stop-opacity="0.2"/>
<stop offset="1" stop-color="#165DFF" stop-opacity="0"/>
</linearGradient>
</defs>
</svg>
