<svg width="151" height="151" viewBox="0 0 151 151" fill="none" xmlns="http://www.w3.org/2000/svg">
<circle cx="75.5" cy="75.5" r="74.3095" fill="white" stroke="#00C77D" stroke-width="2.38095"/>
<mask id="mask0_45_1729" style="mask-type:alpha" maskUnits="userSpaceOnUse" x="0" y="0" width="151" height="151">
<circle cx="75.5" cy="75.5" r="74.3095" fill="white" stroke="white" stroke-width="2.38095"/>
</mask>
<g mask="url(#mask0_45_1729)">
<path opacity="0.1" fill-rule="evenodd" clip-rule="evenodd" d="M189.977 115.671C189.977 115.671 164.485 98.2116 121.664 112.843C78.8423 127.474 -21.7066 122.398 -21.7066 122.398L-10.0984 269.432H180.822L189.977 115.671Z" fill="#00C77D"/>
<path opacity="0.295596" fill-rule="evenodd" clip-rule="evenodd" d="M-26.8209 138.476C-26.8209 138.476 35.5973 97.3455 78.4188 111.977C121.24 126.608 173.178 120.194 173.178 120.194L173.254 273.362H-81.1625L-77.9721 150.865L-26.8209 138.476Z" fill="#00C77D"/>
<path opacity="0.85" fill-rule="evenodd" clip-rule="evenodd" d="M-18.875 122.566C-18.875 122.566 31.6156 110.298 74.4371 124.929C117.259 139.56 181.2 108.531 181.2 108.531V276.328H-9.72063L-18.875 122.566Z" fill="#00C77D"/>
<path d="M32.2043 55.192C32.5083 55.24 32.7843 55.364 33.0323 55.564C33.2883 55.764 33.4883 56.012 33.6323 56.308C33.7843 56.604 33.8603 56.92 33.8603 57.256C33.8603 57.68 33.7523 58.064 33.5363 58.408C33.3203 58.744 33.0043 59.012 32.5883 59.212C32.1803 59.404 31.6963 59.5 31.1363 59.5H28.0163V51.136H31.0163C31.5843 51.136 32.0683 51.232 32.4683 51.424C32.8683 51.608 33.1683 51.86 33.3683 52.18C33.5683 52.5 33.6683 52.86 33.6683 53.26C33.6683 53.756 33.5323 54.168 33.2603 54.496C32.9963 54.816 32.6443 55.048 32.2043 55.192ZM29.1083 54.748H30.9443C31.4563 54.748 31.8523 54.628 32.1323 54.388C32.4123 54.148 32.5523 53.816 32.5523 53.392C32.5523 52.968 32.4123 52.636 32.1323 52.396C31.8523 52.156 31.4483 52.036 30.9203 52.036H29.1083V54.748ZM31.0403 58.6C31.5843 58.6 32.0083 58.472 32.3123 58.216C32.6163 57.96 32.7683 57.604 32.7683 57.148C32.7683 56.684 32.6083 56.32 32.2883 56.056C31.9683 55.784 31.5403 55.648 31.0043 55.648H29.1083V58.6H31.0403ZM41.2077 52.924V59.5H40.1157V58.528C39.9077 58.864 39.6157 59.128 39.2397 59.32C38.8717 59.504 38.4637 59.596 38.0157 59.596C37.5037 59.596 37.0437 59.492 36.6357 59.284C36.2277 59.068 35.9037 58.748 35.6637 58.324C35.4317 57.9 35.3157 57.384 35.3157 56.776V52.924H36.3957V56.632C36.3957 57.28 36.5597 57.78 36.8877 58.132C37.2157 58.476 37.6637 58.648 38.2317 58.648C38.8157 58.648 39.2757 58.468 39.6117 58.108C39.9477 57.748 40.1157 57.224 40.1157 56.536V52.924H41.2077ZM42.6434 56.188C42.6434 55.516 42.7794 54.928 43.0514 54.424C43.3234 53.912 43.6954 53.516 44.1674 53.236C44.6474 52.956 45.1834 52.816 45.7754 52.816C46.2874 52.816 46.7634 52.936 47.2034 53.176C47.6434 53.408 47.9794 53.716 48.2114 54.1V50.62H49.3154V59.5H48.2114V58.264C47.9954 58.656 47.6754 58.98 47.2514 59.236C46.8274 59.484 46.3314 59.608 45.7634 59.608C45.1794 59.608 44.6474 59.464 44.1674 59.176C43.6954 58.888 43.3234 58.484 43.0514 57.964C42.7794 57.444 42.6434 56.852 42.6434 56.188ZM48.2114 56.2C48.2114 55.704 48.1114 55.272 47.9114 54.904C47.7114 54.536 47.4394 54.256 47.0954 54.064C46.7594 53.864 46.3874 53.764 45.9794 53.764C45.5714 53.764 45.1994 53.86 44.8634 54.052C44.5274 54.244 44.2594 54.524 44.0594 54.892C43.8594 55.26 43.7594 55.692 43.7594 56.188C43.7594 56.692 43.8594 57.132 44.0594 57.508C44.2594 57.876 44.5274 58.16 44.8634 58.36C45.1994 58.552 45.5714 58.648 45.9794 58.648C46.3874 58.648 46.7594 58.552 47.0954 58.36C47.4394 58.16 47.7114 57.876 47.9114 57.508C48.1114 57.132 48.2114 56.696 48.2114 56.2ZM53.8728 52.816C54.4408 52.816 54.9368 52.94 55.3608 53.188C55.7928 53.436 56.1128 53.748 56.3208 54.124V52.924H57.4248V59.644C57.4248 60.244 57.2968 60.776 57.0408 61.24C56.7848 61.712 56.4168 62.08 55.9368 62.344C55.4648 62.608 54.9128 62.74 54.2808 62.74C53.4168 62.74 52.6968 62.536 52.1208 62.128C51.5448 61.72 51.2048 61.164 51.1008 60.46H52.1808C52.3008 60.86 52.5488 61.18 52.9248 61.42C53.3008 61.668 53.7528 61.792 54.2808 61.792C54.8808 61.792 55.3688 61.604 55.7448 61.228C56.1288 60.852 56.3208 60.324 56.3208 59.644V58.264C56.1048 58.648 55.7848 58.968 55.3608 59.224C54.9368 59.48 54.4408 59.608 53.8728 59.608C53.2888 59.608 52.7568 59.464 52.2768 59.176C51.8048 58.888 51.4328 58.484 51.1608 57.964C50.8888 57.444 50.7528 56.852 50.7528 56.188C50.7528 55.516 50.8888 54.928 51.1608 54.424C51.4328 53.912 51.8048 53.516 52.2768 53.236C52.7568 52.956 53.2888 52.816 53.8728 52.816ZM56.3208 56.2C56.3208 55.704 56.2208 55.272 56.0208 54.904C55.8208 54.536 55.5488 54.256 55.2048 54.064C54.8688 53.864 54.4968 53.764 54.0888 53.764C53.6808 53.764 53.3088 53.86 52.9728 54.052C52.6368 54.244 52.3688 54.524 52.1688 54.892C51.9688 55.26 51.8688 55.692 51.8688 56.188C51.8688 56.692 51.9688 57.132 52.1688 57.508C52.3688 57.876 52.6368 58.16 52.9728 58.36C53.3088 58.552 53.6808 58.648 54.0888 58.648C54.4968 58.648 54.8688 58.552 55.2048 58.36C55.5488 58.16 55.8208 57.876 56.0208 57.508C56.2208 57.132 56.3208 56.696 56.3208 56.2ZM65.2702 55.96C65.2702 56.168 65.2582 56.388 65.2342 56.62H59.9782C60.0182 57.268 60.2382 57.776 60.6382 58.144C61.0462 58.504 61.5382 58.684 62.1142 58.684C62.5862 58.684 62.9782 58.576 63.2902 58.36C63.6102 58.136 63.8342 57.84 63.9622 57.472H65.1382C64.9622 58.104 64.6102 58.62 64.0822 59.02C63.5542 59.412 62.8982 59.608 62.1142 59.608C61.4902 59.608 60.9302 59.468 60.4342 59.188C59.9462 58.908 59.5622 58.512 59.2822 58C59.0022 57.48 58.8622 56.88 58.8622 56.2C58.8622 55.52 58.9982 54.924 59.2702 54.412C59.5422 53.9 59.9222 53.508 60.4102 53.236C60.9062 52.956 61.4742 52.816 62.1142 52.816C62.7382 52.816 63.2902 52.952 63.7702 53.224C64.2502 53.496 64.6182 53.872 64.8742 54.352C65.1382 54.824 65.2702 55.36 65.2702 55.96ZM64.1422 55.732C64.1422 55.316 64.0502 54.96 63.8662 54.664C63.6822 54.36 63.4302 54.132 63.1102 53.98C62.7982 53.82 62.4502 53.74 62.0662 53.74C61.5142 53.74 61.0422 53.916 60.6502 54.268C60.2662 54.62 60.0462 55.108 59.9902 55.732H64.1422ZM68.0436 53.824V57.7C68.0436 58.02 68.1116 58.248 68.2476 58.384C68.3836 58.512 68.6196 58.576 68.9556 58.576H69.7596V59.5H68.7756C68.1676 59.5 67.7116 59.36 67.4076 59.08C67.1036 58.8 66.9516 58.34 66.9516 57.7V53.824H66.0996V52.924H66.9516V51.268H68.0436V52.924H69.7596V53.824H68.0436ZM75.3739 54.148C75.5979 53.756 75.9259 53.436 76.3579 53.188C76.7899 52.94 77.2819 52.816 77.8339 52.816C78.4259 52.816 78.9579 52.956 79.4299 53.236C79.9019 53.516 80.2739 53.912 80.5459 54.424C80.8179 54.928 80.9539 55.516 80.9539 56.188C80.9539 56.852 80.8179 57.444 80.5459 57.964C80.2739 58.484 79.8979 58.888 79.4179 59.176C78.9459 59.464 78.4179 59.608 77.8339 59.608C77.2659 59.608 76.7659 59.484 76.3339 59.236C75.9099 58.988 75.5899 58.672 75.3739 58.288V59.5H74.2819V50.62H75.3739V54.148ZM79.8379 56.188C79.8379 55.692 79.7379 55.26 79.5379 54.892C79.3379 54.524 79.0659 54.244 78.7219 54.052C78.3859 53.86 78.0139 53.764 77.6059 53.764C77.2059 53.764 76.8339 53.864 76.4899 54.064C76.1539 54.256 75.8819 54.54 75.6739 54.916C75.4739 55.284 75.3739 55.712 75.3739 56.2C75.3739 56.696 75.4739 57.132 75.6739 57.508C75.8819 57.876 76.1539 58.16 76.4899 58.36C76.8339 58.552 77.2059 58.648 77.6059 58.648C78.0139 58.648 78.3859 58.552 78.7219 58.36C79.0659 58.16 79.3379 57.876 79.5379 57.508C79.7379 57.132 79.8379 56.692 79.8379 56.188ZM88.2233 52.924V59.5H87.1313V58.528C86.9233 58.864 86.6313 59.128 86.2553 59.32C85.8873 59.504 85.4793 59.596 85.0313 59.596C84.5193 59.596 84.0593 59.492 83.6513 59.284C83.2433 59.068 82.9193 58.748 82.6793 58.324C82.4473 57.9 82.3313 57.384 82.3313 56.776V52.924H83.4113V56.632C83.4113 57.28 83.5753 57.78 83.9033 58.132C84.2313 58.476 84.6793 58.648 85.2473 58.648C85.8313 58.648 86.2913 58.468 86.6273 58.108C86.9633 57.748 87.1313 57.224 87.1313 56.536V52.924H88.2233ZM91.1591 50.62V59.5H90.0671V50.62H91.1591ZM92.6122 56.188C92.6122 55.516 92.7482 54.928 93.0202 54.424C93.2922 53.912 93.6642 53.516 94.1362 53.236C94.6162 52.956 95.1482 52.816 95.7322 52.816C96.3082 52.816 96.8082 52.94 97.2322 53.188C97.6562 53.436 97.9722 53.748 98.1802 54.124V52.924H99.2842V59.5H98.1802V58.276C97.9642 58.66 97.6402 58.98 97.2082 59.236C96.7842 59.484 96.2882 59.608 95.7202 59.608C95.1362 59.608 94.6082 59.464 94.1362 59.176C93.6642 58.888 93.2922 58.484 93.0202 57.964C92.7482 57.444 92.6122 56.852 92.6122 56.188ZM98.1802 56.2C98.1802 55.704 98.0802 55.272 97.8802 54.904C97.6802 54.536 97.4082 54.256 97.0642 54.064C96.7282 53.864 96.3562 53.764 95.9482 53.764C95.5402 53.764 95.1682 53.86 94.8322 54.052C94.4962 54.244 94.2282 54.524 94.0282 54.892C93.8282 55.26 93.7282 55.692 93.7282 56.188C93.7282 56.692 93.8282 57.132 94.0282 57.508C94.2282 57.876 94.4962 58.16 94.8322 58.36C95.1682 58.552 95.5402 58.648 95.9482 58.648C96.3562 58.648 96.7282 58.552 97.0642 58.36C97.4082 58.16 97.6802 57.876 97.8802 57.508C98.0802 57.132 98.1802 56.696 98.1802 56.2ZM104.334 52.804C105.134 52.804 105.782 53.048 106.278 53.536C106.774 54.016 107.022 54.712 107.022 55.624V59.5H105.942V55.78C105.942 55.124 105.778 54.624 105.45 54.28C105.122 53.928 104.674 53.752 104.106 53.752C103.53 53.752 103.07 53.932 102.726 54.292C102.39 54.652 102.222 55.176 102.222 55.864V59.5H101.13V52.924H102.222V53.86C102.438 53.524 102.73 53.264 103.098 53.08C103.474 52.896 103.886 52.804 104.334 52.804ZM112.569 51.856C112.361 51.856 112.185 51.784 112.041 51.64C111.897 51.496 111.825 51.32 111.825 51.112C111.825 50.904 111.897 50.728 112.041 50.584C112.185 50.44 112.361 50.368 112.569 50.368C112.769 50.368 112.937 50.44 113.073 50.584C113.217 50.728 113.289 50.904 113.289 51.112C113.289 51.32 113.217 51.496 113.073 51.64C112.937 51.784 112.769 51.856 112.569 51.856ZM113.097 52.924V59.5H112.005V52.924H113.097ZM118.162 52.804C118.962 52.804 119.61 53.048 120.106 53.536C120.602 54.016 120.85 54.712 120.85 55.624V59.5H119.77V55.78C119.77 55.124 119.606 54.624 119.278 54.28C118.95 53.928 118.502 53.752 117.934 53.752C117.358 53.752 116.898 53.932 116.554 54.292C116.218 54.652 116.05 55.176 116.05 55.864V59.5H114.958V52.924H116.05V53.86C116.266 53.524 116.558 53.264 116.926 53.08C117.302 52.896 117.714 52.804 118.162 52.804ZM123.197 51.856C122.989 51.856 122.813 51.784 122.669 51.64C122.525 51.496 122.453 51.32 122.453 51.112C122.453 50.904 122.525 50.728 122.669 50.584C122.813 50.44 122.989 50.368 123.197 50.368C123.397 50.368 123.565 50.44 123.701 50.584C123.845 50.728 123.917 50.904 123.917 51.112C123.917 51.32 123.845 51.496 123.701 51.64C123.565 51.784 123.397 51.856 123.197 51.856ZM123.725 52.924V59.5H122.633V52.924H123.725Z" fill="#86909C"/>
<path d="M46.9857 90.78C48.5217 89.452 49.7297 88.364 50.6097 87.516C51.5057 86.652 52.2497 85.756 52.8417 84.828C53.4337 83.9 53.7297 82.972 53.7297 82.044C53.7297 81.084 53.4977 80.332 53.0337 79.788C52.5857 79.244 51.8737 78.972 50.8977 78.972C49.9537 78.972 49.2177 79.276 48.6897 79.884C48.1777 80.476 47.9057 81.276 47.8737 82.284H45.2337C45.2817 80.46 45.8257 79.068 46.8657 78.108C47.9217 77.132 49.2577 76.644 50.8737 76.644C52.6177 76.644 53.9777 77.124 54.9537 78.084C55.9457 79.044 56.4417 80.324 56.4417 81.924C56.4417 83.076 56.1457 84.188 55.5537 85.26C54.9777 86.316 54.2817 87.268 53.4657 88.116C52.6657 88.948 51.6417 89.916 50.3937 91.02L49.3137 91.98H56.9217V94.26H45.2577V92.268L46.9857 90.78ZM59.3253 85.524C59.3253 82.756 59.7893 80.596 60.7173 79.044C61.6613 77.476 63.2773 76.692 65.5653 76.692C67.8533 76.692 69.4613 77.476 70.3893 79.044C71.3333 80.596 71.8053 82.756 71.8053 85.524C71.8053 88.324 71.3333 90.516 70.3893 92.1C69.4613 93.668 67.8533 94.452 65.5653 94.452C63.2773 94.452 61.6613 93.668 60.7173 92.1C59.7893 90.516 59.3253 88.324 59.3253 85.524ZM69.1173 85.524C69.1173 84.228 69.0293 83.132 68.8533 82.236C68.6933 81.34 68.3573 80.612 67.8453 80.052C67.3333 79.476 66.5733 79.188 65.5653 79.188C64.5573 79.188 63.7973 79.476 63.2853 80.052C62.7733 80.612 62.4293 81.34 62.2533 82.236C62.0933 83.132 62.0133 84.228 62.0133 85.524C62.0133 86.868 62.0933 87.996 62.2533 88.908C62.4133 89.82 62.7493 90.556 63.2613 91.116C63.7893 91.676 64.5573 91.956 65.5653 91.956C66.5733 91.956 67.3333 91.676 67.8453 91.116C68.3733 90.556 68.7173 89.82 68.8773 88.908C69.0373 87.996 69.1173 86.868 69.1173 85.524ZM76.1643 94.668C75.6683 94.668 75.2523 94.5 74.9163 94.164C74.5803 93.828 74.4123 93.412 74.4123 92.916C74.4123 92.42 74.5803 92.004 74.9163 91.668C75.2523 91.332 75.6683 91.164 76.1643 91.164C76.6443 91.164 77.0523 91.332 77.3883 91.668C77.7243 92.004 77.8923 92.42 77.8923 92.916C77.8923 93.412 77.7243 93.828 77.3883 94.164C77.0523 94.5 76.6443 94.668 76.1643 94.668ZM91.7693 79.356H83.7293V84.132C84.0653 83.684 84.5613 83.308 85.2173 83.004C85.8893 82.7 86.6013 82.548 87.3533 82.548C88.6973 82.548 89.7853 82.836 90.6173 83.412C91.4653 83.988 92.0653 84.716 92.4173 85.596C92.7853 86.476 92.9693 87.404 92.9693 88.38C92.9693 89.564 92.7373 90.62 92.2733 91.548C91.8253 92.46 91.1453 93.18 90.2333 93.708C89.3373 94.236 88.2333 94.5 86.9213 94.5C85.1773 94.5 83.7773 94.068 82.7213 93.204C81.6653 92.34 81.0333 91.196 80.8253 89.772H83.4893C83.6653 90.524 84.0573 91.124 84.6653 91.572C85.2733 92.004 86.0333 92.22 86.9453 92.22C88.0813 92.22 88.9293 91.876 89.4893 91.188C90.0653 90.5 90.3533 89.588 90.3533 88.452C90.3533 87.3 90.0653 86.42 89.4893 85.812C88.9133 85.188 88.0653 84.876 86.9453 84.876C86.1613 84.876 85.4973 85.076 84.9533 85.476C84.4253 85.86 84.0413 86.388 83.8013 87.06H81.2093V76.956H91.7693V79.356Z" fill="#1D2129"/>
<path d="M99.776 87.78C99.776 87.236 99.94 86.804 100.268 86.484C100.596 86.156 101.016 85.992 101.528 85.992C102.04 85.992 102.46 86.156 102.788 86.484C103.116 86.804 103.28 87.236 103.28 87.78C103.28 88.332 103.116 88.772 102.788 89.1C102.46 89.42 102.04 89.58 101.528 89.58C101.016 89.58 100.596 89.42 100.268 89.1C99.94 88.772 99.776 88.332 99.776 87.78ZM106.784 86.124L101.924 94.5H100.844L105.704 86.124H106.784ZM101.528 86.664C101.256 86.664 101.04 86.76 100.88 86.952C100.728 87.136 100.652 87.412 100.652 87.78C100.652 88.148 100.728 88.428 100.88 88.62C101.04 88.812 101.256 88.908 101.528 88.908C101.8 88.908 102.016 88.812 102.176 88.62C102.336 88.42 102.416 88.14 102.416 87.78C102.416 87.412 102.336 87.136 102.176 86.952C102.016 86.76 101.8 86.664 101.528 86.664ZM104.372 92.844C104.372 92.292 104.536 91.856 104.864 91.536C105.192 91.208 105.612 91.044 106.124 91.044C106.636 91.044 107.052 91.208 107.372 91.536C107.7 91.856 107.864 92.292 107.864 92.844C107.864 93.388 107.7 93.824 107.372 94.152C107.052 94.48 106.636 94.644 106.124 94.644C105.612 94.644 105.192 94.484 104.864 94.164C104.536 93.836 104.372 93.396 104.372 92.844ZM106.112 91.728C105.84 91.728 105.624 91.824 105.464 92.016C105.304 92.2 105.224 92.476 105.224 92.844C105.224 93.204 105.304 93.48 105.464 93.672C105.624 93.856 105.84 93.948 106.112 93.948C106.384 93.948 106.6 93.856 106.76 93.672C106.92 93.48 107 93.204 107 92.844C107 92.476 106.92 92.2 106.76 92.016C106.6 91.824 106.384 91.728 106.112 91.728Z" fill="#86909C"/>
</g>
</svg>
