<svg width="138" height="138" viewBox="0 0 138 138" fill="none" xmlns="http://www.w3.org/2000/svg">
<circle cx="69" cy="69" r="67.8095" fill="white" stroke="#00C77D" stroke-width="2.38095"/>
<mask id="mask0_398_3930" style="mask-type:luminance" maskUnits="userSpaceOnUse" x="0" y="0" width="138" height="138">
<circle cx="69" cy="69" r="67.8095" fill="white" stroke="white" stroke-width="2.38095"/>
</mask>
<g mask="url(#mask0_398_3930)">
<path opacity="0.1" fill-rule="evenodd" clip-rule="evenodd" d="M173.621 105.713C173.621 105.713 150.324 89.7563 111.189 103.128C72.0545 116.499 -19.8379 111.861 -19.8379 111.861L-9.22914 246.236H165.255L173.621 105.713Z" fill="#00C77D"/>
<path opacity="0.295596" fill-rule="evenodd" clip-rule="evenodd" d="M-24.5118 126.554C-24.5118 126.554 32.5326 88.9646 71.6675 102.336C110.802 115.708 158.269 109.846 158.269 109.846L158.338 249.828H-74.175L-71.2593 137.877L-24.5118 126.554Z" fill="#00C77D"/>
<path opacity="0.85" fill-rule="evenodd" clip-rule="evenodd" d="M-17.25 112.014C-17.25 112.014 28.8937 100.802 68.0286 114.173C107.164 127.545 165.6 99.1875 165.6 99.1875V252.538H-8.88375L-17.25 112.014Z" fill="#00C77D"/>
<path d="M42.1283 49.35C42.5616 49.4433 42.9116 49.65 43.1783 49.97C43.4516 50.29 43.5883 50.6667 43.5883 51.1C43.5883 51.6733 43.3916 52.1333 42.9983 52.48C42.6116 52.8267 42.0483 53 41.3083 53H38.6883V45.95H41.2683C41.9749 45.95 42.5116 46.1067 42.8783 46.42C43.2449 46.7333 43.4283 47.1633 43.4283 47.71C43.4283 48.1633 43.3049 48.53 43.0583 48.81C42.8183 49.09 42.5083 49.27 42.1283 49.35ZM39.5983 49.04H41.1183C41.5649 49.04 41.9049 48.9367 42.1383 48.73C42.3783 48.5233 42.4983 48.2333 42.4983 47.86C42.4983 47.5 42.3816 47.2167 42.1483 47.01C41.9149 46.8033 41.5583 46.7 41.0783 46.7H39.5983V49.04ZM41.1383 52.24C41.6183 52.24 41.9883 52.13 42.2483 51.91C42.5149 51.69 42.6483 51.38 42.6483 50.98C42.6483 50.5867 42.5116 50.28 42.2383 50.06C41.9716 49.8333 41.5983 49.72 41.1183 49.72H39.5983V52.24H41.1383ZM49.6034 47.51V53H48.6934V51.71C48.5534 52.1567 48.3034 52.5 47.9434 52.74C47.5901 52.9733 47.1767 53.09 46.7034 53.09C46.0701 53.09 45.5567 52.8867 45.1634 52.48C44.7701 52.0667 44.5734 51.4767 44.5734 50.71V47.51H45.4834V50.62C45.4834 51.1667 45.6234 51.59 45.9034 51.89C46.1834 52.1833 46.5634 52.33 47.0434 52.33C47.5434 52.33 47.9434 52.17 48.2434 51.85C48.5434 51.5233 48.6934 51.05 48.6934 50.43V47.51H49.6034ZM53.3113 47.44C53.8446 47.44 54.2946 47.5733 54.6613 47.84C55.0346 48.1067 55.2946 48.4633 55.4413 48.91V45.6H56.3513V53H55.4413V51.6C55.2946 52.0467 55.0346 52.4033 54.6613 52.67C54.2946 52.9367 53.8446 53.07 53.3113 53.07C52.8246 53.07 52.3913 52.9567 52.0113 52.73C51.6313 52.5033 51.3313 52.18 51.1113 51.76C50.898 51.3333 50.7913 50.8333 50.7913 50.26C50.7913 49.6867 50.898 49.1867 51.1113 48.76C51.3313 48.3333 51.6313 48.0067 52.0113 47.78C52.3913 47.5533 52.8246 47.44 53.3113 47.44ZM53.5713 48.25C53.0113 48.25 52.5613 48.43 52.2213 48.79C51.888 49.1433 51.7213 49.6333 51.7213 50.26C51.7213 50.8867 51.888 51.38 52.2213 51.74C52.5613 52.0933 53.0113 52.27 53.5713 52.27C53.9313 52.27 54.2513 52.1867 54.5313 52.02C54.818 51.8533 55.0413 51.62 55.2013 51.32C55.3613 51.0133 55.4413 50.66 55.4413 50.26C55.4413 49.86 55.3613 49.5067 55.2013 49.2C55.0413 48.8933 54.818 48.66 54.5313 48.5C54.2513 48.3333 53.9313 48.25 53.5713 48.25ZM60.0496 47.44C60.5829 47.44 61.0329 47.5733 61.3996 47.84C61.7729 48.1067 62.0329 48.4633 62.1796 48.91V47.51H63.0896V53.09C63.0896 53.5967 62.9829 54.0467 62.7696 54.44C62.5562 54.8333 62.2562 55.14 61.8696 55.36C61.4829 55.58 61.0329 55.69 60.5196 55.69C59.7796 55.69 59.1762 55.51 58.7096 55.15C58.2429 54.7967 57.9462 54.3167 57.8196 53.71H58.7196C58.8262 54.0767 59.0262 54.3633 59.3196 54.57C59.6196 54.7833 60.0029 54.89 60.4696 54.89C60.9629 54.89 61.3696 54.73 61.6896 54.41C62.0162 54.0967 62.1796 53.6567 62.1796 53.09V51.6C62.0329 52.0467 61.7729 52.4033 61.3996 52.67C61.0329 52.9367 60.5829 53.07 60.0496 53.07C59.5629 53.07 59.1296 52.9567 58.7496 52.73C58.3696 52.5033 58.0696 52.18 57.8496 51.76C57.6362 51.3333 57.5296 50.8333 57.5296 50.26C57.5296 49.6867 57.6362 49.1867 57.8496 48.76C58.0696 48.3333 58.3696 48.0067 58.7496 47.78C59.1296 47.5533 59.5629 47.44 60.0496 47.44ZM60.3096 48.25C59.7496 48.25 59.2996 48.43 58.9596 48.79C58.6262 49.1433 58.4596 49.6333 58.4596 50.26C58.4596 50.8867 58.6262 51.38 58.9596 51.74C59.2996 52.0933 59.7496 52.27 60.3096 52.27C60.6696 52.27 60.9896 52.1867 61.2696 52.02C61.5562 51.8533 61.7796 51.62 61.9396 51.32C62.0996 51.0133 62.1796 50.66 62.1796 50.26C62.1796 49.86 62.0996 49.5067 61.9396 49.2C61.7796 48.8933 61.5562 48.66 61.2696 48.5C60.9896 48.3333 60.6696 48.25 60.3096 48.25ZM69.5879 49.95C69.5879 50.1433 69.5745 50.31 69.5479 50.45H65.1579C65.1779 51.0767 65.3545 51.5467 65.6879 51.86C66.0279 52.1733 66.4412 52.33 66.9279 52.33C67.3679 52.33 67.7345 52.22 68.0279 52C68.3279 51.7733 68.5112 51.4733 68.5779 51.1H69.5479C69.4812 51.48 69.3312 51.82 69.0979 52.12C68.8712 52.42 68.5745 52.6533 68.2079 52.82C67.8412 52.9867 67.4279 53.07 66.9679 53.07C66.4412 53.07 65.9745 52.9567 65.5679 52.73C65.1612 52.5033 64.8412 52.18 64.6079 51.76C64.3812 51.3333 64.2679 50.8333 64.2679 50.26C64.2679 49.6867 64.3812 49.1867 64.6079 48.76C64.8412 48.3333 65.1612 48.0067 65.5679 47.78C65.9745 47.5533 66.4412 47.44 66.9679 47.44C67.5012 47.44 67.9645 47.5533 68.3579 47.78C68.7579 48.0067 69.0612 48.31 69.2679 48.69C69.4812 49.07 69.5879 49.49 69.5879 49.95ZM68.6679 50.01C68.6879 49.6033 68.6212 49.2633 68.4679 48.99C68.3145 48.7167 68.1045 48.5133 67.8379 48.38C67.5712 48.2467 67.2812 48.18 66.9679 48.18C66.4679 48.18 66.0479 48.3367 65.7079 48.65C65.3679 48.9567 65.1845 49.41 65.1579 50.01H68.6679ZM73.3981 52.2V53H72.7181C72.1581 53 71.7381 52.8667 71.4581 52.6C71.1848 52.3333 71.0481 51.8867 71.0481 51.26V48.3H70.2281V47.51H71.0481V46.14H71.9681V47.51H73.3881V48.3H71.9681V51.28C71.9681 51.6333 72.0314 51.8767 72.1581 52.01C72.2914 52.1367 72.5181 52.2 72.8381 52.2H73.3981ZM81.8593 47.51V53H80.9493V51.71C80.8093 52.1567 80.5593 52.5 80.1993 52.74C79.8459 52.9733 79.4326 53.09 78.9593 53.09C78.3259 53.09 77.8126 52.8867 77.4193 52.48C77.0259 52.0667 76.8293 51.4767 76.8293 50.71V47.51H77.7393V50.62C77.7393 51.1667 77.8793 51.59 78.1593 51.89C78.4393 52.1833 78.8193 52.33 79.2993 52.33C79.7993 52.33 80.1993 52.17 80.4993 51.85C80.7993 51.5233 80.9493 51.05 80.9493 50.43V47.51H81.8593ZM85.0372 47.44C85.6572 47.44 86.1538 47.6033 86.5272 47.93C86.9072 48.25 87.1372 48.6833 87.2172 49.23H86.3472C86.3072 48.9033 86.1705 48.6367 85.9372 48.43C85.7105 48.2167 85.4038 48.11 85.0172 48.11C84.6905 48.11 84.4338 48.19 84.2472 48.35C84.0672 48.5033 83.9772 48.7133 83.9772 48.98C83.9772 49.18 84.0372 49.3433 84.1572 49.47C84.2838 49.59 84.4372 49.6833 84.6172 49.75C84.8038 49.81 85.0572 49.8767 85.3772 49.95C85.7838 50.0433 86.1105 50.14 86.3572 50.24C86.6105 50.3333 86.8238 50.4867 86.9972 50.7C87.1772 50.9133 87.2672 51.2 87.2672 51.56C87.2672 52.0067 87.0972 52.37 86.7572 52.65C86.4238 52.93 85.9772 53.07 85.4172 53.07C84.7638 53.07 84.2305 52.9133 83.8172 52.6C83.4038 52.2867 83.1605 51.85 83.0872 51.29H83.9672C84.0005 51.6233 84.1438 51.8933 84.3972 52.1C84.6572 52.3067 84.9972 52.41 85.4172 52.41C85.7305 52.41 85.9738 52.33 86.1472 52.17C86.3272 52.01 86.4172 51.8 86.4172 51.54C86.4172 51.3267 86.3538 51.1567 86.2272 51.03C86.1005 50.9033 85.9438 50.8067 85.7572 50.74C85.5705 50.6733 85.3138 50.6033 84.9872 50.53C84.5805 50.4367 84.2538 50.3433 84.0072 50.25C83.7672 50.1567 83.5605 50.01 83.3872 49.81C83.2205 49.6033 83.1372 49.3267 83.1372 48.98C83.1372 48.52 83.3072 48.15 83.6472 47.87C83.9872 47.5833 84.4505 47.44 85.0372 47.44ZM93.5332 49.95C93.5332 50.1433 93.5198 50.31 93.4932 50.45H89.1032C89.1232 51.0767 89.2998 51.5467 89.6332 51.86C89.9732 52.1733 90.3865 52.33 90.8732 52.33C91.3132 52.33 91.6798 52.22 91.9732 52C92.2732 51.7733 92.4565 51.4733 92.5232 51.1H93.4932C93.4265 51.48 93.2765 51.82 93.0432 52.12C92.8165 52.42 92.5198 52.6533 92.1532 52.82C91.7865 52.9867 91.3732 53.07 90.9132 53.07C90.3865 53.07 89.9198 52.9567 89.5132 52.73C89.1065 52.5033 88.7865 52.18 88.5532 51.76C88.3265 51.3333 88.2132 50.8333 88.2132 50.26C88.2132 49.6867 88.3265 49.1867 88.5532 48.76C88.7865 48.3333 89.1065 48.0067 89.5132 47.78C89.9198 47.5533 90.3865 47.44 90.9132 47.44C91.4465 47.44 91.9098 47.5533 92.3032 47.78C92.7032 48.0067 93.0065 48.31 93.2132 48.69C93.4265 49.07 93.5332 49.49 93.5332 49.95ZM92.6132 50.01C92.6332 49.6033 92.5665 49.2633 92.4132 48.99C92.2598 48.7167 92.0498 48.5133 91.7832 48.38C91.5165 48.2467 91.2265 48.18 90.9132 48.18C90.4132 48.18 89.9932 48.3367 89.6532 48.65C89.3132 48.9567 89.1298 49.41 89.1032 50.01H92.6132ZM96.9734 47.44C97.5067 47.44 97.9567 47.5733 98.3234 47.84C98.6967 48.1067 98.9567 48.4633 99.1034 48.91V45.6H100.013V53H99.1034V51.6C98.9567 52.0467 98.6967 52.4033 98.3234 52.67C97.9567 52.9367 97.5067 53.07 96.9734 53.07C96.4867 53.07 96.0534 52.9567 95.6734 52.73C95.2934 52.5033 94.9934 52.18 94.7734 51.76C94.5601 51.3333 94.4534 50.8333 94.4534 50.26C94.4534 49.6867 94.5601 49.1867 94.7734 48.76C94.9934 48.3333 95.2934 48.0067 95.6734 47.78C96.0534 47.5533 96.4867 47.44 96.9734 47.44ZM97.2334 48.25C96.6734 48.25 96.2234 48.43 95.8834 48.79C95.5501 49.1433 95.3834 49.6333 95.3834 50.26C95.3834 50.8867 95.5501 51.38 95.8834 51.74C96.2234 52.0933 96.6734 52.27 97.2334 52.27C97.5934 52.27 97.9134 52.1867 98.1934 52.02C98.4801 51.8533 98.7034 51.62 98.8634 51.32C99.0234 51.0133 99.1034 50.66 99.1034 50.26C99.1034 49.86 99.0234 49.5067 98.8634 49.2C98.7034 48.8933 98.4801 48.66 98.1934 48.5C97.9134 48.3333 97.5934 48.25 97.2334 48.25Z" fill="#86909C"/>
<path d="M39.6878 85.864C42.2798 84.088 44.3518 82.352 45.9038 80.656C47.4718 78.944 48.2558 77.36 48.2558 75.904C48.2558 75.04 48.0398 74.352 47.6078 73.84C47.1918 73.328 46.5118 73.072 45.5678 73.072C44.5918 73.072 43.8558 73.392 43.3598 74.032C42.8638 74.656 42.5838 75.552 42.5198 76.72H39.8558C39.9678 74.784 40.5598 73.304 41.6318 72.28C42.7198 71.256 44.1038 70.744 45.7838 70.744C47.4318 70.744 48.7198 71.184 49.6478 72.064C50.5918 72.928 51.0638 74.128 51.0638 75.664C51.0638 76.896 50.6798 78.144 49.9118 79.408C49.1598 80.672 48.1998 81.84 47.0318 82.912C45.8638 83.968 44.6558 84.88 43.4078 85.648H51.4478V87.88H39.6878V85.864ZM53.593 79.408C53.593 82.112 54.073 84.232 55.033 85.768C55.993 87.288 57.593 88.048 59.833 88.048C62.073 88.048 63.673 87.28 64.633 85.744C65.593 84.208 66.073 82.096 66.073 79.408C66.073 76.736 65.593 74.64 64.633 73.12C63.673 71.584 62.073 70.816 59.833 70.816C57.593 70.816 55.993 71.576 55.033 73.096C54.073 74.616 53.593 76.72 53.593 79.408ZM63.337 79.408C63.337 81.36 63.097 82.856 62.617 83.896C62.137 84.936 61.209 85.456 59.833 85.456C58.441 85.456 57.505 84.936 57.025 83.896C56.545 82.856 56.305 81.36 56.305 79.408C56.305 77.472 56.545 75.992 57.025 74.968C57.505 73.944 58.441 73.432 59.833 73.432C61.209 73.432 62.137 73.952 62.617 74.992C63.097 76.016 63.337 77.488 63.337 79.408ZM71.1141 84.976V88H68.0181V84.976H71.1141ZM84.8524 73.216H76.4764V78.256C76.8604 77.76 77.4044 77.368 78.1084 77.08C78.8124 76.776 79.5884 76.624 80.4364 76.624C81.6204 76.624 82.6044 76.88 83.3884 77.392C84.1724 77.888 84.7484 78.552 85.1164 79.384C85.5004 80.216 85.6924 81.136 85.6924 82.144C85.6924 83.92 85.1964 85.36 84.2044 86.464C83.2124 87.552 81.7724 88.096 79.8844 88.096C78.1084 88.096 76.6764 87.624 75.5884 86.68C74.5004 85.736 73.9084 84.48 73.8124 82.912H76.5004C76.6444 83.776 76.9964 84.456 77.5564 84.952C78.1324 85.448 78.8604 85.696 79.7404 85.696C80.8284 85.696 81.6444 85.368 82.1884 84.712C82.7324 84.056 83.0044 83.184 83.0044 82.096C83.0044 81.072 82.7244 80.272 82.1644 79.696C81.6044 79.104 80.8044 78.808 79.7644 78.808C79.0284 78.808 78.3804 78.968 77.8204 79.288C77.2764 79.608 76.8764 80.032 76.6204 80.56H73.9564V70.792H84.8524V73.216Z" fill="#1D2129"/>
<path d="M95.0828 79.42C95.5868 79.42 96.0028 79.584 96.3308 79.912C96.6668 80.232 96.8348 80.66 96.8348 81.196C96.8348 81.732 96.6708 82.16 96.3428 82.48C96.0148 82.8 95.5948 82.96 95.0828 82.96C94.5708 82.96 94.1508 82.8 93.8228 82.48C93.4948 82.16 93.3308 81.732 93.3308 81.196C93.3308 80.66 93.4948 80.232 93.8228 79.912C94.1508 79.584 94.5708 79.42 95.0828 79.42ZM99.8588 79.528L94.9988 88H93.9188L98.7788 79.528H99.8588ZM94.0988 81.196C94.0988 81.516 94.1868 81.776 94.3628 81.976C94.5468 82.176 94.7828 82.276 95.0708 82.276C95.3668 82.276 95.6068 82.176 95.7908 81.976C95.9748 81.776 96.0668 81.516 96.0668 81.196C96.0668 80.876 95.9748 80.616 95.7908 80.416C95.6068 80.216 95.3668 80.116 95.0708 80.116C94.7828 80.116 94.5468 80.216 94.3628 80.416C94.1868 80.616 94.0988 80.876 94.0988 81.196ZM98.7068 84.568C99.2188 84.568 99.6348 84.728 99.9548 85.048C100.283 85.368 100.447 85.796 100.447 86.332C100.447 86.868 100.283 87.3 99.9548 87.628C99.6348 87.948 99.2188 88.108 98.7068 88.108C98.2028 88.108 97.7828 87.948 97.4468 87.628C97.1188 87.3 96.9548 86.868 96.9548 86.332C96.9548 85.796 97.1188 85.368 97.4468 85.048C97.7748 84.728 98.1948 84.568 98.7068 84.568ZM97.7228 86.332C97.7228 86.652 97.8108 86.912 97.9868 87.112C98.1708 87.312 98.4108 87.412 98.7068 87.412C98.9948 87.412 99.2268 87.312 99.4028 87.112C99.5868 86.912 99.6788 86.652 99.6788 86.332C99.6788 86.012 99.5868 85.752 99.4028 85.552C99.2268 85.352 98.9948 85.252 98.7068 85.252C98.4108 85.252 98.1708 85.352 97.9868 85.552C97.8108 85.752 97.7228 86.012 97.7228 86.332Z" fill="#86909C"/>
</g>
</svg>
