<svg width="134" height="134" viewBox="0 0 134 134" fill="none" xmlns="http://www.w3.org/2000/svg">
<path d="M110.31 52.3675C110.31 52.3675 95.0896 63.3236 108.691 91.2538C120.772 116.059 87.545 123.09 73.9133 119.027C56.2547 113.765 48.1215 90.0144 33.6593 95.8911C19.1971 101.768 8.72192 67.7832 29.9067 57.7006C56.2599 45.1585 41.1162 34.9226 44.4139 24.176C46.7807 16.463 70.8052 6.50806 81.7815 21.5773C91.0181 34.2575 96.506 30.5718 101.395 29.4714C108.446 27.8843 122.23 41.0224 110.31 52.3675Z" fill="#F3F7FF"/>
<path d="M110.492 62.1509L110.388 62.7999C110.301 63.3405 110.003 63.8245 109.559 64.1454C109.115 64.4662 108.562 64.5977 108.022 64.5108L107.974 64.5032C107.519 64.4301 107.052 64.5115 106.648 64.7345C106.245 64.9575 105.927 65.3094 105.747 65.7338L91.1055 100.168C90.6832 101.163 89.9396 101.988 88.9935 102.511C88.0474 103.035 86.9533 103.226 85.8858 103.055L45.0538 96.4941C43.9625 96.3213 42.9637 95.779 42.2243 94.9579C41.4849 94.1369 41.0498 93.0869 40.9919 91.9835L38.9643 55.0621C38.9384 54.5914 38.7523 54.1438 38.4368 53.7936C38.1214 53.4433 37.6956 53.2116 37.2302 53.1368C36.9625 53.0938 36.7059 52.9985 36.4751 52.8563C36.2442 52.7141 36.0436 52.5279 35.8847 52.3082C35.7259 52.0885 35.6118 51.8396 35.5491 51.5758C35.4864 51.312 35.4763 51.0385 35.5193 50.7708L35.6236 50.1219C35.6666 49.8542 35.7619 49.5976 35.9041 49.3667C36.0462 49.1359 36.2325 48.9353 36.4522 48.7764C36.6719 48.6175 36.9207 48.5035 37.1845 48.4408C37.4483 48.378 37.7218 48.3679 37.9895 48.4109L55.2863 51.1899C55.5519 51.2326 55.8242 51.1976 56.0704 51.0892C56.3167 50.9807 56.5263 50.8033 56.674 50.5785L68.7545 32.1966C68.9144 31.9521 69.1416 31.7591 69.4087 31.6408C69.6758 31.5225 69.9714 31.4841 70.2599 31.5301C70.4694 31.5625 70.6693 31.6399 70.846 31.757C71.0128 31.8661 71.1565 32.0071 71.2688 32.1718C71.3811 32.3365 71.4599 32.5217 71.5006 32.7169C71.5413 32.9121 71.5431 33.1133 71.5059 33.3092C71.4688 33.5051 71.3934 33.6917 71.2841 33.8584L60.6361 50.0567C60.5081 50.2514 60.4309 50.475 60.4115 50.7072C60.3921 50.9394 60.4312 51.1727 60.5251 51.386C60.619 51.5992 60.7648 51.7855 60.9492 51.9279C61.1336 52.0703 61.3507 52.1643 61.5808 52.2013L84.6013 55.8997C84.8314 55.9367 85.0671 55.9155 85.2869 55.838C85.5067 55.7604 85.7036 55.6291 85.8596 55.456C86.0156 55.2828 86.1257 55.0734 86.18 54.8467C86.2343 54.6201 86.2309 54.3835 86.1702 54.1584L81.1237 35.4394C81.0219 35.0506 81.0775 34.6372 81.2787 34.2892C81.4799 33.9412 81.8102 33.6867 82.198 33.5809C82.4025 33.5251 82.6166 33.5142 82.8257 33.5491C83.114 33.5958 83.3827 33.7249 83.5994 33.9208C83.816 34.1168 83.9713 34.3713 84.0465 34.6535L89.7608 55.8945C89.8307 56.1544 89.9742 56.3884 90.1741 56.5686C90.3739 56.7487 90.6215 56.8673 90.8872 56.91L108.781 59.7849C109.049 59.8279 109.305 59.9232 109.536 60.0654C109.767 60.2076 109.967 60.3938 110.126 60.6135C110.285 60.8332 110.399 61.0821 110.462 61.3459C110.525 61.6097 110.535 61.8832 110.492 62.1509V62.1509Z" fill="#00C77D"/>
<path d="M56.2935 57.093L51.7844 56.3685C51.7479 56.3627 51.7135 56.3875 51.7076 56.4241L46.3336 89.8706C46.3277 89.9071 46.3526 89.9415 46.3891 89.9474L50.8982 90.6719C50.9348 90.6777 50.9691 90.6529 50.975 90.6163L56.349 57.1698C56.3549 57.1333 56.3301 57.0989 56.2935 57.093Z" fill="#F3F7FF"/>
<path d="M93.6201 62.9837L89.1111 62.2592C89.0745 62.2533 89.0402 62.2782 89.0343 62.3147L83.6603 95.7612C83.6544 95.7977 83.6793 95.8321 83.7158 95.838L88.2249 96.5625C88.2614 96.5683 88.2958 96.5435 88.3017 96.5069L93.6757 63.0604C93.6815 63.0239 93.6567 62.9895 93.6201 62.9837Z" fill="#F3F7FF"/>
<path d="M65.5791 58.5947L61.0715 57.8686C61.035 57.8627 61.0006 57.8875 60.9947 57.924L55.6085 91.3591C55.6026 91.3957 55.6275 91.43 55.664 91.4359L60.1715 92.1621C60.2081 92.1679 60.2424 92.1431 60.2483 92.1066L65.6345 58.6715C65.6404 58.635 65.6156 58.6006 65.5791 58.5947Z" fill="#F3F7FF"/>
<path d="M74.9649 59.9861L70.4558 59.2616C70.4193 59.2557 70.3849 59.2806 70.379 59.3171L65.005 92.7636C64.9991 92.8001 65.024 92.8345 65.0605 92.8404L69.5696 93.5649C69.6061 93.5708 69.6405 93.5459 69.6464 93.5094L75.0204 60.0629C75.0263 60.0264 75.0014 59.992 74.9649 59.9861Z" fill="#F3F7FF"/>
<path d="M84.2925 61.4851L79.7834 60.7606C79.7469 60.7548 79.7125 60.7796 79.7067 60.8162L74.3326 94.2626C74.3268 94.2992 74.3516 94.3335 74.3881 94.3394L78.8972 95.0639C78.9338 95.0698 78.9682 95.0449 78.974 95.0084L84.3481 61.5619C84.3539 61.5254 84.3291 61.491 84.2925 61.4851Z" fill="#F3F7FF"/>
</svg>
