<svg width="360" height="339" viewBox="0 0 360 339" fill="none" xmlns="http://www.w3.org/2000/svg">
<g clip-path="url(#clip0_98_681)">
<rect width="360" height="800" fill="white"/>
<path d="M350.252 254.694C424.731 106.321 227.598 94.8166 122.907 96.1758C102.211 93.9227 112.647 101.292 83.0001 166.1C45.9415 247.11 -13.3773 34.5642 -71.4389 160.062C-129.501 285.56 -218.834 212.535 -161 350.65C-103.166 488.766 -12.9999 285.604 100 254.694C243.871 215.34 257.153 440.161 350.252 254.694Z" fill="url(#paint0_linear_98_681)"/>
<mask id="mask0_98_681" style="mask-type:alpha" maskUnits="userSpaceOnUse" x="-140" y="-223" width="736" height="583">
<path d="M496.97 -105.532C612.596 -59.2453 667.956 221.028 427.655 316.625C192.323 410.246 223.731 120.711 38.5052 288.016C-146.72 455.32 -156.296 305.56 -128.063 74.8233C-114.128 -39.0668 -131.451 -49.8057 -134.907 -50.5517C-135.741 -50.4399 -135.613 -50.704 -134.907 -50.5517C-131.551 -51.0018 -112.609 -57.5453 -53.0305 -121.896C93.8365 -280.528 120.627 -97.4876 214.97 -200.08C290.444 -282.154 475.785 -118.408 496.97 -105.532Z" fill="white"/>
</mask>
<g mask="url(#mask0_98_681)">
<path d="M-326 -409.368H-223.6V-316.275H-326V-409.368Z" fill="#7BC5AE"/>
<path d="M-326 -316.275V-362.822H-223.6V-316.275H-326Z" fill="#40A677"/>
<path d="M-223.6 -409.368H-121.2V-316.275H-223.6V-409.368Z" fill="#028C6A"/>
<path d="M-121.2 -409.368C-121.2 -383.661 -144.123 -362.822 -172.4 -362.822C-200.677 -362.822 -223.6 -383.661 -223.6 -409.368H-121.2Z" fill="#40A677"/>
<path d="M-326 -316.275H-223.6V-223.182H-326V-316.275Z" fill="#D1EDE1"/>
<path d="M-223.6 -316.275H-121.2V-223.182H-223.6V-316.275Z" fill="#40A677"/>
<path d="M-223.6 -223.182C-223.6 -248.889 -200.677 -269.728 -172.4 -269.728C-144.123 -269.728 -121.2 -248.889 -121.2 -223.182H-223.6Z" fill="#028C6A"/>
<path d="M-326 -223.182H-121.2L-121.2 -36.9955H-326V-223.182Z" fill="#7BC5AE"/>
<path d="M-326 -223.182H-223.6V-36.9955H-326V-223.182Z" fill="#40A677"/>
<path d="M-326 -36.9955H-223.6V56.0977H-326V-36.9955Z" fill="#028C6A"/>
<path d="M-326 -36.9955H-223.6L-326 56.0977V-36.9955Z" fill="#7BC5AE"/>
<path d="M-223.6 -36.9955H-121.2L-121.2 56.0977H-223.6V-36.9955Z" fill="#D1EDE1"/>
<path d="M-326 56.0977H-223.6V149.191H-326V56.0977Z" fill="#003E19"/>
<path d="M-223.6 149.191H-326L-223.6 56.0977V149.191Z" fill="#028C6A"/>
<path d="M-223.6 56.0977H-121.2V149.191H-223.6V56.0977Z" fill="#028C6A"/>
<path d="M-121.2 149.191H-172.4V56.0976L-121.2 56.0977V149.191Z" fill="#7BC5AE"/>
<path d="M-326 149.191H-121.2L-121.2 335.377H-326V149.191Z" fill="#003E19"/>
<path d="M-326 335.377C-326 283.963 -280.154 242.284 -223.6 242.284C-167.046 242.284 -121.2 283.963 -121.2 335.377L-223.6 335.377L-326 335.377Z" fill="#D1EDE1"/>
<path d="M-326 335.377L-223.6 335.377V428.47H-326V335.377Z" fill="#40A677"/>
<path d="M-223.6 428.47H-326L-223.6 335.377V428.47Z" fill="#003E19"/>
<path d="M-223.6 335.377L-121.2 335.377L-121.2 428.47H-223.6V335.377Z" fill="#40A677"/>
<path d="M-121.2 428.47H-223.6L-121.2 335.377L-121.2 428.47Z" fill="#7BC5AE"/>
<path d="M-326 428.47H-223.6V521.563H-326V428.47Z" fill="#028C6A"/>
<path d="M-326 521.563V428.47L-223.6 521.563H-326Z" fill="#D1EDE1"/>
<path d="M-223.6 428.47H-121.2V521.563H-223.6V428.47Z" fill="#7BC5AE"/>
<path d="M-121.2 428.47V475.017H-223.6L-223.6 428.47H-121.2Z" fill="#40A677"/>
<path d="M-121.2 -409.368H-18.8002V-316.275H-121.2V-409.368Z" fill="#003E19"/>
<path d="M-121.2 -409.368H-18.8002L-121.2 -316.275V-409.368Z" fill="#D1EDE1"/>
<path d="M-18.8002 -409.368H83.6002V-316.275H-18.8002V-409.368Z" fill="#7BC5AE"/>
<path d="M-121.2 -316.275H-18.8002V-223.182H-121.2V-316.275Z" fill="#003E19"/>
<path d="M-121.2 -223.182L-121.2 -269.728H-18.8002V-223.182H-121.2Z" fill="#7BC5AE"/>
<path d="M-18.8002 -316.275H83.6002V-223.182H-18.8002V-316.275Z" fill="#028C6A"/>
<path d="M83.6002 -223.182C55.3232 -223.182 32.3999 -244.022 32.3999 -269.729C32.3999 -295.435 55.3232 -316.275 83.6002 -316.275V-223.182Z" fill="#003E19"/>
<path d="M-121.2 -223.182H-18.8002V-130.089H-121.2L-121.2 -223.182Z" fill="#003E19"/>
<path d="M-18.8002 -223.182C-18.8002 -197.475 -41.7232 -176.635 -70.0002 -176.635C-98.2772 -176.635 -121.2 -197.475 -121.2 -223.182H-18.8002Z" fill="#40A677"/>
<path d="M-18.8002 -223.182H83.6002V-130.089H-18.8002V-223.182Z" fill="#028C6A"/>
<path d="M-18.8002 -223.182L32.4002 -223.182V-130.089H-18.8002V-223.182Z" fill="#D1EDE1"/>
<path d="M-121.2 -130.089H-18.8002V-36.9956L-121.2 -36.9955L-121.2 -130.089Z" fill="#028C6A"/>
<path d="M-121.2 -36.9955L-121.2 -130.089L-18.8002 -36.9956L-121.2 -36.9955Z" fill="#7BC5AE"/>
<path d="M-18.8002 -130.089H83.6002V-36.9956H-18.8002V-130.089Z" fill="#003E19"/>
<path d="M-18.8002 -36.9956L-18.7998 -83.5422H83.6002V-36.9956H-18.8002Z" fill="#D1EDE1"/>
<path d="M-121.2 -36.9955L-18.8002 -36.9956V56.0977H-121.2L-121.2 -36.9955Z" fill="#003E19"/>
<path d="M-18.8002 56.0977C-47.0772 56.0977 -70 35.2581 -70 9.55112C-70 -16.1558 -47.0772 -36.9956 -18.8002 -36.9956V56.0977Z" fill="#40A677"/>
<path d="M-18.8002 -36.9956H83.6002V56.0977H-18.8002V-36.9956Z" fill="#40A677"/>
<path d="M83.6002 56.0977H32.3999V-36.9955L83.6002 -36.9956V56.0977Z" fill="#003E19"/>
<path d="M-121.2 56.0977H-18.8002V149.191H-121.2V56.0977Z" fill="#028C6A"/>
<path d="M-18.8002 56.0977C-18.8002 81.8047 -41.7232 102.644 -70.0002 102.644C-98.2772 102.644 -121.2 81.8047 -121.2 56.0977H-18.8002Z" fill="#D1EDE1"/>
<path d="M-18.8002 56.0977H83.6002V149.191H-18.8002V56.0977Z" fill="#028C6A"/>
<path d="M-121.2 149.191H-18.8002V242.284H-121.2L-121.2 149.191Z" fill="#40A677"/>
<path d="M-18.8002 149.191C-18.8002 174.898 -41.7232 195.737 -70.0002 195.737C-98.2772 195.737 -121.2 174.898 -121.2 149.191H-18.8002Z" fill="#028C6A"/>
<path d="M-18.8002 149.191H83.6002V242.284H-18.8002V149.191Z" fill="#003E19"/>
<path d="M-121.2 242.284H-18.8002V335.377L-121.2 335.377L-121.2 242.284Z" fill="#40A677"/>
<path d="M-18.8002 335.377H-70V242.284L-18.8002 242.284V335.377Z" fill="#028C6A"/>
<path d="M-18.8002 242.284H83.6002V335.377H-18.8002V242.284Z" fill="#028C6A"/>
<path d="M-121.2 335.377L83.6002 335.377L83.5998 521.563L-121.2 521.563L-121.2 335.377Z" fill="#7BC5AE"/>
<path d="M-121.2 521.563V428.47L83.5998 428.47V521.563L-121.2 521.563Z" fill="#D1EDE1"/>
<path d="M83.6002 -409.368H186V-316.275H83.6002V-409.368Z" fill="#40A677"/>
<path d="M186 -409.368H288.4V-316.275H186V-409.368Z" fill="#D1EDE1"/>
<path d="M288.4 -409.368V-362.822H186L186 -409.368H288.4Z" fill="#003E19"/>
<path d="M83.6002 -316.275H186V-223.182H83.6002V-316.275Z" fill="#7BC5AE"/>
<path d="M186 -316.275H288.4V-223.182H186V-316.275Z" fill="#7BC5AE"/>
<path d="M83.6002 -223.182H186V-130.089H83.6002V-223.182Z" fill="#40A677"/>
<path d="M186 -223.182V-130.089L83.6002 -223.182H186Z" fill="#028C6A"/>
<path d="M186 -223.182H288.4V-130.089H186V-223.182Z" fill="#D1EDE1"/>
<path d="M288.4 -130.089H237.2V-223.182L288.4 -223.182V-130.089Z" fill="#7BC5AE"/>
<path d="M83.6002 -130.089H186V-36.9956H83.6002V-130.089Z" fill="#7BC5AE"/>
<path d="M186 -36.9956C157.723 -36.9956 134.8 -57.8352 134.8 -83.5422C134.8 -109.249 157.723 -130.089 186 -130.089V-36.9956Z" fill="#40A677"/>
<path d="M186 -130.089H288.4V-36.9956H186V-130.089Z" fill="#D1EDE1"/>
<path d="M83.6002 -36.9956H186V56.0977H83.6002V-36.9956Z" fill="#7BC5AE"/>
<path d="M83.6002 -36.9956C111.877 -36.9956 134.8 -16.1558 134.8 9.55112C134.8 35.2581 111.877 56.0977 83.6002 56.0977V-36.9956Z" fill="#028C6A"/>
<path d="M186 -36.9956H288.4V56.0977H186V-36.9956Z" fill="#7BC5AE"/>
<path d="M83.6002 56.0977H186V149.191H83.6002V56.0977Z" fill="#028C6A"/>
<path d="M186 56.0977H288.4V149.191H186V56.0977Z" fill="#D1EDE1"/>
<path d="M288.4 149.191H186L288.4 56.0977V149.191Z" fill="#40A677"/>
<path d="M83.6002 149.191H288.4L288.4 335.377L83.6002 335.377V149.191Z" fill="#003E19"/>
<path d="M83.6002 335.377V149.191L288.4 335.377L83.6002 335.377Z" fill="#D1EDE1"/>
<path d="M83.6002 335.377L288.4 335.377V521.563H83.5998L83.6002 335.377Z" fill="#D1EDE1"/>
<path d="M288.4 -409.368H493.2V-223.182L288.4 -223.182V-409.368Z" fill="#028C6A"/>
<path d="M493.2 -223.182L288.4 -223.182L493.2 -409.368V-223.182Z" fill="#40A677"/>
<path d="M288.4 -223.182L493.2 -223.182V-36.9955L288.4 -36.9956V-223.182Z" fill="#40A677"/>
<path d="M288.4 -36.9956V-223.182L493.2 -36.9955L288.4 -36.9956Z" fill="#028C6A"/>
<path d="M288.4 -36.9956L493.2 -36.9955V149.191H288.4V-36.9956Z" fill="#028C6A"/>
<path d="M493.2 149.191H390.8V-36.9955L493.2 -36.9955V149.191Z" fill="#40A677"/>
<path d="M288.4 149.191H493.2V335.377H288.4L288.4 149.191Z" fill="#D1EDE1"/>
<path d="M288.4 335.377H493.2V521.563H288.4V335.377Z" fill="#028C6A"/>
<path d="M288.4 335.377H493.2L288.4 521.563V335.377Z" fill="#003E19"/>
<path d="M493.2 -409.368H595.6V-316.275H493.2L493.2 -409.368Z" fill="#028C6A"/>
<path d="M595.6 -409.368V-316.275L493.2 -409.368H595.6Z" fill="#7BC5AE"/>
<path d="M595.6 -409.368H698V-316.275H595.6V-409.368Z" fill="#D1EDE1"/>
<path d="M493.2 -316.275H595.6V-223.182L493.2 -223.182L493.2 -316.275Z" fill="#D1EDE1"/>
<path d="M595.6 -316.275C595.6 -290.568 572.677 -269.729 544.4 -269.729C516.123 -269.729 493.2 -290.568 493.2 -316.275H595.6Z" fill="#003E19"/>
<path d="M595.6 -316.275H698V-223.182H595.6V-316.275Z" fill="#003E19"/>
<path d="M595.6 -316.275C623.877 -316.275 646.8 -295.435 646.8 -269.729C646.8 -244.022 623.877 -223.182 595.6 -223.182V-316.275Z" fill="#7BC5AE"/>
<path d="M493.2 -223.182L595.6 -223.182V-130.089H493.2L493.2 -223.182Z" fill="#7BC5AE"/>
<path d="M493.2 -130.089L493.2 -223.182L595.6 -130.089H493.2Z" fill="#028C6A"/>
<path d="M595.6 -223.182H698V-130.089H595.6V-223.182Z" fill="#7BC5AE"/>
<path d="M595.6 -223.182C623.877 -223.182 646.8 -202.342 646.8 -176.635C646.8 -150.928 623.877 -130.089 595.6 -130.089V-223.182Z" fill="#D1EDE1"/>
<path d="M493.2 -130.089H595.6V-36.9956L493.2 -36.9955L493.2 -130.089Z" fill="#028C6A"/>
<path d="M595.6 -130.089V-83.5422H493.2V-130.089H595.6Z" fill="#40A677"/>
<path d="M595.6 -130.089H698V-36.9956H595.6V-130.089Z" fill="#003E19"/>
<path d="M493.2 -36.9955L595.6 -36.9956V56.0977H493.2L493.2 -36.9955Z" fill="#028C6A"/>
<path d="M493.2 -36.9955L544.4 -36.9955V56.0977H493.2L493.2 -36.9955Z" fill="#40A677"/>
<path d="M595.6 -36.9956H698V56.0977H595.6V-36.9956Z" fill="#028C6A"/>
<path d="M698 -36.9956C698 -11.2886 675.077 9.55112 646.8 9.55112C618.523 9.55112 595.6 -11.2886 595.6 -36.9956H698Z" fill="#003E19"/>
<path d="M493.2 56.0977H595.6V149.191H493.2L493.2 56.0977Z" fill="#028C6A"/>
<path d="M493.2 56.0977H595.6L493.2 149.191L493.2 56.0977Z" fill="#D1EDE1"/>
<path d="M595.6 56.0977H698V149.191H595.6V56.0977Z" fill="#D1EDE1"/>
<path d="M493.2 149.191H698L698 335.377H493.2V149.191Z" fill="#028C6A"/>
<path d="M493.2 335.377C493.2 283.963 539.046 242.284 595.6 242.284C652.154 242.284 698 283.963 698 335.377L595.6 335.377L493.2 335.377Z" fill="#40A677"/>
<path d="M493.2 335.377L595.6 335.377V428.47H493.2L493.2 335.377Z" fill="#003E19"/>
<path d="M493.2 335.377C521.477 335.377 544.4 356.217 544.4 381.924C544.4 407.631 521.477 428.47 493.2 428.47L493.2 335.377Z" fill="#D1EDE1"/>
<path d="M595.6 335.377L698 335.377L698 428.47H595.6V335.377Z" fill="#003E19"/>
<path d="M698 335.377L698 381.924H595.6L595.6 335.377L698 335.377Z" fill="#7BC5AE"/>
<path d="M493.2 428.47H595.6V521.563L493.2 521.563L493.2 428.47Z" fill="#D1EDE1"/>
<path d="M493.2 428.47C521.477 428.47 544.4 449.31 544.4 475.017C544.4 500.724 521.477 521.563 493.2 521.563L493.2 428.47Z" fill="#003E19"/>
<path d="M595.6 428.47H698V521.563H595.6V428.47Z" fill="#003E19"/>
<path d="M698 428.47V521.563L595.6 428.47H698Z" fill="#7BC5AE"/>
<path d="M-326 -409.368H-223.6V-316.275H-326V-409.368Z" fill="#D1EDE1"/>
<path d="M-223.6 -409.368H-121.2V-316.275H-223.6V-409.368Z" fill="#7BC5AE"/>
<path d="M-121.2 -316.275H-223.6L-121.2 -409.368V-316.275Z" fill="#D1EDE1"/>
<path d="M-326 -316.275H-223.6V-223.182H-326V-316.275Z" fill="#D1EDE1"/>
<path d="M-223.6 -223.182H-326L-223.6 -316.275V-223.182Z" fill="#003E19"/>
<path d="M-223.6 -316.275H-121.2V-223.182H-223.6V-316.275Z" fill="#7BC5AE"/>
<path d="M-223.6 -316.275H-121.2L-223.6 -223.182V-316.275Z" fill="#028C6A"/>
<path d="M-326 -223.182H-121.2L-121.2 -36.9955H-326V-223.182Z" fill="#028C6A"/>
<path d="M-326 -36.9955H-223.6V56.0977H-326V-36.9955Z" fill="#7BC5AE"/>
<path d="M-326 56.0977V-36.9955L-223.6 56.0977H-326Z" fill="#40A677"/>
<path d="M-223.6 -36.9955H-121.2L-121.2 56.0977H-223.6V-36.9955Z" fill="#003E19"/>
<path d="M-121.2 -36.9955L-121.2 9.55112H-223.6L-223.6 -36.9955H-121.2Z" fill="#40A677"/>
<path d="M-326 56.0977H-223.6V149.191H-326V56.0977Z" fill="#028C6A"/>
<path d="M-223.6 56.0977H-121.2V149.191H-223.6V56.0977Z" fill="#7BC5AE"/>
<path d="M-326 149.191H-223.6V242.284L-326 242.284V149.191Z" fill="#D1EDE1"/>
<path d="M-326 242.284V149.191L-223.6 242.284L-326 242.284Z" fill="#003E19"/>
<path d="M-223.6 149.191H-121.2L-121.2 242.284L-223.6 242.284V149.191Z" fill="#003E19"/>
<path d="M-223.6 149.191H-121.2L-223.6 242.284V149.191Z" fill="#D1EDE1"/>
<path d="M-326 242.284L-223.6 242.284V335.377L-326 335.377V242.284Z" fill="#D1EDE1"/>
<path d="M-223.6 242.284L-121.2 242.284L-121.2 335.377L-223.6 335.377V242.284Z" fill="#40A677"/>
<path d="M-121.2 335.377L-172.4 335.377V242.284L-121.2 242.284L-121.2 335.377Z" fill="#D1EDE1"/>
<path d="M-326 335.377H-121.2L-121.2 521.563H-326V335.377Z" fill="#7BC5AE"/>
<path d="M-121.2 335.377L-121.2 521.563L-326 335.377H-121.2Z" fill="#028C6A"/>
<path d="M-121.2 -409.368H83.6002V-223.182H-121.2V-409.368Z" fill="#003E19"/>
<path d="M83.6002 -223.182H-121.2L83.6002 -409.368V-223.182Z" fill="#028C6A"/>
<path d="M-121.2 -223.182H83.6002V-36.9956L-121.2 -36.9955L-121.2 -223.182Z" fill="#7BC5AE"/>
<path d="M-121.2 -223.182C-64.6461 -223.182 -18.8002 -181.503 -18.8002 -130.089C-18.8002 -78.6748 -64.646 -36.9955 -121.2 -36.9955L-121.2 -130.089L-121.2 -223.182Z" fill="#003E19"/>
<path d="M-121.2 -36.9955L83.6002 -36.9956V149.191H-121.2L-121.2 -36.9955Z" fill="#003E19"/>
<path d="M83.6002 -36.9956V56.0977H-121.2L-121.2 -36.9955L83.6002 -36.9956Z" fill="#40A677"/>
<path d="M-121.2 149.191H83.6002V335.377L-121.2 335.377L-121.2 149.191Z" fill="#40A677"/>
<path d="M-121.2 335.377C-121.2 283.963 -75.3542 242.284 -18.8002 242.284C37.7538 242.284 83.6002 283.963 83.6002 335.377H-18.8002L-121.2 335.377Z" fill="#028C6A"/>
<path d="M-121.2 335.377L83.6002 335.377L83.5998 521.563L-121.2 521.563L-121.2 335.377Z" fill="#7BC5AE"/>
<path d="M83.6002 -409.368H186V-316.275H83.6002V-409.368Z" fill="#7BC5AE"/>
<path d="M186 -409.368V-316.275L83.6002 -409.368H186Z" fill="#028C6A"/>
<path d="M186 -409.368H288.4V-316.275H186V-409.368Z" fill="#003E19"/>
<path d="M288.4 -409.368C288.4 -383.661 265.477 -362.822 237.2 -362.822C208.923 -362.822 186 -383.661 186 -409.368H288.4Z" fill="#D1EDE1"/>
<path d="M83.6002 -316.275H186V-223.182H83.6002V-316.275Z" fill="#D1EDE1"/>
<path d="M186 -316.275H288.4V-223.182H186V-316.275Z" fill="#D1EDE1"/>
<path d="M288.4 -316.275C288.4 -290.568 265.477 -269.729 237.2 -269.729C208.923 -269.729 186 -290.568 186 -316.275H288.4Z" fill="#40A677"/>
<path d="M83.6002 -223.182H288.4V-36.9956H83.6002V-223.182Z" fill="#003E19"/>
<path d="M288.4 -223.182C288.4 -171.768 242.554 -130.089 186 -130.089C129.446 -130.089 83.6002 -171.768 83.6002 -223.182H186H288.4Z" fill="#40A677"/>
<path d="M83.6002 -36.9956H186V56.0977H83.6002V-36.9956Z" fill="#003E19"/>
<path d="M83.6002 -36.9956C111.877 -36.9956 134.8 -16.1558 134.8 9.55112C134.8 35.2581 111.877 56.0977 83.6002 56.0977V-36.9956Z" fill="#7BC5AE"/>
<path d="M186 -36.9956H288.4V56.0977H186V-36.9956Z" fill="#003E19"/>
<path d="M186 56.0977L186 9.55106H288.4V56.0977H186Z" fill="#40A677"/>
<path d="M83.6002 56.0977H186V149.191H83.6002V56.0977Z" fill="#D1EDE1"/>
<path d="M186 149.191C157.723 149.191 134.8 128.351 134.8 102.644C134.8 76.9372 157.723 56.0977 186 56.0977V149.191Z" fill="#7BC5AE"/>
<path d="M186 56.0977H288.4V149.191H186V56.0977Z" fill="#7BC5AE"/>
<path d="M288.4 149.191H186L288.4 56.0977V149.191Z" fill="#003E19"/>
<path d="M83.6002 149.191H288.4L288.4 335.377L83.6002 335.377V149.191Z" fill="#40A677"/>
<path d="M83.6002 149.191H186V335.377L83.6002 335.377V149.191Z" fill="#003E19"/>
<path d="M83.6002 335.377L288.4 335.377V521.563H83.5998L83.6002 335.377Z" fill="#003E19"/>
<path d="M288.4 -409.368H390.8V-316.275H288.4V-409.368Z" fill="#7BC5AE"/>
<path d="M390.8 -409.368V-316.275L288.4 -409.368H390.8Z" fill="#D1EDE1"/>
<path d="M390.8 -409.368H493.2L493.2 -316.275H390.8V-409.368Z" fill="#028C6A"/>
<path d="M493.2 -409.368L493.2 -316.275L390.8 -409.368H493.2Z" fill="#D1EDE1"/>
<path d="M288.4 -316.275H390.8V-223.182H288.4V-316.275Z" fill="#7BC5AE"/>
<path d="M288.4 -316.275H390.8L288.4 -223.182V-316.275Z" fill="#028C6A"/>
<path d="M390.8 -316.275H493.2L493.2 -223.182L390.8 -223.182V-316.275Z" fill="#D1EDE1"/>
<path d="M493.2 -316.275L493.2 -269.729H390.8L390.8 -316.275H493.2Z" fill="#028C6A"/>
<path d="M288.4 -223.182L493.2 -223.182V-36.9955L288.4 -36.9956V-223.182Z" fill="#40A677"/>
<path d="M288.4 -36.9956L493.2 -36.9955V149.191H288.4V-36.9956Z" fill="#D1EDE1"/>
<path d="M288.4 149.191H390.8L390.8 242.284H288.4L288.4 149.191Z" fill="#028C6A"/>
<path d="M390.8 149.191C390.8 174.898 367.877 195.737 339.6 195.737C311.323 195.737 288.4 174.898 288.4 149.191H390.8Z" fill="#40A677"/>
<path d="M390.8 149.191H493.2L493.2 242.284H390.8L390.8 149.191Z" fill="#7BC5AE"/>
<path d="M493.2 149.191L493.2 195.737H390.8V149.191H493.2Z" fill="#003E19"/>
<path d="M288.4 242.284H390.8V335.377L288.4 335.377L288.4 242.284Z" fill="#7BC5AE"/>
<path d="M390.8 242.284C390.8 267.991 367.877 288.831 339.6 288.831C311.323 288.831 288.4 267.991 288.4 242.284H390.8Z" fill="#D1EDE1"/>
<path d="M390.8 242.284H493.2L493.2 335.377L390.8 335.377V242.284Z" fill="#028C6A"/>
<path d="M288.4 335.377H493.2V521.563H288.4V335.377Z" fill="#7BC5AE"/>
<path d="M288.4 335.377C344.954 335.377 390.8 377.056 390.8 428.47C390.8 479.884 344.954 521.563 288.4 521.563V335.377Z" fill="#40A677"/>
<path d="M493.2 -409.368H698V-223.182L493.2 -223.182V-409.368Z" fill="#7BC5AE"/>
<path d="M698 -409.368V-223.182L493.2 -409.368H698Z" fill="#40A677"/>
<path d="M493.2 -223.182L698 -223.182V-36.9956L493.2 -36.9955V-223.182Z" fill="#028C6A"/>
<path d="M493.2 -36.9955C493.2 -88.4094 539.046 -130.089 595.6 -130.089C652.154 -130.089 698 -88.4095 698 -36.9956H595.6L493.2 -36.9955Z" fill="#D1EDE1"/>
<path d="M493.2 -36.9955L595.6 -36.9956V56.0977H493.2L493.2 -36.9955Z" fill="#028C6A"/>
<path d="M595.6 -36.9956V56.0977L493.2 -36.9955L595.6 -36.9956Z" fill="#D1EDE1"/>
<path d="M595.6 -36.9956H698V56.0977H595.6V-36.9956Z" fill="#7BC5AE"/>
<path d="M698 56.0977C669.723 56.0977 646.8 35.2581 646.8 9.55112C646.8 -16.1558 669.723 -36.9956 698 -36.9956V56.0977Z" fill="#D1EDE1"/>
<path d="M493.2 56.0977H595.6V149.191H493.2L493.2 56.0977Z" fill="#40A677"/>
<path d="M595.6 56.0977H698V149.191H595.6V56.0977Z" fill="#D1EDE1"/>
<path d="M698 149.191C669.723 149.191 646.8 128.351 646.8 102.644C646.8 76.9372 669.723 56.0977 698 56.0977V149.191Z" fill="#40A677"/>
<path d="M493.2 149.191H698L698 335.377H493.2V149.191Z" fill="#7BC5AE"/>
<path d="M493.2 149.191H698L493.2 335.377V149.191Z" fill="#003E19"/>
<path d="M493.2 335.377H698L698 521.563L493.2 521.563V335.377Z" fill="#7BC5AE"/>
<path d="M493.2 335.377C549.754 335.377 595.6 377.056 595.6 428.47C595.6 479.884 549.754 521.563 493.2 521.563L493.2 428.47L493.2 335.377Z" fill="#D1EDE1"/>
</g>
</g>
<defs>
<linearGradient id="paint0_linear_98_681" x1="-185.801" y1="235.381" x2="354.301" y2="287.262" gradientUnits="userSpaceOnUse">
<stop stop-color="#A8EDEA"/>
<stop offset="1" stop-color="#753A88"/>
</linearGradient>
<clipPath id="clip0_98_681">
<rect width="360" height="800" fill="white"/>
</clipPath>
</defs>
</svg>
