<svg width="92" height="91" viewBox="0 0 92 91" fill="none" xmlns="http://www.w3.org/2000/svg">
<path d="M50.147 17.3177C50.147 17.3177 43.9882 30.9165 27.7012 27.8012C11.4142 24.686 1.6013 46.603 16.9993 54.5945C32.3973 62.5859 21.7261 71.7662 31.9955 76.4555C43.6674 81.7849 48.0199 63.9637 56.6187 65.6189C75.5965 69.272 87.3358 63.0069 82.145 54.5758C73.0332 39.7761 66.4172 40.321 69.1058 30.7637C71.7944 21.2064 56.6108 6.53444 50.147 17.3177Z" fill="#006E63" fill-opacity="0.7"/>
<path d="M47.1741 48.3551C45.743 51.0532 45.382 52.4872 41.041 55.1645C41.0073 55.1861 40.982 55.2183 40.9693 55.2559C40.2757 57.3711 39.1018 59.3031 37.5363 60.9055C37.5153 60.9269 37.5004 60.9535 37.4934 60.9824C37.4864 61.0114 37.4875 61.0417 37.4965 61.0701C37.9824 62.6608 38.5083 65.5287 37.0452 67.8795C34.8946 71.3405 33.3018 69.2508 33.6335 68.4672C33.9175 67.7959 36.3443 66.3541 35.784 62.7522C35.7793 62.7234 35.7672 62.6963 35.7487 62.6734C35.7302 62.6506 35.7061 62.6328 35.6786 62.6217C35.6512 62.6107 35.6213 62.6068 35.5918 62.6105C35.5624 62.6141 35.5344 62.6251 35.5106 62.6425C33.7516 63.8984 31.7328 64.7573 29.5978 65.1579C29.5741 65.1618 29.5515 65.1705 29.5315 65.1836C29.5115 65.1967 29.4945 65.2138 29.4817 65.2338C29.4689 65.2538 29.4606 65.2762 29.4572 65.2996C29.4539 65.323 29.4557 65.3469 29.4624 65.3695C30.0067 67.2867 30.2642 70.2828 27.9915 73.0383C26.7782 74.4748 25.1692 72.3748 26.7782 70.9436C27.7764 70.0581 27.6995 67.5115 27.2322 65.5499C27.2233 65.5118 27.2012 65.478 27.1697 65.4541C27.1382 65.4303 27.0993 65.418 27.0596 65.4193C26.9667 65.4219 26.871 65.4219 26.7782 65.4219C23.4942 65.4267 20.3015 64.3591 17.7007 62.3865C17.6769 62.3682 17.6486 62.3564 17.6188 62.3521C17.5889 62.3477 17.5584 62.3512 17.5303 62.362C17.5021 62.3728 17.4774 62.3906 17.4584 62.4137C17.4393 62.4368 17.4268 62.4643 17.4219 62.4936C16.7979 66.5473 19.2752 67.95 19.6282 68.9896C20.0211 70.1519 19.1184 71.1862 18.006 70.8937C17.9818 70.8866 17.9593 70.8751 17.9396 70.8597C14.3128 68.1799 14.6288 62.5641 15.027 59.8608C15.0307 59.8387 15.0295 59.816 15.0235 59.7944C15.0176 59.7728 15.007 59.7527 14.9925 59.7354C12.9643 57.1678 11.8663 54.0072 11.8728 50.7555C11.8728 44.7924 15.4916 39.6598 20.6876 37.3692C20.6879 37.3692 20.6882 37.3691 20.6886 37.369C20.6889 37.3689 20.6892 37.3687 20.6894 37.3684C20.6897 37.3682 20.6899 37.3679 20.69 37.3676C20.6902 37.3673 20.6902 37.3669 20.6902 37.3666C21.4893 36.3713 22.4638 34.9636 22.6125 33.9763C22.6174 33.9428 22.6323 33.9116 22.6554 33.8865C22.6784 33.8614 22.7085 33.8437 22.7419 33.8356C22.7752 33.8274 22.8103 33.8293 22.8426 33.8408C22.8748 33.8524 22.9029 33.8732 22.9231 33.9005C23.3054 34.4072 23.8975 35.3736 23.7674 36.3923C23.7621 36.4262 23.7595 36.4602 23.7541 36.4941C23.7435 36.5516 23.7303 36.6065 23.717 36.6639C23.7037 36.7084 23.6931 36.7527 23.6772 36.7972C23.8628 36.6447 24.04 36.4825 24.2079 36.3113C24.5982 35.9169 25.092 35.324 25.3044 34.6893C25.3145 34.6554 25.3349 34.6255 25.363 34.6035C25.3911 34.5816 25.4254 34.5687 25.4612 34.5668C25.497 34.5648 25.5325 34.5737 25.5629 34.5925C25.5933 34.6112 25.6171 34.6387 25.6309 34.6712C25.7689 35.0055 25.931 35.4731 25.9867 35.9511C25.9915 35.9939 26.0124 36.0335 26.0453 36.062C26.0782 36.0905 26.1207 36.1059 26.1646 36.1051C26.369 36.0973 26.5735 36.0921 26.7779 36.0921C35.0111 36.0921 41.6859 42.6586 41.6859 50.7557C41.6859 50.9412 41.6832 51.1239 41.6752 51.3068C41.6741 51.3347 41.6798 51.3624 41.692 51.3877C41.7042 51.4129 41.7225 51.4348 41.7452 51.4515C41.768 51.4683 41.7945 51.4793 41.8226 51.4836C41.8506 51.488 41.8794 51.4856 41.9062 51.4765C42.793 51.1709 43.9108 50.4344 44.5851 48.6817C45.8463 45.4168 45.9791 44.5026 45.5808 41.9559C45.1826 39.4092 47.1076 39.54 47.5057 40.3888C47.9037 41.2375 48.767 45.3513 47.1741 48.3551Z" fill="#BDFFD5"/>
<path d="M20.9552 52.0418C20.9045 52.0418 20.8551 52.0252 20.8149 51.9947C20.7747 51.9641 20.746 51.9214 20.7331 51.8731C20.633 51.4429 20.6114 50.9986 20.6696 50.561C20.8003 49.61 21.3264 48.9109 22.191 48.5394C22.756 48.2966 23.2901 48.2825 23.7784 48.4979C24.7792 48.9392 25.2053 50.1904 25.223 50.2435C25.2401 50.2999 25.2341 50.3608 25.2063 50.413C25.1785 50.4652 25.1311 50.5047 25.0742 50.523C25.0172 50.5414 24.9553 50.5371 24.9015 50.5112C24.8476 50.4853 24.8063 50.4397 24.7861 50.3842C24.7825 50.3733 24.4035 49.2679 23.5889 48.91C23.2243 48.7498 22.8159 48.7646 22.3752 48.954C21.6598 49.2616 21.2399 49.8181 21.1274 50.6082C21.0759 50.9917 21.0931 51.3811 21.1782 51.7587C21.1935 51.8168 21.1848 51.8785 21.1539 51.9302C21.1231 51.982 21.0726 52.0195 21.0136 52.0347C20.9945 52.0395 20.9749 52.0419 20.9552 52.0418Z" fill="black"/>
<path d="M27.8868 49.9705C27.8386 49.9705 27.7917 49.9556 27.7526 49.9279C27.7135 49.9002 27.6842 49.8611 27.6689 49.8161C27.5406 49.3951 27.4898 48.9549 27.519 48.5163C27.5868 47.5628 28.0658 46.8345 28.9042 46.41C29.4531 46.1322 29.986 46.0843 30.4882 46.2684C31.5137 46.6439 32.0206 47.8574 32.0416 47.9088C32.0638 47.9643 32.0627 48.0262 32.0387 48.0809C32.0147 48.1357 31.9697 48.1789 31.9135 48.2011C31.8573 48.2234 31.7944 48.223 31.7385 48.1999C31.6826 48.1768 31.6383 48.133 31.6151 48.0779C31.6105 48.0673 31.1608 46.9962 30.326 46.6918C29.9506 46.5548 29.5431 46.5954 29.1147 46.8123C28.4212 47.1634 28.039 47.7427 27.9788 48.5343C27.9528 48.9182 27.9956 49.3036 28.1052 49.673C28.1166 49.707 28.1197 49.7432 28.1141 49.7786C28.1086 49.814 28.0946 49.8476 28.0733 49.8766C28.052 49.9056 28.024 49.9293 27.9916 49.9456C27.9592 49.9619 27.9233 49.9705 27.8869 49.9705H27.8868Z" fill="black"/>
<path d="M27.3018 54.7027C25.7368 54.7027 24.5435 53.678 24.4838 53.626C24.4612 53.6062 24.4428 53.5823 24.4296 53.5556C24.4164 53.5289 24.4087 53.4998 24.4069 53.4702C24.4051 53.4405 24.4093 53.4108 24.4192 53.3828C24.429 53.3547 24.4444 53.3288 24.4645 53.3066C24.4845 53.2844 24.5088 53.2663 24.536 53.2533C24.5632 53.2403 24.5927 53.2327 24.6228 53.231C24.653 53.2292 24.6832 53.2333 24.7117 53.243C24.7402 53.2528 24.7665 53.2679 24.7891 53.2876C24.8048 53.3012 26.3806 54.6486 28.1548 54.1284C29.9207 53.6107 30.405 51.4048 30.4098 51.3826C30.4227 51.3245 30.4583 51.2736 30.5091 51.2412C30.5598 51.2087 30.6215 51.1972 30.6808 51.2092C30.7401 51.2212 30.7922 51.2558 30.8257 51.3053C30.8593 51.3548 30.8717 51.4154 30.8602 51.4738C30.7509 51.9308 30.5796 52.3711 30.3511 52.7832C29.8462 53.6988 29.1324 54.3139 28.2862 54.562C27.9668 54.6556 27.6351 54.703 27.3018 54.7027V54.7027Z" fill="black"/>
<path d="M76.8682 44.6343C76.8485 45.1254 76.7977 45.6149 76.7162 46.0999C75.6077 52.7711 69.2149 57.293 62.4337 56.2023C55.6551 55.1122 51.056 48.8227 52.1646 42.1514C52.2353 41.7261 52.3287 41.3099 52.4392 40.904C47.4098 37.5439 47.7036 31.0645 48.6677 30.3462C49.6414 29.6188 50.7044 30.2317 50.5934 32.2438C50.4791 35.1659 52.3077 37.5824 53.322 38.6349C55.6966 33.9776 60.9447 31.1639 66.4472 32.0488C71.7873 32.9076 75.7709 36.9915 76.6831 41.9445C77.6785 41.5885 79.4365 40.5611 80.8607 37.6406C81.0596 37.0586 81.1146 36.6307 81.1251 36.373C81.1322 36.1323 81.2278 35.9023 81.3941 35.7255C81.7056 35.4051 82.2571 35.065 82.9694 35.5872C83.1314 35.7063 83.2619 35.862 83.3502 36.041C83.4384 36.2201 83.4816 36.4173 83.4763 36.6162C83.4317 38.1946 82.1479 42.0348 76.8682 44.6343Z" fill="#70FFB5"/>
<path d="M69.4705 46.7982C69.1566 48.6877 66.5151 49.835 63.5726 49.3618C60.6274 48.8882 58.4948 46.973 58.8087 45.0836C58.8685 44.7317 59.0083 44.3977 59.2176 44.1064C59.2748 44.0275 59.3606 43.9732 59.4572 43.9547C59.5539 43.9362 59.6541 43.9549 59.7372 44.0069C60.7915 44.6562 62.4602 45.2288 64.3855 45.5385C66.1574 45.8235 67.7971 45.8277 68.9904 45.605C69.0876 45.5867 69.1882 45.6058 69.2714 45.6585C69.3546 45.7112 69.414 45.7933 69.4374 45.8879C69.5092 46.1862 69.5205 46.4956 69.4705 46.7982Z" fill="black"/>
<path d="M63.8871 43.049C63.8537 43.049 63.8207 43.0419 63.7904 43.0282C63.7602 43.0144 63.7333 42.9943 63.7116 42.9693C63.69 42.9443 63.6742 42.915 63.6652 42.8834C63.6563 42.8518 63.6545 42.8186 63.6598 42.7862C63.737 42.3218 63.6235 41.8461 63.3442 41.464C63.0649 41.0819 62.6428 40.8246 62.1706 40.7486C61.6985 40.6727 61.215 40.7844 60.8266 41.0592C60.4382 41.3339 60.1766 41.7492 60.0994 42.2137C60.0896 42.2729 60.0563 42.3259 60.0067 42.3609C59.9572 42.3959 59.8956 42.4101 59.8354 42.4004C59.7752 42.3908 59.7214 42.358 59.6858 42.3092C59.6502 42.2605 59.6358 42.1999 59.6456 42.1407C59.7424 41.5578 60.0707 41.0366 60.5582 40.6918C61.0456 40.347 61.6523 40.2068 62.2448 40.3021C62.8373 40.3974 63.3671 40.7203 63.7176 41.1999C64.0681 41.6794 64.2105 42.2763 64.1137 42.8592C64.1049 42.9121 64.0773 42.9603 64.0358 42.995C63.9943 43.0298 63.9416 43.0489 63.8871 43.049V43.049Z" fill="black"/>
<path d="M69.403 43.9361C69.3696 43.9361 69.3367 43.929 69.3064 43.9152C69.2762 43.9014 69.2493 43.8813 69.2277 43.8564C69.2061 43.8314 69.1903 43.8021 69.1813 43.7705C69.1724 43.7389 69.1705 43.7058 69.1758 43.6734C69.2511 43.2097 69.1365 42.7357 68.8572 42.355C68.5778 41.9743 68.1565 41.718 67.6855 41.6422C67.2145 41.5665 66.7322 41.6775 66.3442 41.9509C65.9562 42.2243 65.6942 42.6378 65.6154 43.1008C65.6107 43.1302 65.6 43.1584 65.5841 43.1838C65.5683 43.2091 65.5475 43.2311 65.5229 43.2485C65.4984 43.266 65.4706 43.2784 65.4411 43.2853C65.4117 43.2921 65.3812 43.2931 65.3513 43.2883C65.3214 43.2835 65.2928 43.273 65.2671 43.2573C65.2414 43.2416 65.2191 43.221 65.2015 43.1968C65.1839 43.1727 65.1713 43.1453 65.1644 43.1163C65.1576 43.0873 65.1566 43.0572 65.1616 43.0279C65.2601 42.4465 65.5889 41.9272 66.0759 41.5838C66.5629 41.2405 67.1684 41.1011 67.7597 41.1962C68.351 41.2913 68.8798 41.6131 69.2304 42.0911C69.5809 42.5692 69.7245 43.1644 69.6297 43.7464C69.6209 43.7993 69.5932 43.8475 69.5517 43.8822C69.5102 43.917 69.4575 43.9361 69.403 43.9361Z" fill="black"/>
</svg>
