<svg width="273" height="56" viewBox="0 0 273 56" fill="none" xmlns="http://www.w3.org/2000/svg">
<rect width="273" height="56" rx="8" fill="#028C6A"/>
<line x1="55.8068" y1="4.06692e-08" x2="55.8068" y2="56" stroke="white" stroke-width="2"/>
<path d="M37.6182 23H34.3938V21C34.3938 19.89 33.4372 19 32.2442 19H25.7954C24.6023 19 23.6457 19.89 23.6457 21V23H20.4213C19.2283 23 18.2717 23.89 18.2717 25V36C18.2717 37.11 19.2283 38 20.4213 38H37.6182C38.8112 38 39.7678 37.11 39.7678 36V25C39.7678 23.89 38.8112 23 37.6182 23ZM25.7954 21H32.2442V23H25.7954V21ZM37.6182 36H20.4213V34H37.6182V36ZM37.6182 31H20.4213V26C20.4213 25.45 20.905 25 21.4961 25H23.6457V26C23.6457 26.55 24.1294 27 24.7205 27C25.3117 27 25.7954 26.55 25.7954 26V25H32.2442V26C32.2442 26.55 32.7278 27 33.319 27C33.9101 27 34.3938 26.55 34.3938 26V25H36.5434C37.1345 25 37.6182 25.45 37.6182 26V31Z" fill="white"/>
<g filter="url(#filter0_d_98_685)">
<path d="M82.5641 22.832V34H80.3241V26.736L77.3321 34H75.6361L72.6281 26.736V34H70.3881V22.832H72.9321L76.4841 31.136L80.0361 22.832H82.5641ZM84.2027 29.536C84.2027 28.64 84.3787 27.8453 84.7307 27.152C85.0933 26.4587 85.5787 25.9253 86.1867 25.552C86.8053 25.1787 87.4933 24.992 88.2507 24.992C88.912 24.992 89.488 25.1253 89.9787 25.392C90.48 25.6587 90.88 25.9947 91.1787 26.4V25.136H93.4347V34H91.1787V32.704C90.8907 33.12 90.4907 33.4667 89.9787 33.744C89.4773 34.0107 88.896 34.144 88.2347 34.144C87.488 34.144 86.8053 33.952 86.1867 33.568C85.5787 33.184 85.0933 32.6453 84.7307 31.952C84.3787 31.248 84.2027 30.4427 84.2027 29.536ZM91.1787 29.568C91.1787 29.024 91.072 28.56 90.8587 28.176C90.6453 27.7813 90.3573 27.4827 89.9947 27.28C89.632 27.0667 89.2427 26.96 88.8267 26.96C88.4107 26.96 88.0267 27.0613 87.6747 27.264C87.3227 27.4667 87.0347 27.7653 86.8107 28.16C86.5973 28.544 86.4907 29.0027 86.4907 29.536C86.4907 30.0693 86.5973 30.5387 86.8107 30.944C87.0347 31.3387 87.3227 31.6427 87.6747 31.856C88.0373 32.0693 88.4213 32.176 88.8267 32.176C89.2427 32.176 89.632 32.0747 89.9947 31.872C90.3573 31.6587 90.6453 31.36 90.8587 30.976C91.072 30.5813 91.1787 30.112 91.1787 29.568ZM99.0144 34.144C98.2891 34.144 97.6384 34.016 97.0624 33.76C96.4864 33.4933 96.0278 33.136 95.6864 32.688C95.3558 32.24 95.1744 31.744 95.1424 31.2H97.3984C97.4411 31.5413 97.6064 31.824 97.8944 32.048C98.1931 32.272 98.5611 32.384 98.9984 32.384C99.4251 32.384 99.7558 32.2987 99.9904 32.128C100.236 31.9573 100.358 31.7387 100.358 31.472C100.358 31.184 100.209 30.9707 99.9104 30.832C99.6224 30.6827 99.1584 30.5227 98.5184 30.352C97.8571 30.192 97.3131 30.0267 96.8864 29.856C96.4704 29.6853 96.1078 29.424 95.7984 29.072C95.4998 28.72 95.3504 28.2453 95.3504 27.648C95.3504 27.1573 95.4891 26.7093 95.7664 26.304C96.0544 25.8987 96.4598 25.5787 96.9824 25.344C97.5158 25.1093 98.1398 24.992 98.8544 24.992C99.9104 24.992 100.753 25.2587 101.382 25.792C102.012 26.3147 102.358 27.024 102.422 27.92H100.278C100.246 27.568 100.097 27.2907 99.8304 27.088C99.5744 26.8747 99.2278 26.768 98.7904 26.768C98.3851 26.768 98.0704 26.8427 97.8464 26.992C97.6331 27.1413 97.5264 27.3493 97.5264 27.616C97.5264 27.9147 97.6758 28.144 97.9744 28.304C98.2731 28.4533 98.7371 28.608 99.3664 28.768C100.006 28.928 100.534 29.0933 100.95 29.264C101.366 29.4347 101.724 29.7013 102.022 30.064C102.332 30.416 102.492 30.8853 102.502 31.472C102.502 31.984 102.358 32.4427 102.07 32.848C101.793 33.2533 101.388 33.5733 100.854 33.808C100.332 34.032 99.7184 34.144 99.0144 34.144ZM112.709 25.136V34H110.453V32.88C110.165 33.264 109.787 33.568 109.317 33.792C108.859 34.0053 108.357 34.112 107.813 34.112C107.12 34.112 106.507 33.968 105.973 33.68C105.44 33.3813 105.019 32.9493 104.709 32.384C104.411 31.808 104.261 31.1253 104.261 30.336V25.136H106.501V30.016C106.501 30.72 106.677 31.264 107.029 31.648C107.381 32.0213 107.861 32.208 108.469 32.208C109.088 32.208 109.573 32.0213 109.925 31.648C110.277 31.264 110.453 30.72 110.453 30.016V25.136H112.709ZM120.167 34L117.159 30.224V34H114.919V22.16H117.159V28.896L120.135 25.136H123.047L119.143 29.584L123.079 34H120.167ZM131.468 34.144C130.742 34.144 130.092 34.016 129.516 33.76C128.94 33.4933 128.481 33.136 128.14 32.688C127.809 32.24 127.628 31.744 127.596 31.2H129.852C129.894 31.5413 130.06 31.824 130.348 32.048C130.646 32.272 131.014 32.384 131.452 32.384C131.878 32.384 132.209 32.2987 132.444 32.128C132.689 31.9573 132.812 31.7387 132.812 31.472C132.812 31.184 132.662 30.9707 132.364 30.832C132.076 30.6827 131.612 30.5227 130.972 30.352C130.31 30.192 129.766 30.0267 129.34 29.856C128.924 29.6853 128.561 29.424 128.252 29.072C127.953 28.72 127.804 28.2453 127.804 27.648C127.804 27.1573 127.942 26.7093 128.22 26.304C128.508 25.8987 128.913 25.5787 129.436 25.344C129.969 25.1093 130.593 24.992 131.308 24.992C132.364 24.992 133.206 25.2587 133.836 25.792C134.465 26.3147 134.812 27.024 134.876 27.92H132.732C132.7 27.568 132.55 27.2907 132.284 27.088C132.028 26.8747 131.681 26.768 131.244 26.768C130.838 26.768 130.524 26.8427 130.3 26.992C130.086 27.1413 129.98 27.3493 129.98 27.616C129.98 27.9147 130.129 28.144 130.428 28.304C130.726 28.4533 131.19 28.608 131.82 28.768C132.46 28.928 132.988 29.0933 133.404 29.264C133.82 29.4347 134.177 29.7013 134.476 30.064C134.785 30.416 134.945 30.8853 134.956 31.472C134.956 31.984 134.812 32.4427 134.524 32.848C134.246 33.2533 133.841 33.5733 133.308 33.808C132.785 34.032 132.172 34.144 131.468 34.144ZM145.034 29.376C145.034 29.696 145.013 29.984 144.97 30.24H138.49C138.544 30.88 138.768 31.3813 139.162 31.744C139.557 32.1067 140.042 32.288 140.618 32.288C141.45 32.288 142.042 31.9307 142.394 31.216H144.81C144.554 32.0693 144.064 32.7733 143.338 33.328C142.613 33.872 141.722 34.144 140.666 34.144C139.813 34.144 139.045 33.9573 138.362 33.584C137.69 33.2 137.162 32.6613 136.778 31.968C136.405 31.2747 136.218 30.4747 136.218 29.568C136.218 28.6507 136.405 27.8453 136.778 27.152C137.152 26.4587 137.674 25.9253 138.346 25.552C139.018 25.1787 139.792 24.992 140.666 24.992C141.509 24.992 142.261 25.1733 142.922 25.536C143.594 25.8987 144.112 26.416 144.474 27.088C144.848 27.7493 145.034 28.512 145.034 29.376ZM142.714 28.736C142.704 28.16 142.496 27.7013 142.09 27.36C141.685 27.008 141.189 26.832 140.602 26.832C140.048 26.832 139.578 27.0027 139.194 27.344C138.821 27.6747 138.592 28.1387 138.506 28.736H142.714ZM148.909 26.432C149.197 26.0053 149.592 25.6587 150.093 25.392C150.605 25.1253 151.187 24.992 151.837 24.992C152.595 24.992 153.277 25.1787 153.885 25.552C154.504 25.9253 154.989 26.4587 155.341 27.152C155.704 27.8347 155.885 28.6293 155.885 29.536C155.885 30.4427 155.704 31.248 155.341 31.952C154.989 32.6453 154.504 33.184 153.885 33.568C153.277 33.952 152.595 34.144 151.837 34.144C151.176 34.144 150.595 34.016 150.093 33.76C149.603 33.4933 149.208 33.152 148.909 32.736V34H146.669V22.16H148.909V26.432ZM153.597 29.536C153.597 29.0027 153.485 28.544 153.261 28.16C153.048 27.7653 152.76 27.4667 152.397 27.264C152.045 27.0613 151.661 26.96 151.245 26.96C150.84 26.96 150.456 27.0667 150.093 27.28C149.741 27.4827 149.453 27.7813 149.229 28.176C149.016 28.5707 148.909 29.0347 148.909 29.568C148.909 30.1013 149.016 30.5653 149.229 30.96C149.453 31.3547 149.741 31.6587 150.093 31.872C150.456 32.0747 150.84 32.176 151.245 32.176C151.661 32.176 152.045 32.0693 152.397 31.856C152.76 31.6427 153.048 31.3387 153.261 30.944C153.485 30.5493 153.597 30.08 153.597 29.536ZM156.937 29.536C156.937 28.64 157.113 27.8453 157.465 27.152C157.828 26.4587 158.313 25.9253 158.921 25.552C159.54 25.1787 160.228 24.992 160.985 24.992C161.646 24.992 162.222 25.1253 162.713 25.392C163.214 25.6587 163.614 25.9947 163.913 26.4V25.136H166.169V34H163.913V32.704C163.625 33.12 163.225 33.4667 162.713 33.744C162.212 34.0107 161.63 34.144 160.969 34.144C160.222 34.144 159.54 33.952 158.921 33.568C158.313 33.184 157.828 32.6453 157.465 31.952C157.113 31.248 156.937 30.4427 156.937 29.536ZM163.913 29.568C163.913 29.024 163.806 28.56 163.593 28.176C163.38 27.7813 163.092 27.4827 162.729 27.28C162.366 27.0667 161.977 26.96 161.561 26.96C161.145 26.96 160.761 27.0613 160.409 27.264C160.057 27.4667 159.769 27.7653 159.545 28.16C159.332 28.544 159.225 29.0027 159.225 29.536C159.225 30.0693 159.332 30.5387 159.545 30.944C159.769 31.3387 160.057 31.6427 160.409 31.856C160.772 32.0693 161.156 32.176 161.561 32.176C161.977 32.176 162.366 32.0747 162.729 31.872C163.092 31.6587 163.38 31.36 163.593 30.976C163.806 30.5813 163.913 30.112 163.913 29.568ZM171.829 24.992C172.49 24.992 173.071 25.1253 173.573 25.392C174.074 25.648 174.469 25.984 174.757 26.4V25.136H177.013V34.064C177.013 34.8853 176.847 35.616 176.517 36.256C176.186 36.9067 175.69 37.4187 175.029 37.792C174.367 38.176 173.567 38.368 172.629 38.368C171.37 38.368 170.335 38.0747 169.525 37.488C168.725 36.9013 168.271 36.1013 168.165 35.088H170.389C170.506 35.4933 170.757 35.8133 171.141 36.048C171.535 36.2933 172.01 36.416 172.565 36.416C173.215 36.416 173.743 36.2187 174.149 35.824C174.554 35.44 174.757 34.8533 174.757 34.064V32.688C174.469 33.104 174.069 33.4507 173.557 33.728C173.055 34.0053 172.479 34.144 171.829 34.144C171.082 34.144 170.399 33.952 169.781 33.568C169.162 33.184 168.671 32.6453 168.309 31.952C167.957 31.248 167.781 30.4427 167.781 29.536C167.781 28.64 167.957 27.8453 168.309 27.152C168.671 26.4587 169.157 25.9253 169.765 25.552C170.383 25.1787 171.071 24.992 171.829 24.992ZM174.757 29.568C174.757 29.024 174.65 28.56 174.437 28.176C174.223 27.7813 173.935 27.4827 173.573 27.28C173.21 27.0667 172.821 26.96 172.405 26.96C171.989 26.96 171.605 27.0613 171.253 27.264C170.901 27.4667 170.613 27.7653 170.389 28.16C170.175 28.544 170.069 29.0027 170.069 29.536C170.069 30.0693 170.175 30.5387 170.389 30.944C170.613 31.3387 170.901 31.6427 171.253 31.856C171.615 32.0693 171.999 32.176 172.405 32.176C172.821 32.176 173.21 32.0747 173.573 31.872C173.935 31.6587 174.223 31.36 174.437 30.976C174.65 30.5813 174.757 30.112 174.757 29.568ZM178.625 29.536C178.625 28.64 178.801 27.8453 179.153 27.152C179.515 26.4587 180.001 25.9253 180.609 25.552C181.227 25.1787 181.915 24.992 182.673 24.992C183.334 24.992 183.91 25.1253 184.401 25.392C184.902 25.6587 185.302 25.9947 185.601 26.4V25.136H187.857V34H185.601V32.704C185.313 33.12 184.913 33.4667 184.401 33.744C183.899 34.0107 183.318 34.144 182.657 34.144C181.91 34.144 181.227 33.952 180.609 33.568C180.001 33.184 179.515 32.6453 179.153 31.952C178.801 31.248 178.625 30.4427 178.625 29.536ZM185.601 29.568C185.601 29.024 185.494 28.56 185.281 28.176C185.067 27.7813 184.779 27.4827 184.417 27.28C184.054 27.0667 183.665 26.96 183.249 26.96C182.833 26.96 182.449 27.0613 182.097 27.264C181.745 27.4667 181.457 27.7653 181.233 28.16C181.019 28.544 180.913 29.0027 180.913 29.536C180.913 30.0693 181.019 30.5387 181.233 30.944C181.457 31.3387 181.745 31.6427 182.097 31.856C182.459 32.0693 182.843 32.176 183.249 32.176C183.665 32.176 184.054 32.0747 184.417 31.872C184.779 31.6587 185.067 31.36 185.281 30.976C185.494 30.5813 185.601 30.112 185.601 29.568ZM191.18 24.08C190.786 24.08 190.455 23.9573 190.188 23.712C189.932 23.456 189.804 23.1413 189.804 22.768C189.804 22.3947 189.932 22.0853 190.188 21.84C190.455 21.584 190.786 21.456 191.18 21.456C191.575 21.456 191.9 21.584 192.156 21.84C192.423 22.0853 192.556 22.3947 192.556 22.768C192.556 23.1413 192.423 23.456 192.156 23.712C191.9 23.9573 191.575 24.08 191.18 24.08ZM192.284 25.136V34H190.044V25.136H192.284ZM204.614 34L200.55 29.024V34H198.31V22.832H200.55V27.84L204.614 22.832H207.318L202.71 28.368L207.446 34H204.614ZM208.343 29.536C208.343 28.64 208.519 27.8453 208.871 27.152C209.234 26.4587 209.719 25.9253 210.327 25.552C210.946 25.1787 211.634 24.992 212.391 24.992C213.053 24.992 213.629 25.1253 214.119 25.392C214.621 25.6587 215.021 25.9947 215.319 26.4V25.136H217.575V34H215.319V32.704C215.031 33.12 214.631 33.4667 214.119 33.744C213.618 34.0107 213.037 34.144 212.375 34.144C211.629 34.144 210.946 33.952 210.327 33.568C209.719 33.184 209.234 32.6453 208.871 31.952C208.519 31.248 208.343 30.4427 208.343 29.536ZM215.319 29.568C215.319 29.024 215.213 28.56 214.999 28.176C214.786 27.7813 214.498 27.4827 214.135 27.28C213.773 27.0667 213.383 26.96 212.967 26.96C212.551 26.96 212.167 27.0613 211.815 27.264C211.463 27.4667 211.175 27.7653 210.951 28.16C210.738 28.544 210.631 29.0027 210.631 29.536C210.631 30.0693 210.738 30.5387 210.951 30.944C211.175 31.3387 211.463 31.6427 211.815 31.856C212.178 32.0693 212.562 32.176 212.967 32.176C213.383 32.176 213.773 32.0747 214.135 31.872C214.498 31.6587 214.786 31.36 214.999 30.976C215.213 30.5813 215.319 30.112 215.319 29.568ZM223.155 34.144C222.43 34.144 221.779 34.016 221.203 33.76C220.627 33.4933 220.168 33.136 219.827 32.688C219.496 32.24 219.315 31.744 219.283 31.2H221.539C221.582 31.5413 221.747 31.824 222.035 32.048C222.334 32.272 222.702 32.384 223.139 32.384C223.566 32.384 223.896 32.2987 224.131 32.128C224.376 31.9573 224.499 31.7387 224.499 31.472C224.499 31.184 224.35 30.9707 224.051 30.832C223.763 30.6827 223.299 30.5227 222.659 30.352C221.998 30.192 221.454 30.0267 221.027 29.856C220.611 29.6853 220.248 29.424 219.939 29.072C219.64 28.72 219.491 28.2453 219.491 27.648C219.491 27.1573 219.63 26.7093 219.907 26.304C220.195 25.8987 220.6 25.5787 221.123 25.344C221.656 25.1093 222.28 24.992 222.995 24.992C224.051 24.992 224.894 25.2587 225.523 25.792C226.152 26.3147 226.499 27.024 226.563 27.92H224.419C224.387 27.568 224.238 27.2907 223.971 27.088C223.715 26.8747 223.368 26.768 222.931 26.768C222.526 26.768 222.211 26.8427 221.987 26.992C221.774 27.1413 221.667 27.3493 221.667 27.616C221.667 27.9147 221.816 28.144 222.115 28.304C222.414 28.4533 222.878 28.608 223.507 28.768C224.147 28.928 224.675 29.0933 225.091 29.264C225.507 29.4347 225.864 29.7013 226.163 30.064C226.472 30.416 226.632 30.8853 226.643 31.472C226.643 31.984 226.499 32.4427 226.211 32.848C225.934 33.2533 225.528 33.5733 224.995 33.808C224.472 34.032 223.859 34.144 223.155 34.144ZM229.618 24.08C229.223 24.08 228.892 23.9573 228.626 23.712C228.37 23.456 228.242 23.1413 228.242 22.768C228.242 22.3947 228.37 22.0853 228.626 21.84C228.892 21.584 229.223 21.456 229.618 21.456C230.012 21.456 230.338 21.584 230.594 21.84C230.86 22.0853 230.994 22.3947 230.994 22.768C230.994 23.1413 230.86 23.456 230.594 23.712C230.338 23.9573 230.012 24.08 229.618 24.08ZM230.722 25.136V34H228.482V25.136H230.722ZM235.175 26.512C235.463 26.0427 235.836 25.6747 236.295 25.408C236.764 25.1413 237.298 25.008 237.895 25.008V27.36H237.303C236.599 27.36 236.066 27.5253 235.703 27.856C235.351 28.1867 235.175 28.7627 235.175 29.584V34H232.935V25.136H235.175V26.512Z" fill="white"/>
</g>
<path d="M250.724 34.7575C251.104 35.125 251.716 35.125 252.096 34.7575L258.541 28.525C258.844 28.2325 258.844 27.76 258.541 27.4675L252.096 21.235C251.716 20.8675 251.104 20.8675 250.724 21.235C250.344 21.6025 250.344 22.195 250.724 22.5625L256.339 28L250.716 33.4375C250.344 33.7975 250.344 34.3975 250.724 34.7575V34.7575Z" fill="white"/>
<defs>
<filter id="filter0_d_98_685" x="69.3881" y="21.4561" width="169.507" height="19.912" filterUnits="userSpaceOnUse" color-interpolation-filters="sRGB">
<feFlood flood-opacity="0" result="BackgroundImageFix"/>
<feColorMatrix in="SourceAlpha" type="matrix" values="0 0 0 0 0 0 0 0 0 0 0 0 0 0 0 0 0 0 127 0" result="hardAlpha"/>
<feOffset dy="2"/>
<feGaussianBlur stdDeviation="0.5"/>
<feComposite in2="hardAlpha" operator="out"/>
<feColorMatrix type="matrix" values="0 0 0 0 0 0 0 0 0 0 0 0 0 0 0 0 0 0 0.1 0"/>
<feBlend mode="normal" in2="BackgroundImageFix" result="effect1_dropShadow_98_685"/>
<feBlend mode="normal" in="SourceGraphic" in2="effect1_dropShadow_98_685" result="shape"/>
</filter>
</defs>
</svg>
