<svg width="360" height="68" viewBox="0 0 360 68" fill="none" xmlns="http://www.w3.org/2000/svg">
<g filter="url(#filter0_d_189_1078)">
<rect width="360" height="64" fill="white"/>
<circle cx="149.5" cy="32" r="21" fill="white"/>
<path d="M180.08 39.6C179.013 39.6 178.047 39.4 177.18 39C176.327 38.6 175.587 38.06 174.96 37.38C174.347 36.6867 173.873 35.9133 173.54 35.06C173.207 34.1933 173.04 33.3 173.04 32.38C173.04 31.4333 173.213 30.5333 173.56 29.68C173.92 28.8133 174.413 28.0467 175.04 27.38C175.68 26.7133 176.433 26.1867 177.3 25.8C178.167 25.4 179.113 25.2 180.14 25.2C181.193 25.2 182.147 25.4067 183 25.82C183.867 26.2333 184.607 26.7867 185.22 27.48C185.847 28.1733 186.327 28.9533 186.66 29.82C186.993 30.6733 187.16 31.5467 187.16 32.44C187.16 33.3867 186.987 34.2867 186.64 35.14C186.293 35.9933 185.8 36.76 185.16 37.44C184.52 38.1067 183.767 38.6333 182.9 39.02C182.047 39.4067 181.107 39.6 180.08 39.6ZM180.1 36.68C180.727 36.68 181.273 36.56 181.74 36.32C182.207 36.0667 182.593 35.74 182.9 35.34C183.207 34.9267 183.433 34.4667 183.58 33.96C183.74 33.44 183.82 32.9133 183.82 32.38C183.82 31.8333 183.74 31.3067 183.58 30.8C183.42 30.28 183.18 29.82 182.86 29.42C182.54 29.02 182.147 28.7067 181.68 28.48C181.213 28.24 180.687 28.12 180.1 28.12C179.473 28.12 178.927 28.2467 178.46 28.5C178.007 28.74 177.62 29.0667 177.3 29.48C176.993 29.88 176.76 30.34 176.6 30.86C176.453 31.3667 176.38 31.8867 176.38 32.42C176.38 32.9667 176.46 33.4933 176.62 34C176.78 34.5067 177.013 34.9667 177.32 35.38C177.64 35.78 178.033 36.1 178.5 36.34C178.967 36.5667 179.5 36.68 180.1 36.68ZM179.22 33.9H182.3L187.36 39.5H184.28L179.22 33.9ZM189.036 39.5V25.3H195.436C196.102 25.3 196.716 25.44 197.276 25.72C197.849 25.9867 198.342 26.3533 198.756 26.82C199.169 27.2733 199.489 27.7867 199.716 28.36C199.956 28.9333 200.076 29.5133 200.076 30.1C200.076 30.6867 199.982 31.2467 199.796 31.78C199.609 32.3 199.342 32.7733 198.996 33.2C198.649 33.6133 198.236 33.9533 197.756 34.22L200.876 39.5H197.256L194.536 34.92H192.316V39.5H189.036ZM192.316 32.06H195.316C195.582 32.06 195.816 31.98 196.016 31.82C196.229 31.6467 196.402 31.4133 196.536 31.12C196.669 30.8267 196.736 30.4867 196.736 30.1C196.736 29.7133 196.656 29.38 196.496 29.1C196.349 28.8067 196.162 28.58 195.936 28.42C195.709 28.26 195.469 28.18 195.216 28.18H192.316V32.06ZM202.077 39.5V29H205.277V39.5H202.077ZM202.077 27.8V24.9H205.277V27.8H202.077ZM217.587 39.5H214.387V33.6C214.387 32.9067 214.254 32.4067 213.987 32.1C213.734 31.78 213.394 31.62 212.967 31.62C212.674 31.62 212.374 31.7 212.067 31.86C211.761 32.02 211.481 32.24 211.227 32.52C210.987 32.8 210.801 33.12 210.667 33.48V39.5H207.467V29H210.347V30.76C210.614 30.3467 210.947 29.9933 211.347 29.7C211.747 29.4067 212.207 29.1867 212.727 29.04C213.247 28.88 213.814 28.8 214.427 28.8C215.107 28.8 215.654 28.9267 216.067 29.18C216.494 29.42 216.814 29.74 217.027 30.14C217.254 30.54 217.401 30.9733 217.467 31.44C217.547 31.8933 217.587 32.34 217.587 32.78V39.5Z" fill="#121212"/>
</g>
<circle cx="150" cy="32" r="16" fill="url(#paint0_linear_189_1078)"/>
<rect x="141.642" y="31.2834" width="16.9552" height="1.43284" rx="0.716418" fill="white"/>
<path d="M145.174 23.6418C144.237 23.6418 143.339 24.014 142.676 24.6764C142.014 25.3389 141.642 26.2373 141.642 27.1742V28.5871C141.642 28.7745 141.716 28.9542 141.849 29.0867C141.981 29.2192 142.161 29.2936 142.348 29.2936C142.536 29.2936 142.715 29.2192 142.848 29.0867C142.98 28.9542 143.055 28.7745 143.055 28.5871V27.1742C143.055 26.6121 143.278 26.073 143.676 25.6755C144.073 25.2781 144.612 25.0548 145.174 25.0548H146.587C146.774 25.0548 146.954 24.9803 147.087 24.8479C147.219 24.7154 147.294 24.5357 147.294 24.3483C147.294 24.1609 147.219 23.9813 147.087 23.8488C146.954 23.7163 146.774 23.6418 146.587 23.6418H145.174ZM153.652 23.6418C153.464 23.6418 153.285 23.7163 153.152 23.8488C153.02 23.9813 152.945 24.1609 152.945 24.3483C152.945 24.5357 153.02 24.7154 153.152 24.8479C153.285 24.9803 153.464 25.0548 153.652 25.0548H155.065C155.627 25.0548 156.166 25.2781 156.563 25.6755C156.961 26.073 157.184 26.6121 157.184 27.1742V28.5871C157.184 28.7745 157.259 28.9542 157.391 29.0867C157.524 29.2192 157.703 29.2936 157.891 29.2936C158.078 29.2936 158.258 29.2192 158.39 29.0867C158.523 28.9542 158.597 28.7745 158.597 28.5871V27.1742C158.597 26.2373 158.225 25.3389 157.562 24.6764C156.9 24.014 156.002 23.6418 155.065 23.6418H153.652ZM143.055 35.6518C143.055 35.4644 142.98 35.2847 142.848 35.1522C142.715 35.0198 142.536 34.9453 142.348 34.9453C142.161 34.9453 141.981 35.0198 141.849 35.1522C141.716 35.2847 141.642 35.4644 141.642 35.6518V37.0647C141.642 38.0016 142.014 38.9 142.676 39.5625C143.339 40.2249 144.237 40.5971 145.174 40.5971H146.587C146.774 40.5971 146.954 40.5226 147.087 40.3902C147.219 40.2577 147.294 40.078 147.294 39.8906C147.294 39.7032 147.219 39.5235 147.087 39.3911C146.954 39.2586 146.774 39.1841 146.587 39.1841H145.174C144.612 39.1841 144.073 38.9608 143.676 38.5634C143.278 38.1659 143.055 37.6268 143.055 37.0647V35.6518ZM158.597 35.6518C158.597 35.4644 158.523 35.2847 158.39 35.1522C158.258 35.0198 158.078 34.9453 157.891 34.9453C157.703 34.9453 157.524 35.0198 157.391 35.1522C157.259 35.2847 157.184 35.4644 157.184 35.6518V37.0647C157.184 37.6268 156.961 38.1659 156.563 38.5634C156.166 38.9608 155.627 39.1841 155.065 39.1841H153.652C153.464 39.1841 153.285 39.2586 153.152 39.3911C153.02 39.5235 152.945 39.7032 152.945 39.8906C152.945 40.078 153.02 40.2577 153.152 40.3902C153.285 40.5226 153.464 40.5971 153.652 40.5971H155.065C156.002 40.5971 156.9 40.2249 157.562 39.5625C158.225 38.9 158.597 38.0016 158.597 37.0647V35.6518Z" fill="white"/>
<defs>
<filter id="filter0_d_189_1078" x="-2" y="0" width="364" height="68" filterUnits="userSpaceOnUse" color-interpolation-filters="sRGB">
<feFlood flood-opacity="0" result="BackgroundImageFix"/>
<feColorMatrix in="SourceAlpha" type="matrix" values="0 0 0 0 0 0 0 0 0 0 0 0 0 0 0 0 0 0 127 0" result="hardAlpha"/>
<feOffset dy="2"/>
<feGaussianBlur stdDeviation="1"/>
<feComposite in2="hardAlpha" operator="out"/>
<feColorMatrix type="matrix" values="0 0 0 0 0 0 0 0 0 0 0 0 0 0 0 0 0 0 0.15 0"/>
<feBlend mode="normal" in2="BackgroundImageFix" result="effect1_dropShadow_189_1078"/>
<feBlend mode="normal" in="SourceGraphic" in2="effect1_dropShadow_189_1078" result="shape"/>
</filter>
<linearGradient id="paint0_linear_189_1078" x1="134" y1="14.0351" x2="170.941" y2="19.7585" gradientUnits="userSpaceOnUse">
<stop stop-color="#21FF9A"/>
<stop offset="1" stop-color="#57B640"/>
</linearGradient>
</defs>
</svg>
