<svg width="360" height="68" viewBox="0 0 360 68" fill="none" xmlns="http://www.w3.org/2000/svg">
<g filter="url(#filter0_d_398_4005)">
<rect width="360" height="64" fill="white"/>
<circle cx="143" cy="32" r="21" fill="white"/>
<path d="M173.58 39.6C172.513 39.6 171.547 39.4 170.68 39C169.827 38.6 169.087 38.06 168.46 37.38C167.847 36.6867 167.373 35.9133 167.04 35.06C166.707 34.1933 166.54 33.3 166.54 32.38C166.54 31.4333 166.713 30.5333 167.06 29.68C167.42 28.8133 167.913 28.0467 168.54 27.38C169.18 26.7133 169.933 26.1867 170.8 25.8C171.667 25.4 172.613 25.2 173.64 25.2C174.693 25.2 175.647 25.4067 176.5 25.82C177.367 26.2333 178.107 26.7867 178.72 27.48C179.347 28.1733 179.827 28.9533 180.16 29.82C180.493 30.6733 180.66 31.5467 180.66 32.44C180.66 33.3867 180.487 34.2867 180.14 35.14C179.793 35.9933 179.3 36.76 178.66 37.44C178.02 38.1067 177.267 38.6333 176.4 39.02C175.547 39.4067 174.607 39.6 173.58 39.6ZM173.6 36.68C174.227 36.68 174.773 36.56 175.24 36.32C175.707 36.0667 176.093 35.74 176.4 35.34C176.707 34.9267 176.933 34.4667 177.08 33.96C177.24 33.44 177.32 32.9133 177.32 32.38C177.32 31.8333 177.24 31.3067 177.08 30.8C176.92 30.28 176.68 29.82 176.36 29.42C176.04 29.02 175.647 28.7067 175.18 28.48C174.713 28.24 174.187 28.12 173.6 28.12C172.973 28.12 172.427 28.2467 171.96 28.5C171.507 28.74 171.12 29.0667 170.8 29.48C170.493 29.88 170.26 30.34 170.1 30.86C169.953 31.3667 169.88 31.8867 169.88 32.42C169.88 32.9667 169.96 33.4933 170.12 34C170.28 34.5067 170.513 34.9667 170.82 35.38C171.14 35.78 171.533 36.1 172 36.34C172.467 36.5667 173 36.68 173.6 36.68ZM172.72 33.9H175.8L180.86 39.5H177.78L172.72 33.9ZM182.536 39.5V25.3H188.936C189.602 25.3 190.216 25.44 190.776 25.72C191.349 25.9867 191.842 26.3533 192.256 26.82C192.669 27.2733 192.989 27.7867 193.216 28.36C193.456 28.9333 193.576 29.5133 193.576 30.1C193.576 30.6867 193.482 31.2467 193.296 31.78C193.109 32.3 192.842 32.7733 192.496 33.2C192.149 33.6133 191.736 33.9533 191.256 34.22L194.376 39.5H190.756L188.036 34.92H185.816V39.5H182.536ZM185.816 32.06H188.816C189.082 32.06 189.316 31.98 189.516 31.82C189.729 31.6467 189.902 31.4133 190.036 31.12C190.169 30.8267 190.236 30.4867 190.236 30.1C190.236 29.7133 190.156 29.38 189.996 29.1C189.849 28.8067 189.662 28.58 189.436 28.42C189.209 28.26 188.969 28.18 188.716 28.18H185.816V32.06ZM200.343 39.7C199.449 39.7 198.656 39.56 197.963 39.28C197.269 38.9867 196.676 38.5933 196.183 38.1C195.703 37.6067 195.336 37.04 195.083 36.4C194.829 35.7467 194.703 35.0667 194.703 34.36C194.703 33.3467 194.923 32.4267 195.363 31.6C195.816 30.76 196.463 30.0867 197.303 29.58C198.143 29.06 199.156 28.8 200.343 28.8C201.529 28.8 202.536 29.0533 203.363 29.56C204.203 30.0667 204.843 30.7333 205.283 31.56C205.723 32.3733 205.943 33.26 205.943 34.22C205.943 34.4067 205.929 34.5933 205.903 34.78C205.889 34.9533 205.876 35.1067 205.863 35.24H198.103C198.143 35.7067 198.269 36.1 198.483 36.42C198.709 36.74 198.996 36.9867 199.343 37.16C199.689 37.32 200.056 37.4 200.443 37.4C200.923 37.4 201.369 37.2867 201.783 37.06C202.209 36.8333 202.503 36.5267 202.663 36.14L205.383 36.9C205.116 37.4467 204.736 37.9333 204.243 38.36C203.763 38.7733 203.189 39.1 202.523 39.34C201.869 39.58 201.143 39.7 200.343 39.7ZM198.023 33.28H202.583C202.529 32.84 202.403 32.46 202.203 32.14C202.003 31.8067 201.736 31.5533 201.403 31.38C201.069 31.1933 200.703 31.1 200.303 31.1C199.889 31.1 199.516 31.1933 199.183 31.38C198.863 31.5533 198.603 31.8067 198.403 32.14C198.203 32.46 198.076 32.84 198.023 33.28ZM212.413 39.7C211.52 39.7 210.726 39.56 210.033 39.28C209.34 38.9867 208.746 38.5933 208.253 38.1C207.773 37.6067 207.406 37.04 207.153 36.4C206.9 35.7467 206.773 35.0667 206.773 34.36C206.773 33.3467 206.993 32.4267 207.433 31.6C207.886 30.76 208.533 30.0867 209.373 29.58C210.213 29.06 211.226 28.8 212.413 28.8C213.6 28.8 214.606 29.0533 215.433 29.56C216.273 30.0667 216.913 30.7333 217.353 31.56C217.793 32.3733 218.013 33.26 218.013 34.22C218.013 34.4067 218 34.5933 217.973 34.78C217.96 34.9533 217.946 35.1067 217.933 35.24H210.173C210.213 35.7067 210.34 36.1 210.553 36.42C210.78 36.74 211.066 36.9867 211.413 37.16C211.76 37.32 212.126 37.4 212.513 37.4C212.993 37.4 213.44 37.2867 213.853 37.06C214.28 36.8333 214.573 36.5267 214.733 36.14L217.453 36.9C217.186 37.4467 216.806 37.9333 216.313 38.36C215.833 38.7733 215.26 39.1 214.593 39.34C213.94 39.58 213.213 39.7 212.413 39.7ZM210.093 33.28H214.653C214.6 32.84 214.473 32.46 214.273 32.14C214.073 31.8067 213.806 31.5533 213.473 31.38C213.14 31.1933 212.773 31.1 212.373 31.1C211.96 31.1 211.586 31.1933 211.253 31.38C210.933 31.5533 210.673 31.8067 210.473 32.14C210.273 32.46 210.146 32.84 210.093 33.28ZM219.423 24.9H222.623V35.76C222.623 36.2 222.703 36.5133 222.863 36.7C223.023 36.8867 223.25 36.98 223.543 36.98C223.743 36.98 223.943 36.9533 224.143 36.9C224.357 36.8333 224.543 36.76 224.703 36.68L225.123 39.08C224.723 39.2667 224.263 39.4133 223.743 39.52C223.223 39.6267 222.737 39.68 222.283 39.68C221.377 39.68 220.67 39.44 220.163 38.96C219.67 38.4667 219.423 37.7733 219.423 36.88V24.9Z" fill="#121212"/>
</g>
<rect x="126" y="12" width="40" height="40" rx="20" fill="white"/>
<path fill-rule="evenodd" clip-rule="evenodd" d="M135.031 35.2104C135.031 29.6876 139.508 25.2104 145.031 25.2104H146.936C152.459 25.2104 156.936 29.6876 156.936 35.2104V44.0479L154.18 41.5053L151.442 44.032L148.703 41.5053L145.966 44.0307L143.229 41.5053L140.493 44.0306L137.756 41.5053L135.031 44.0189V35.2104Z" fill="#00A677"/>
<rect x="140.093" y="30.2383" width="2.27979" height="3.73057" fill="white"/>
<rect x="149.627" y="30.2383" width="2.27979" height="3.73057" fill="white"/>
<path d="M146.222 21.1114C145.877 22.3321 146.054 23.5552 146.429 24.333C148.774 24.0276 149.652 23.6017 150.348 23.0169C151.147 22.3451 151.615 21.2385 151.68 20.4075C151.763 19.3413 151.603 18.539 151.422 18.02C150.497 18.02 149.168 18.2599 148.558 18.5597C147.515 19.0733 146.546 19.9681 146.222 21.1114Z" fill="#00A677"/>
<path d="M145.062 22.4458C145.261 23.1465 145.159 23.8486 144.944 24.295C143.598 24.1197 143.094 23.8752 142.694 23.5396C142.236 23.154 141.967 22.5188 141.93 22.0418C141.882 21.4298 141.974 20.9693 142.078 20.6715C142.609 20.6715 143.372 20.8092 143.721 20.9812C144.321 21.2761 144.877 21.7896 145.062 22.4458Z" fill="#00A677"/>
<defs>
<filter id="filter0_d_398_4005" x="-2" y="0" width="364" height="68" filterUnits="userSpaceOnUse" color-interpolation-filters="sRGB">
<feFlood flood-opacity="0" result="BackgroundImageFix"/>
<feColorMatrix in="SourceAlpha" type="matrix" values="0 0 0 0 0 0 0 0 0 0 0 0 0 0 0 0 0 0 127 0" result="hardAlpha"/>
<feOffset dy="2"/>
<feGaussianBlur stdDeviation="1"/>
<feComposite in2="hardAlpha" operator="out"/>
<feColorMatrix type="matrix" values="0 0 0 0 0 0 0 0 0 0 0 0 0 0 0 0 0 0 0.15 0"/>
<feBlend mode="normal" in2="BackgroundImageFix" result="effect1_dropShadow_398_4005"/>
<feBlend mode="normal" in="SourceGraphic" in2="effect1_dropShadow_398_4005" result="shape"/>
</filter>
</defs>
</svg>
