<svg width="65" height="65" viewBox="0 0 512 512" fill="none" xmlns="http://www.w3.org/2000/svg">
<circle cx="256" cy="256" r="256" fill="url(#paint0_linear_51_594)"/>
<rect x="122.27" y="244.539" width="271.284" height="22.9254" rx="8" fill="white"/>
<path d="M178.787 122.27C163.798 122.27 149.422 128.224 138.823 138.823C128.224 149.422 122.27 163.798 122.27 178.787V201.394C122.27 204.392 123.46 207.267 125.58 209.387C127.7 211.506 130.575 212.697 133.573 212.697C136.571 212.697 139.446 211.506 141.566 209.387C143.686 207.267 144.876 204.392 144.876 201.394V178.787C144.876 169.793 148.449 161.168 154.809 154.809C161.168 148.449 169.793 144.876 178.787 144.876H201.394C204.392 144.876 207.267 143.686 209.387 141.566C211.507 139.446 212.697 136.571 212.697 133.573C212.697 130.575 211.507 127.7 209.387 125.58C207.267 123.46 204.392 122.27 201.394 122.27H178.787ZM314.429 122.27C311.431 122.27 308.556 123.46 306.436 125.58C304.316 127.7 303.125 130.575 303.125 133.573C303.125 136.571 304.316 139.446 306.436 141.566C308.556 143.686 311.431 144.876 314.429 144.876H337.036C346.029 144.876 354.655 148.449 361.014 154.809C367.373 161.168 370.946 169.793 370.946 178.787V201.394C370.946 204.392 372.137 207.267 374.257 209.387C376.377 211.506 379.252 212.697 382.25 212.697C385.248 212.697 388.123 211.506 390.242 209.387C392.362 207.267 393.553 204.392 393.553 201.394V178.787C393.553 163.798 387.599 149.422 377 138.823C366.4 128.224 352.025 122.27 337.036 122.27H314.429ZM144.876 314.429C144.876 311.431 143.686 308.556 141.566 306.436C139.446 304.316 136.571 303.125 133.573 303.125C130.575 303.125 127.7 304.316 125.58 306.436C123.46 308.556 122.27 311.431 122.27 314.429V337.036C122.27 352.025 128.224 366.4 138.823 377C149.422 387.599 163.798 393.553 178.787 393.553H201.394C204.392 393.553 207.267 392.362 209.387 390.242C211.507 388.123 212.697 385.248 212.697 382.25C212.697 379.252 211.507 376.377 209.387 374.257C207.267 372.137 204.392 370.946 201.394 370.946H178.787C169.793 370.946 161.168 367.373 154.809 361.014C148.449 354.655 144.876 346.029 144.876 337.036V314.429ZM393.553 314.429C393.553 311.431 392.362 308.556 390.242 306.436C388.123 304.316 385.248 303.125 382.25 303.125C379.252 303.125 376.377 304.316 374.257 306.436C372.137 308.556 370.946 311.431 370.946 314.429V337.036C370.946 346.029 367.373 354.655 361.014 361.014C354.655 367.373 346.029 370.946 337.036 370.946H314.429C311.431 370.946 308.556 372.137 306.436 374.257C304.316 376.377 303.125 379.252 303.125 382.25C303.125 385.248 304.316 388.123 306.436 390.242C308.556 392.362 311.431 393.553 314.429 393.553H337.036C352.025 393.553 366.4 387.599 377 377C387.599 366.4 393.553 352.025 393.553 337.036V314.429Z" fill="white"/>
<defs>
<linearGradient id="paint0_linear_51_594" x1="-7.26043e-07" y1="-31.4386" x2="591.056" y2="60.1368" gradientUnits="userSpaceOnUse">
<stop stop-color="#21FF9A"/>
<stop offset="1" stop-color="#57B640"/>
</linearGradient>
</defs>
</svg>
