<svg width="360" height="160" viewBox="0 0 360 160" fill="none" xmlns="http://www.w3.org/2000/svg">
<g clip-path="url(#clip0_116_1640)">
<rect width="360" height="800" transform="translate(0 -640)" fill="white"/>
<path fill-rule="evenodd" clip-rule="evenodd" d="M136.131 64.46C136.411 64.46 136.639 64.6789 136.639 64.949C136.639 65.2094 136.427 65.4222 136.161 65.4371L136.131 65.4379H114.313C101.699 65.4379 92.7423 75.1013 94.1047 87.1293L94.1492 87.4945L98.2792 119.212C98.3141 119.48 98.1168 119.724 97.8386 119.758C97.5702 119.79 97.3246 119.615 97.2761 119.362L97.2715 119.334L93.1415 87.6161C91.4947 74.9637 100.772 64.6678 113.913 64.4631L114.313 64.46H136.131Z" fill="#2E186A"/>
<path fill-rule="evenodd" clip-rule="evenodd" d="M151.104 54.2298C151.318 54.1991 151.529 54.3025 151.629 54.4872L152.221 55.5785C152.242 55.6184 152.258 55.6609 152.268 55.7049L152.274 55.7381L152.985 60.6603C153.001 60.7726 152.976 60.8865 152.915 60.9827L152.896 61.011L150.187 64.6782C150.025 64.8983 149.708 64.9498 149.479 64.7933C149.259 64.6429 149.202 64.3548 149.342 64.1373L149.36 64.1115L151.951 60.6026L151.28 55.9568L150.896 55.2493L150.842 55.2575C144.244 56.2509 140.115 58.0641 138.223 60.5545L138.166 60.6317C136.521 62.8631 136.647 65.6651 138.362 68.968C138.512 69.2572 138.335 69.6046 138.005 69.6666C126.859 71.7629 117.788 80.7639 112.376 93.6873C107.5 105.331 106.403 118.587 109.561 127.095L110.074 128.49C111.159 131.428 111.817 132.855 112.797 134.123C114.056 135.753 115.617 136.579 117.77 136.598C118.051 136.601 118.276 136.822 118.273 137.092C118.271 137.362 118.041 137.579 117.761 137.576C115.276 137.554 113.424 136.573 111.982 134.707L111.9 134.599C110.914 133.293 110.244 131.851 109.205 129.056L108.626 127.481C108.618 127.462 108.611 127.443 108.604 127.424C105.355 118.669 106.471 105.171 111.434 93.3215C116.852 80.3832 125.907 71.247 137.121 68.8454L137.171 68.835L137.137 68.7627C135.594 65.4662 135.558 62.5436 137.281 60.143L137.337 60.0657C139.433 57.2221 143.95 55.2544 151.104 54.2298Z" fill="#2E186A"/>
<path fill-rule="evenodd" clip-rule="evenodd" d="M157.492 77.5806C157.492 77.548 157.492 77.5154 157.492 77.4828C158.288 77.5643 159.066 77.5643 159.828 76.9449C161.69 75.3965 162.35 74.9239 162.35 74.9239C162.35 74.9239 162.519 75.1195 162.824 75.4454C163.196 74.7935 163.569 74.1089 163.958 73.4244C155.918 67.4264 149.774 64.3949 149.774 64.3949L149.317 64.0852L146.371 67.5568C146.371 67.5568 151.178 70.7351 157.492 77.5806Z" fill="#FE7624"/>
<path fill-rule="evenodd" clip-rule="evenodd" d="M196.355 133.844C196.355 133.844 183.491 100.529 185.133 90.212C186.03 84.5727 184.625 78.1999 182.696 73.2614L179.006 73.4895L174.588 83.5296C174.876 83.5948 175.163 83.6599 175.451 83.6925C175.451 83.6925 175.282 84.752 174.859 87.1642C174.571 88.7778 175.062 88.957 175.434 90.0817C175.925 90.8314 176.297 91.6789 175.891 92.9991C175.756 93.4229 175.434 97.465 174.706 102.941C176.06 105.696 177.347 108.63 178.565 111.759C186.369 131.79 185.556 133.974 185.556 133.974L196.355 133.844Z" fill="#FE7624"/>
<path fill-rule="evenodd" clip-rule="evenodd" d="M180.133 55.3536C180.224 55.0981 180.513 54.962 180.778 55.0495C185.922 56.746 189.512 59.4255 191.854 62.9238C193.552 65.4594 194.456 68.0985 195.055 71.4335L195.079 71.5717L195.422 71.8234C211.81 83.9083 223.519 97.5347 231.3 111.832L231.537 112.27C234.462 117.706 236.666 122.967 238.249 127.939C239.362 131.435 240.054 134.408 240.426 136.753C240.468 137.02 240.278 137.269 240 137.31C239.723 137.351 239.464 137.167 239.422 136.9L239.382 136.656C239.009 134.395 238.338 131.554 237.278 128.226C235.713 123.309 233.532 118.102 230.635 112.719C222.845 98.2431 211.002 84.4424 194.305 72.2328C194.201 72.1572 194.132 72.0463 194.111 71.923C193.533 68.5513 192.666 65.94 191.001 63.4537C188.783 60.1415 185.378 57.6005 180.449 55.9746C180.184 55.8871 180.042 55.6091 180.133 55.3536Z" fill="#2E186A"/>
<path fill-rule="evenodd" clip-rule="evenodd" d="M188.221 87.8166C188.584 87.8294 188.869 88.1142 188.874 88.4595L188.873 88.5016L188.869 88.6095C188.866 88.7084 188.863 88.8249 188.861 88.9582C188.784 92.6295 188.976 97.0736 189.659 101.325C189.968 103.25 190.366 105.009 190.858 106.565C190.968 106.91 190.766 107.274 190.408 107.379C190.051 107.484 189.672 107.29 189.563 106.945C189.05 105.325 188.639 103.507 188.321 101.524C187.637 97.2669 187.437 92.8426 187.503 89.1447L187.513 88.6806L187.52 88.4442C187.533 88.0953 187.829 87.8205 188.188 87.8162L188.221 87.8166Z" fill="#2E186A"/>
<path fill-rule="evenodd" clip-rule="evenodd" d="M194.104 71.713C194.222 72.4139 194.324 73.0495 194.409 73.6037C195.441 80.0906 193.224 84.4097 191.751 87.3924C195.695 84.7031 198.369 79.5853 199.707 75.6899C198.099 74.4512 195.881 72.9843 194.104 71.713Z" fill="#2E186A"/>
<path fill-rule="evenodd" clip-rule="evenodd" d="M138.314 68.8933C135.555 69.4312 131.019 70.7677 127.735 72.9354C130.02 74.1415 141.344 80.661 150.586 84.5727C150.654 84.5401 151.162 83.7252 151.415 83.3992C146.304 79.5038 140.921 73.9296 138.314 68.8933Z" fill="#2E186A"/>
<path fill-rule="evenodd" clip-rule="evenodd" d="M145.628 42.4576C145.899 42.3867 146.178 42.5404 146.252 42.801C146.323 43.0522 146.177 43.3111 145.924 43.3928L145.835 43.4182C145.808 43.4262 145.774 43.4365 145.734 43.4493C145.596 43.4931 145.441 43.5475 145.274 43.6129C144.795 43.8 144.317 44.0364 143.873 44.3241C142.004 45.5359 141.332 47.1963 142.48 49.5333C143.201 51.0015 144.208 51.6247 145.493 51.6187C146.516 51.6139 147.653 51.2191 148.896 50.5395C149.14 50.4061 149.45 50.4884 149.589 50.7232C149.727 50.9581 149.642 51.2565 149.398 51.3899C148.017 52.145 146.733 52.5908 145.498 52.5966C143.814 52.6044 142.45 51.7599 141.562 49.9514C140.178 47.134 141.052 44.9742 143.306 43.513C143.812 43.1844 144.352 42.9178 144.892 42.7068C145.218 42.5795 145.474 42.4981 145.628 42.4576Z" fill="#2E186A"/>
<path fill-rule="evenodd" clip-rule="evenodd" d="M161.953 20.2608C160.898 20.4645 159.994 20.7069 159.241 20.9514L159.139 20.9848C152.744 23.0811 148.878 26.7545 147.128 31.544C145.845 35.0541 145.806 38.7789 146.507 42.2545C146.595 42.6914 146.689 43.0886 146.783 43.4414L146.825 43.594L146.853 43.6947C146.872 43.7584 146.888 43.8149 146.903 43.864L146.931 43.9528C146.95 44.2709 147.279 44.4899 147.598 44.3875L149.338 43.8291L149.361 43.8466C150.811 44.938 154.705 49.6602 155.959 51.9582C156.098 52.2129 156.434 52.2975 156.685 52.1409L156.834 52.0503L156.988 51.9592C157.043 51.9271 157.101 51.8933 157.163 51.8578L157.29 51.7848C157.796 51.4969 158.39 51.1755 159.07 50.8291C161.015 49.8374 163.249 48.8451 165.735 47.9186L166.054 47.8007C168.078 47.0579 170.183 46.3922 172.36 45.8219L172.701 45.7336L173.059 45.6577C173.14 45.6408 173.226 45.6231 173.315 45.6048L173.499 45.5674C174.13 45.4398 174.799 45.3121 175.476 45.1931C176.015 45.0983 176.537 45.013 177.034 44.9394L177.374 44.8903C178.6 44.7182 179.59 44.6335 180.257 44.6567C180.569 44.6677 180.818 44.4064 180.779 44.1075C179.971 37.8827 178.439 31.5141 176.245 26.1578C174.564 22.051 171.21 20.1164 166.817 19.8837C165.227 19.7995 163.585 19.9456 161.953 20.2608ZM166.761 20.8602C170.787 21.0734 173.779 22.7992 175.3 26.5166L175.399 26.7606C177.408 31.7375 178.845 37.5959 179.656 43.3765L179.698 43.6806L179.685 43.6811C178.939 43.7062 177.992 43.808 176.88 43.9728C176.373 44.0479 175.841 44.1348 175.294 44.2311C174.693 44.3367 174.099 44.4489 173.532 44.5619L173.104 44.6483C172.983 44.6731 172.869 44.6967 172.763 44.719L172.461 44.7833L172.443 44.7876C169.992 45.4162 167.629 46.1642 165.368 47.0066C162.844 47.9474 160.574 48.9558 158.595 49.9648L158.322 50.105C157.74 50.4057 157.223 50.6869 156.773 50.9431L156.594 51.0457L156.576 51.0149C154.948 48.3298 151.022 43.6581 149.683 42.8706L149.653 42.8543C149.531 42.7933 149.388 42.7821 149.257 42.8241L147.793 43.294C147.695 42.9376 147.596 42.5265 147.504 42.0682C146.834 38.7486 146.871 35.1908 148.086 31.8687C149.716 27.4077 153.294 23.9795 159.286 21.9705L159.468 21.9101C160.202 21.667 161.098 21.4232 162.152 21.2196C163.706 20.9196 165.264 20.7809 166.761 20.8602Z" fill="#2E186A"/>
<path fill-rule="evenodd" clip-rule="evenodd" d="M149.257 42.808C149.399 42.7622 149.555 42.7792 149.683 42.8543C151.009 43.6339 154.87 48.2205 156.526 50.9174L156.594 51.0294L156.773 50.9268L156.986 50.8068C157.456 50.543 157.993 50.2551 158.595 49.9485C160.574 48.9395 162.844 47.9311 165.369 46.9903C167.522 46.188 169.767 45.4714 172.093 44.8619L172.443 44.7713L172.684 44.7192L173.102 44.6319L173.288 44.5939C173.925 44.4644 174.601 44.3349 175.287 44.214C175.759 44.1308 176.218 44.0546 176.661 43.9869L176.881 43.9538C178.344 43.7367 179.522 43.6292 180.331 43.6633C180.565 43.6732 180.761 43.8352 180.807 44.0559L180.831 44.1758L180.878 44.4288C180.889 44.4894 180.9 44.5535 180.911 44.6209L180.95 44.85C181.014 45.2398 181.078 45.6701 181.138 46.1353C181.494 48.8868 181.595 51.7419 181.288 54.4191C181.277 54.5157 181.265 54.6118 181.253 54.7075C181.219 54.9756 180.966 55.1663 180.687 55.1335C180.409 55.1008 180.211 54.8569 180.245 54.5889C180.257 54.4969 180.268 54.4045 180.278 54.3117C180.576 51.7209 180.477 48.938 180.13 46.256L180.095 45.9879C180.041 45.5922 179.985 45.2253 179.928 44.8914L179.884 44.636L179.833 44.6371C179.15 44.6518 178.235 44.7451 177.148 44.9037L177.035 44.9203C176.536 44.9944 176.011 45.0804 175.47 45.1759C174.879 45.2802 174.294 45.3911 173.735 45.5028L173.226 45.6064L172.816 45.6925L172.693 45.7191L172.36 45.8056C170.183 46.3759 168.078 47.0416 166.054 47.7844L165.735 47.9023C163.249 48.8288 161.015 49.8211 159.07 50.8128L158.803 50.95C158.277 51.2217 157.807 51.4766 157.393 51.7104L157.163 51.8415C157.101 51.877 157.043 51.9108 156.988 51.9429L156.723 52.1013C156.707 52.1112 156.694 52.119 156.685 52.1246C156.434 52.2812 156.098 52.1966 155.959 51.9419C154.717 49.6669 150.888 45.0159 149.406 43.8641L149.338 43.813L146.542 44.7148L147.482 46.5465L148.204 47.9443C148.744 48.9893 149.282 50.023 149.805 51.0203L150.53 52.3969C152.059 55.2911 153.215 57.4012 153.848 58.4228C155.871 61.6749 157.063 62.6437 161.636 64.3789C163.173 64.9517 165.131 65.275 167.14 65.275C167.421 65.275 167.648 65.4939 167.648 65.7639C167.648 66.034 167.421 66.2529 167.14 66.2529C165.01 66.2529 162.928 65.9092 161.267 65.2898L160.845 65.1283C156.492 63.4415 155.108 62.3075 153.104 59.1281L152.977 58.9245C152.336 57.8912 151.196 55.8137 149.688 52.9608L149.245 52.1214C148.557 50.8128 147.837 49.4295 147.114 48.0314L146.494 46.8286L145.374 44.6443C145.243 44.3876 145.368 44.0804 145.64 43.9754L145.668 43.9652L149.257 42.808Z" fill="#2E186A"/>
<path fill-rule="evenodd" clip-rule="evenodd" d="M146.27 45.9121C146.27 45.9121 143.037 42.2938 140.701 37.9746C138.5 33.9162 139.414 28.8799 143.054 25.9461C146.1 23.485 149.012 24.137 149.012 24.137C149.012 24.137 143.748 18.9866 147.895 12.3041C149.35 9.95706 151.771 8.26199 154.564 7.67524C161.368 6.24095 164.889 11.2284 164.889 11.2284C164.889 11.2284 168.799 -3.31011 185.59 0.699379C187.282 1.10685 189.517 2.83451 190.702 4.07322C197.861 11.5869 184.388 25.7668 176.196 28.6028C167.208 31.7322 161.419 31.5692 157.881 30.1023C160.437 30.852 160.522 44.6571 146.27 45.9121Z" fill="#2E186A"/>
<path fill-rule="evenodd" clip-rule="evenodd" d="M171.979 40.8036C172.318 40.6806 172.695 40.8365 172.838 41.1527L172.851 41.1838L176.034 49.3169C176.197 49.7351 175.886 50.1808 175.428 50.1982L175.397 50.1987L172.13 50.1824C171.756 50.1805 171.454 49.8871 171.456 49.5271C171.458 49.1779 171.745 48.8943 172.103 48.8791L172.137 48.8785L174.419 48.8899L171.584 41.6435C171.457 41.3171 171.618 40.954 171.947 40.8162L171.979 40.8036Z" fill="#2E186A"/>
<path fill-rule="evenodd" clip-rule="evenodd" d="M170.475 56.5878C171.363 56.5878 172.083 55.8946 172.083 55.0394C172.083 54.1843 171.363 53.491 170.475 53.491C169.587 53.491 168.867 54.1843 168.867 55.0394C168.867 55.8946 169.587 56.5878 170.475 56.5878Z" fill="#2E186A"/>
<path fill-rule="evenodd" clip-rule="evenodd" d="M164.824 34.4571C165.196 34.4226 165.527 34.6852 165.563 35.0436C165.599 35.402 165.326 35.7205 164.954 35.755C164.025 35.841 163.301 36.1998 162.74 36.7496C162.512 36.9729 162.327 37.2128 162.184 37.4512L162.145 37.5167C162.092 37.6102 162.057 37.6809 162.04 37.7208L162.035 37.7329C161.903 38.0696 161.512 38.2392 161.162 38.1116C160.812 37.9841 160.636 37.6077 160.769 37.271C160.811 37.1637 160.89 36.9995 161.012 36.797C161.21 36.4685 161.462 36.1416 161.774 35.8358C162.549 35.0763 163.563 34.5739 164.824 34.4571Z" fill="#2E186A"/>
<path fill-rule="evenodd" clip-rule="evenodd" d="M173.295 32.1891C173.911 31.9832 174.547 31.894 175.17 31.9961C175.939 32.1222 176.591 32.534 177.045 33.2511C177.239 33.5586 177.138 33.9597 176.819 34.147C176.499 34.3343 176.083 34.2369 175.888 33.9294C175.643 33.5412 175.333 33.3454 174.943 33.2815C174.579 33.2218 174.158 33.2808 173.739 33.421C173.63 33.4573 173.531 33.4961 173.444 33.5343L173.368 33.5692L173.354 33.5762C173.026 33.7482 172.614 33.6314 172.436 33.3151C172.257 32.9988 172.378 32.6029 172.707 32.4308L172.765 32.4014C172.891 32.3399 173.071 32.2639 173.295 32.1891Z" fill="#2E186A"/>
<path fill-rule="evenodd" clip-rule="evenodd" d="M273.184 91.7767H207.374C206.511 91.7767 205.766 92.3472 205.563 93.1621L196.406 130.454H172.557C172.557 130.454 171.236 137.022 178.938 137.022C182.848 137.022 262.961 137.022 262.961 137.022C263.824 137.022 264.569 136.452 264.772 135.637L274.995 93.9771C275.266 92.8525 274.386 91.7767 273.184 91.7767Z" fill="#2E186A"/>
<path fill-rule="evenodd" clip-rule="evenodd" d="M247.067 36.5566H246.542C246.068 36.5566 245.696 36.198 245.696 35.7416V34.454C245.696 33.9977 246.068 33.6391 246.542 33.6391H247.067C247.541 33.6391 247.913 33.9977 247.913 34.454V35.7416C247.913 36.198 247.541 36.5566 247.067 36.5566Z" fill="#FE7624"/>
<path fill-rule="evenodd" clip-rule="evenodd" d="M244.003 36.5566H230.496C230.022 36.5566 229.65 36.198 229.65 35.7416V34.454C229.65 33.9977 230.022 33.6391 230.496 33.6391H244.003C244.477 33.6391 244.849 33.9977 244.849 34.454V35.7416C244.849 36.198 244.477 36.5566 244.003 36.5566Z" fill="#2E186A"/>
<path fill-rule="evenodd" clip-rule="evenodd" d="M245.391 50.1009H230.513C230.039 50.1009 229.666 49.7423 229.666 49.2859V47.9983C229.666 47.542 230.039 47.1834 230.513 47.1834H245.391C245.865 47.1834 246.237 47.542 246.237 47.9983V49.2859C246.237 49.7423 245.848 50.1009 245.391 50.1009Z" fill="#2E186A"/>
<path fill-rule="evenodd" clip-rule="evenodd" d="M258.712 45.5861H234.693C234.22 45.5861 233.847 45.2275 233.847 44.7712V43.4836C233.847 43.0272 234.22 42.6686 234.693 42.6686H258.712C259.186 42.6686 259.558 43.0272 259.558 43.4836V44.7712C259.558 45.2275 259.186 45.5861 258.712 45.5861Z" fill="#FE7624"/>
<path fill-rule="evenodd" clip-rule="evenodd" d="M274.031 45.5861H261.844C261.37 45.5861 260.997 45.2275 260.997 44.7712V43.4836C260.997 43.0272 261.37 42.6686 261.844 42.6686H274.031C274.504 42.6686 274.877 43.0272 274.877 43.4836V44.7712C274.877 45.2275 274.504 45.5861 274.031 45.5861Z" fill="#FE7624"/>
<path fill-rule="evenodd" clip-rule="evenodd" d="M278.736 41.0876H278.211C277.737 41.0876 277.365 40.7291 277.365 40.2727V38.9851C277.365 38.5287 277.737 38.1702 278.211 38.1702H278.736C279.21 38.1702 279.582 38.5287 279.582 38.9851V40.2727C279.582 40.7128 279.21 41.0876 278.736 41.0876Z" fill="#2E186A"/>
<path fill-rule="evenodd" clip-rule="evenodd" d="M255.395 41.0713H230.496C230.022 41.0713 229.649 40.7128 229.649 40.2564V38.9688C229.649 38.5124 230.022 38.1539 230.496 38.1539H255.395C255.868 38.1539 256.241 38.5124 256.241 38.9688V40.2564C256.241 40.7128 255.868 41.0713 255.395 41.0713Z" fill="#2E186A"/>
<path fill-rule="evenodd" clip-rule="evenodd" d="M263.248 36.5566H249.741C249.267 36.5566 248.895 36.198 248.895 35.7416V34.454C248.895 33.9977 249.267 33.6391 249.741 33.6391H263.248C263.722 33.6391 264.095 33.9977 264.095 34.454V35.7416C264.095 36.198 263.705 36.5566 263.248 36.5566Z" fill="#2E186A"/>
<path fill-rule="evenodd" clip-rule="evenodd" d="M275.334 41.0876H258.272C257.798 41.0876 257.426 40.7291 257.426 40.2727V38.9688C257.426 38.5124 257.798 38.1539 258.272 38.1539H275.334C275.808 38.1539 276.18 38.5124 276.18 38.9688V40.2727C276.18 40.7128 275.808 41.0876 275.334 41.0876Z" fill="#FE7624"/>
<path fill-rule="evenodd" clip-rule="evenodd" d="M244.003 65.7966H230.496C230.022 65.7966 229.649 65.438 229.649 64.9816V63.694C229.649 63.2377 230.022 62.8791 230.496 62.8791H244.003C244.477 62.8791 244.849 63.2377 244.849 63.694V64.9816C244.849 65.438 244.477 65.7966 244.003 65.7966Z" fill="#2E186A"/>
<path fill-rule="evenodd" clip-rule="evenodd" d="M245.391 79.3408H230.513C230.039 79.3408 229.666 78.9822 229.666 78.5258V77.2382C229.666 76.7819 230.039 76.4233 230.513 76.4233H245.391C245.865 76.4233 246.237 76.7819 246.237 77.2382V78.5258C246.237 78.9659 245.848 79.3408 245.391 79.3408Z" fill="#2E186A"/>
<path fill-rule="evenodd" clip-rule="evenodd" d="M258.712 74.826H234.693C234.22 74.826 233.847 74.4674 233.847 74.011V72.7234C233.847 72.2671 234.22 71.9085 234.693 71.9085H258.712C259.186 71.9085 259.558 72.2671 259.558 72.7234V74.011C259.558 74.4674 259.186 74.826 258.712 74.826Z" fill="#FE7624"/>
<path fill-rule="evenodd" clip-rule="evenodd" d="M274.031 74.826H261.844C261.37 74.826 260.997 74.4674 260.997 74.011V72.7234C260.997 72.2671 261.37 71.9085 261.844 71.9085H274.031C274.504 71.9085 274.877 72.2671 274.877 72.7234V74.011C274.877 74.4674 274.504 74.826 274.031 74.826Z" fill="#FE7624"/>
<path fill-rule="evenodd" clip-rule="evenodd" d="M278.736 70.3276H278.211C277.737 70.3276 277.365 69.969 277.365 69.5126V68.225C277.365 67.7687 277.737 67.4101 278.211 67.4101H278.736C279.21 67.4101 279.582 67.7687 279.582 68.225V69.5126C279.582 69.9527 279.21 70.3276 278.736 70.3276Z" fill="#2E186A"/>
<path fill-rule="evenodd" clip-rule="evenodd" d="M282.595 65.7966H282.071C281.597 65.7966 281.224 65.438 281.224 64.9816V63.694C281.224 63.2377 281.597 62.8791 282.071 62.8791H282.595C283.069 62.8791 283.442 63.2377 283.442 63.694V64.9816C283.442 65.438 283.069 65.7966 282.595 65.7966Z" fill="#2E186A"/>
<path fill-rule="evenodd" clip-rule="evenodd" d="M255.395 70.3113H230.496C230.022 70.3113 229.649 69.9527 229.649 69.4963V68.2087C229.649 67.7524 230.022 67.3938 230.496 67.3938H255.395C255.868 67.3938 256.241 67.7524 256.241 68.2087V69.4963C256.241 69.9527 255.868 70.3113 255.395 70.3113Z" fill="#2E186A"/>
<path fill-rule="evenodd" clip-rule="evenodd" d="M263.248 65.7966H246.559C246.085 65.7966 245.713 65.438 245.713 64.9816V63.694C245.713 63.2377 246.085 62.8791 246.559 62.8791H263.248C263.722 62.8791 264.095 63.2377 264.095 63.694V64.9816C264.095 65.438 263.705 65.7966 263.248 65.7966Z" fill="#FE7624"/>
<path fill-rule="evenodd" clip-rule="evenodd" d="M279.616 65.7966H266.109C265.635 65.7966 265.263 65.438 265.263 64.9816V63.694C265.263 63.2377 265.635 62.8791 266.109 62.8791H279.616C280.09 62.8791 280.463 63.2377 280.463 63.694V64.9816C280.463 65.438 280.09 65.7966 279.616 65.7966Z" fill="#FE7624"/>
<path fill-rule="evenodd" clip-rule="evenodd" d="M247.067 61.4285H246.542C246.068 61.4285 245.696 61.0699 245.696 60.6135V59.3259C245.696 58.8696 246.068 58.511 246.542 58.511H247.067C247.541 58.511 247.913 58.8696 247.913 59.3259V60.6135C247.913 61.0536 247.541 61.4285 247.067 61.4285Z" fill="#FE7624"/>
<path fill-rule="evenodd" clip-rule="evenodd" d="M244.003 61.4285H230.496C230.022 61.4285 229.65 61.0699 229.65 60.6135V59.3259C229.65 58.8696 230.022 58.511 230.496 58.511H244.003C244.477 58.511 244.849 58.8696 244.849 59.3259V60.6135C244.849 61.0536 244.477 61.4285 244.003 61.4285Z" fill="#2E186A"/>
<path fill-rule="evenodd" clip-rule="evenodd" d="M263.248 61.4285H249.741C249.267 61.4285 248.895 61.0699 248.895 60.6135V59.3259C248.895 58.8696 249.267 58.511 249.741 58.511H263.248C263.722 58.511 264.095 58.8696 264.095 59.3259V60.6135C264.095 61.0536 263.705 61.4285 263.248 61.4285Z" fill="#2E186A"/>
<path fill-rule="evenodd" clip-rule="evenodd" d="M275.334 70.3276H258.272C257.798 70.3276 257.426 69.969 257.426 69.5126V68.2087C257.426 67.7524 257.798 67.3938 258.272 67.3938H275.334C275.808 67.3938 276.18 67.7524 276.18 68.2087V69.5126C276.18 69.9527 275.808 70.3276 275.334 70.3276Z" fill="#FE7624"/>
<path fill-rule="evenodd" clip-rule="evenodd" d="M296.352 119.176C299.07 118.976 301.431 120.94 301.619 123.555C301.827 126.172 299.788 128.445 297.059 128.628C296.633 128.648 296.286 128.64 295.943 128.59C295.665 128.55 295.474 128.301 295.516 128.034C295.558 127.767 295.816 127.583 296.093 127.623C296.36 127.662 296.644 127.668 296.999 127.651C299.155 127.507 300.771 125.705 300.606 123.626C300.457 121.549 298.585 119.993 296.433 120.151C296.081 120.179 295.731 120.25 295.4 120.356C295.134 120.441 294.846 120.303 294.758 120.047C294.669 119.79 294.813 119.514 295.079 119.428C295.486 119.298 295.915 119.211 296.352 119.176Z" fill="#2E186A"/>
<path fill-rule="evenodd" clip-rule="evenodd" d="M277.974 112.652C278.183 112.488 278.486 112.509 278.668 112.697L278.689 112.72L285.002 120.136C285.18 120.345 285.148 120.653 284.932 120.824C284.723 120.989 284.419 120.967 284.238 120.78L284.217 120.756L277.903 113.34C277.726 113.131 277.757 112.823 277.974 112.652Z" fill="#2E186A"/>
<path fill-rule="evenodd" clip-rule="evenodd" d="M277.365 118.148V132.132C277.365 134.838 279.633 137.022 282.443 137.022H291.008C293.817 137.022 296.086 134.838 296.086 132.132V118.148H277.365ZM284.948 128.384C285.067 128.465 285.117 128.547 285.117 128.677C285.117 128.775 285.084 128.84 285.016 128.905C284.948 128.97 284.864 129.003 284.779 129.003C284.711 129.003 284.66 128.987 284.61 128.954L281.224 126.998C281.106 126.917 281.038 126.819 281.038 126.705C281.038 126.591 281.106 126.493 281.224 126.412L284.61 124.456C284.66 124.423 284.711 124.407 284.779 124.407C284.88 124.407 284.948 124.439 285.016 124.505C285.084 124.57 285.117 124.651 285.117 124.733C285.117 124.847 285.067 124.945 284.948 125.026L282.037 126.705L284.948 128.384ZM289.18 123.559L286.455 130.111C286.438 130.144 286.421 130.177 286.387 130.209C286.319 130.274 286.234 130.307 286.15 130.307C286.048 130.307 285.981 130.274 285.913 130.209C285.845 130.144 285.811 130.063 285.811 129.981C285.811 129.932 285.828 129.883 285.845 129.834L288.57 123.282C288.587 123.25 288.604 123.217 288.638 123.184C288.706 123.119 288.79 123.087 288.875 123.087C288.977 123.087 289.044 123.119 289.112 123.184C289.18 123.25 289.214 123.331 289.214 123.413C289.214 123.478 289.197 123.527 289.18 123.559ZM293.784 126.998L290.398 128.954C290.348 128.987 290.297 129.003 290.229 129.003C290.128 129.003 290.06 128.97 289.992 128.905C289.924 128.84 289.891 128.759 289.891 128.677C289.891 128.563 289.941 128.465 290.06 128.384L292.971 126.705L290.06 125.026C289.941 124.945 289.891 124.863 289.891 124.733C289.891 124.635 289.924 124.57 289.992 124.505C290.06 124.439 290.144 124.407 290.229 124.407C290.297 124.407 290.348 124.423 290.398 124.456L293.784 126.412C293.902 126.493 293.97 126.591 293.97 126.705C293.97 126.819 293.919 126.933 293.784 126.998Z" fill="#2E186A"/>
<path fill-rule="evenodd" clip-rule="evenodd" d="M84.829 119.176C85.1577 119.156 85.4512 119.16 85.7233 119.195C86.0013 119.231 86.1966 119.477 86.1595 119.745C86.1225 120.012 85.8671 120.2 85.5891 120.165C85.39 120.139 85.1601 120.136 84.8958 120.152C82.7454 120.295 81.1376 122.093 81.2879 124.177C81.4377 126.254 83.3089 127.81 85.4652 127.652C85.7448 127.631 85.9888 127.833 86.0102 128.102C86.0315 128.371 85.8221 128.606 85.5425 128.627C82.8243 128.827 80.4636 126.863 80.2748 124.245C80.0857 121.624 82.1132 119.357 84.829 119.176Z" fill="#2E186A"/>
<path fill-rule="evenodd" clip-rule="evenodd" d="M84.9282 118.148V132.132C84.9282 134.838 87.1964 137.022 90.0062 137.022H98.5709C101.381 137.022 103.649 134.838 103.649 132.132V118.148H84.9282ZM92.4944 128.384C92.6129 128.465 92.6637 128.547 92.6637 128.677C92.6637 128.775 92.6299 128.84 92.5621 128.905C92.4944 128.97 92.4098 129.003 92.3252 129.003C92.2575 129.003 92.2067 128.987 92.1559 128.954L88.7706 126.998C88.6521 126.917 88.5844 126.819 88.5844 126.705C88.5844 126.591 88.6521 126.493 88.7706 126.412L92.1559 124.456C92.2067 124.423 92.2575 124.407 92.3252 124.407C92.4267 124.407 92.4944 124.439 92.5621 124.505C92.6299 124.57 92.6637 124.651 92.6637 124.733C92.6637 124.847 92.6129 124.945 92.4944 125.026L89.5831 126.705L92.4944 128.384ZM99.6375 126.998L96.2522 128.954C96.2014 128.987 96.1506 129.003 96.0829 129.003C95.9813 129.003 95.9136 128.97 95.8459 128.905C95.7782 128.84 95.7444 128.759 95.7444 128.677C95.7444 128.563 95.7951 128.465 95.9136 128.384L98.825 126.705L95.9136 125.026C95.7951 124.945 95.7444 124.863 95.7444 124.733C95.7444 124.635 95.7782 124.57 95.8459 124.505C95.9136 124.439 95.9983 124.407 96.0829 124.407C96.1506 124.407 96.2014 124.423 96.2522 124.456L99.6375 126.412C99.7559 126.493 99.8236 126.591 99.8236 126.705C99.8236 126.819 99.7559 126.933 99.6375 126.998Z" fill="#2E186A"/>
<path fill-rule="evenodd" clip-rule="evenodd" d="M113.762 108.039C113.999 107.913 114.294 107.988 114.437 108.205L114.452 108.23L116.771 112.272C116.907 112.509 116.818 112.806 116.572 112.937C116.336 113.062 116.041 112.988 115.898 112.771L115.882 112.745L113.563 108.703C113.428 108.467 113.517 108.169 113.762 108.039Z" fill="#2E186A"/>
<path fill-rule="evenodd" clip-rule="evenodd" d="M124.012 112.46C124.292 112.46 124.519 112.679 124.519 112.949C124.519 113.209 124.308 113.422 124.041 113.437L124.012 113.438H111.181C110.901 113.438 110.673 113.219 110.673 112.949C110.673 112.688 110.885 112.476 111.151 112.461L111.181 112.46H124.012Z" fill="#2E186A"/>
<path fill-rule="evenodd" clip-rule="evenodd" d="M122.234 126.118C122.048 125.939 121.811 125.841 121.523 125.841C121.252 125.841 121.015 125.939 120.812 126.118C120.626 126.297 120.525 126.526 120.525 126.803C120.525 127.064 120.626 127.292 120.812 127.487C120.998 127.667 121.235 127.764 121.523 127.764C121.794 127.764 122.031 127.667 122.234 127.487C122.42 127.308 122.522 127.08 122.522 126.803C122.522 126.526 122.437 126.297 122.234 126.118Z" fill="#2E186A"/>
<path fill-rule="evenodd" clip-rule="evenodd" d="M121.54 124.684C121.811 124.684 122.048 124.586 122.251 124.407C122.437 124.228 122.539 123.999 122.539 123.722C122.539 123.461 122.437 123.233 122.251 123.038C122.065 122.858 121.828 122.761 121.54 122.761C121.269 122.761 121.032 122.858 120.829 123.038C120.643 123.217 120.542 123.445 120.542 123.722C120.542 123.983 120.643 124.211 120.829 124.407C121.032 124.586 121.253 124.684 121.54 124.684Z" fill="#2E186A"/>
<path fill-rule="evenodd" clip-rule="evenodd" d="M122.234 130.535C122.42 130.356 122.522 130.128 122.522 129.851C122.522 129.59 122.42 129.362 122.234 129.166C122.048 128.987 121.811 128.889 121.523 128.889C121.252 128.889 121.015 128.987 120.812 129.166C120.626 129.345 120.525 129.574 120.525 129.851C120.525 130.111 120.626 130.34 120.812 130.535C120.998 130.714 121.235 130.812 121.523 130.812C121.811 130.812 122.048 130.714 122.234 130.535Z" fill="#2E186A"/>
<path fill-rule="evenodd" clip-rule="evenodd" d="M125.281 115.899L123.03 113.079H112.18L109.929 115.899C109.709 116.176 109.59 116.486 109.59 116.812V133.974C109.59 134.512 109.895 135.001 110.42 135.327C111.114 135.751 112.011 136.386 112.061 137.006H123.114C123.182 136.386 124.062 135.734 124.756 135.327C125.281 135.017 125.586 134.512 125.586 133.974V116.812C125.603 116.486 125.501 116.16 125.281 115.899ZM120.575 119.191L121.76 117.284C121.811 117.219 121.862 117.186 121.946 117.186C122.014 117.186 122.082 117.219 122.133 117.284L123.317 119.191C123.334 119.224 123.334 119.256 123.334 119.289C123.334 119.338 123.317 119.387 123.284 119.419C123.25 119.452 123.199 119.468 123.148 119.468C123.08 119.468 123.013 119.436 122.979 119.37L121.963 117.741L120.948 119.37C120.897 119.436 120.846 119.468 120.778 119.468C120.728 119.468 120.677 119.452 120.643 119.419C120.609 119.387 120.592 119.338 120.592 119.289C120.541 119.24 120.558 119.207 120.575 119.191ZM120.643 119.908C120.677 119.892 120.711 119.876 120.762 119.876C120.812 119.876 120.863 119.892 120.897 119.925C120.931 119.957 120.948 120.006 120.948 120.055C120.948 120.104 120.931 120.153 120.897 120.185C120.863 120.218 120.829 120.234 120.829 120.251C120.643 120.43 120.541 120.658 120.541 120.935C120.541 121.196 120.626 121.408 120.795 121.571C120.846 121.603 120.897 121.636 120.965 121.636C121.049 121.636 121.1 121.587 121.117 121.522L121.523 120.348C121.574 120.202 121.642 120.104 121.692 120.039C121.811 119.925 121.946 119.876 122.116 119.876C122.285 119.876 122.42 119.941 122.539 120.055C122.776 120.283 122.911 120.577 122.911 120.952C122.911 121.359 122.742 121.701 122.42 121.978C122.386 122.011 122.353 122.011 122.302 122.011C122.251 122.011 122.2 121.995 122.166 121.962C122.133 121.929 122.116 121.881 122.116 121.832C122.116 121.783 122.133 121.734 122.166 121.701C122.2 121.669 122.234 121.652 122.234 121.636C122.42 121.457 122.522 121.229 122.522 120.952C122.522 120.691 122.437 120.479 122.268 120.316C122.217 120.283 122.166 120.251 122.099 120.251C122.014 120.251 121.963 120.3 121.946 120.365L121.54 121.538C121.489 121.685 121.422 121.783 121.371 121.848C121.252 121.962 121.117 122.011 120.948 122.011C120.778 122.011 120.643 121.946 120.525 121.832C120.288 121.603 120.152 121.31 120.152 120.935C120.152 120.528 120.305 120.185 120.643 119.908ZM120.558 122.777C120.829 122.516 121.151 122.386 121.54 122.386C121.929 122.386 122.251 122.516 122.522 122.777C122.793 123.038 122.928 123.347 122.928 123.722C122.928 124.097 122.793 124.407 122.522 124.668C122.251 124.928 121.929 125.059 121.54 125.059C121.151 125.059 120.829 124.928 120.558 124.668C120.288 124.407 120.152 124.097 120.152 123.722C120.152 123.347 120.288 123.038 120.558 122.777ZM120.203 131.138C120.169 131.106 120.152 131.057 120.152 131.008C120.152 130.959 120.169 130.91 120.203 130.877C120.237 130.845 120.288 130.829 120.338 130.829H120.558C120.288 130.568 120.135 130.242 120.135 129.867C120.135 129.492 120.271 129.182 120.542 128.922C120.812 128.661 121.134 128.53 121.523 128.53C121.913 128.53 122.234 128.661 122.505 128.922C122.776 129.182 122.911 129.492 122.911 129.867C122.911 130.242 122.776 130.551 122.505 130.812C122.234 131.073 121.913 131.203 121.523 131.203H120.338C120.288 131.187 120.237 131.171 120.203 131.138ZM123.301 131.855L122.116 133.762C122.065 133.827 122.014 133.86 121.93 133.86C121.862 133.86 121.794 133.827 121.743 133.762L120.558 131.855C120.542 131.823 120.542 131.79 120.542 131.758C120.542 131.709 120.558 131.66 120.592 131.627C120.626 131.595 120.677 131.578 120.728 131.578C120.795 131.578 120.863 131.611 120.897 131.676L121.913 133.306L122.928 131.676C122.979 131.611 123.03 131.578 123.097 131.578C123.148 131.578 123.199 131.595 123.233 131.627C123.267 131.66 123.284 131.709 123.284 131.758C123.318 131.806 123.318 131.823 123.301 131.855ZM124.062 128.074C124.028 128.107 123.978 128.123 123.927 128.123H121.54C121.151 128.123 120.829 127.993 120.558 127.732C120.288 127.471 120.152 127.161 120.152 126.786C120.152 126.412 120.288 126.102 120.558 125.841C120.829 125.58 121.151 125.45 121.54 125.45C121.929 125.45 122.251 125.58 122.522 125.841C122.793 126.102 122.928 126.412 122.928 126.786C122.928 127.161 122.793 127.471 122.522 127.732C122.522 127.732 122.522 127.732 122.505 127.748H123.927C123.978 127.748 124.028 127.764 124.062 127.797C124.096 127.83 124.113 127.878 124.113 127.927C124.113 127.976 124.096 128.041 124.062 128.074Z" fill="#2E186A"/>
<path fill-rule="evenodd" clip-rule="evenodd" d="M165.914 57.2826C166.652 56.3145 167.971 56.5715 169.317 57.9105C170.626 59.2163 171.468 60.9488 171.933 62.831C171.998 63.0937 171.83 63.3574 171.557 63.42C171.284 63.4825 171.01 63.3202 170.945 63.0575C170.519 61.3312 169.751 59.7514 168.586 58.5902C167.618 57.6261 167.003 57.5064 166.733 57.861C166.404 58.2929 166.447 59.2756 166.935 60.2174L166.965 60.275C167.672 61.5915 167.869 64.1844 167.766 67.3927C167.757 67.6626 167.523 67.8746 167.243 67.8663C166.963 67.8579 166.742 67.6323 166.751 67.3624L166.761 67.0203C166.832 64.1886 166.64 61.8513 166.085 60.767L166.063 60.7243C165.387 59.4671 165.315 58.0687 165.914 57.2826Z" fill="#2E186A"/>
<path fill-rule="evenodd" clip-rule="evenodd" d="M188.569 55.0068C185.849 55.0068 183.644 57.1303 183.644 59.7497C183.644 62.3692 185.849 64.4926 188.569 64.4926C191.289 64.4926 193.495 62.3692 193.495 59.7497C193.495 57.1303 191.289 55.0068 188.569 55.0068ZM188.569 55.9847C190.729 55.9847 192.479 57.6703 192.479 59.7497C192.479 61.8291 190.729 63.5147 188.569 63.5147C186.41 63.5147 184.659 61.8291 184.659 59.7497C184.659 57.6703 186.41 55.9847 188.569 55.9847Z" fill="#2E186A"/>
<path fill-rule="evenodd" clip-rule="evenodd" d="M162.205 75.3098C162.419 75.1611 162.713 75.1954 162.885 75.3842L162.977 75.4958C163.038 75.5703 163.111 75.6572 163.195 75.7552C163.436 76.0366 163.716 76.3508 164.03 76.6894C164.93 77.6574 165.93 78.6256 167.001 79.528C169.575 81.6955 172.137 83.1319 174.517 83.5032C174.713 83.5339 174.873 83.672 174.925 83.8566L174.936 83.8985C174.953 83.9686 174.973 84.0713 174.992 84.2074C175.091 84.9294 175.075 85.9243 174.871 87.2086L174.852 87.3226C174.747 87.9606 174.907 88.408 175.442 89.1964L175.709 89.5849C176.097 90.1554 176.288 90.5048 176.431 90.9686C176.637 91.6361 176.63 92.3424 176.379 93.1362L176.375 93.1509C176.314 93.4776 175.81 98.1987 175.569 100.228L175.547 100.412C174.908 105.711 174.14 110.657 173.149 115.341C171.843 121.517 170.259 126.661 168.343 130.501C166.033 135.131 163.288 137.763 160.018 137.999C159.739 138.019 159.495 137.817 159.474 137.547C159.453 137.278 159.663 137.044 159.942 137.023C162.732 136.822 165.209 134.473 167.362 130.208L167.427 130.078C169.301 126.323 170.863 121.25 172.154 115.146C173.111 110.619 173.86 105.839 174.487 100.726L174.58 99.9473C174.814 97.9413 175.323 93.1951 175.403 92.8657L175.405 92.8566C175.748 91.773 175.575 91.1692 174.815 90.0569L174.637 89.7987C173.941 88.7847 173.691 88.1251 173.849 87.1687C174.044 85.9921 174.072 85.0916 173.999 84.4498L173.994 84.4053L173.9 84.3867C171.472 83.891 168.958 82.4543 166.45 80.3625L166.333 80.264C165.228 79.3334 164.2 78.3375 163.274 77.3416C163.008 77.0562 162.767 76.7873 162.551 76.5394L162.419 76.3856L162.189 76.5629C161.745 76.9068 161.18 77.3598 160.479 77.936C160.033 78.3034 159.545 78.4984 158.994 78.5585L158.911 78.5668C158.568 78.5977 158.276 78.58 157.689 78.5148L157.618 78.5067C156.234 78.3502 155.663 78.4563 154.917 79.2622L154.878 79.3045C154.398 79.8314 151.947 83.6123 148.207 89.5483L147.022 91.4316L146.537 92.2032C145.401 94.0151 144.221 95.904 143.031 97.8132L140.122 102.494L139.377 103.697C139.233 103.929 138.922 104.005 138.681 103.867C138.449 103.734 138.367 103.45 138.489 103.222L139.344 101.842L140.884 99.3617C142.416 96.8967 143.954 94.4316 145.424 92.0872L147.234 89.2059C151.119 83.0383 153.57 79.2581 154.114 78.6606C154.687 78.0281 155.307 77.6698 156.003 77.5313C156.465 77.4395 156.832 77.4409 157.501 77.51L157.875 77.5507C158.915 77.6603 159.323 77.601 159.82 77.1925L160.245 76.8445C160.761 76.4236 161.195 76.0782 161.552 75.8008L161.818 75.5967C161.882 75.5475 161.941 75.503 161.995 75.463L162.17 75.3344C162.185 75.3239 162.196 75.3157 162.205 75.3098Z" fill="#2E186A"/>
<path fill-rule="evenodd" clip-rule="evenodd" d="M174.876 87.1805C175.299 84.752 175.468 83.7089 175.468 83.7089C169.002 82.7472 162.35 74.9238 162.35 74.9238C162.35 74.9238 161.69 75.3965 159.828 76.9449C159.083 77.5642 158.305 77.5642 157.492 77.4827C156.917 84.2793 169.595 90.3261 175.586 90.6195C175.214 88.9896 174.554 89.0222 174.876 87.1805Z" fill="#2E186A"/>
<path fill-rule="evenodd" clip-rule="evenodd" d="M138.08 95.5044C139.976 95.2732 141.646 95.697 142.978 96.896C143.182 97.0804 143.193 97.3898 143.002 97.5871C142.81 97.7843 142.489 97.7947 142.284 97.6102C141.19 96.6249 139.822 96.2778 138.208 96.4746C136.743 96.6532 135.15 97.2696 133.536 98.1876C132.848 98.5791 132.202 98.9991 131.62 99.4187L131.471 99.5266C131.375 99.5971 131.285 99.6647 131.201 99.7289L131.079 99.8226C131.036 99.8564 130.997 99.887 130.963 99.9142L130.894 99.9704C130.681 100.147 130.361 100.124 130.178 99.9195C129.994 99.715 130.018 99.4062 130.23 99.2299L130.301 99.1728C130.33 99.149 130.366 99.1206 130.408 99.0878L130.569 98.963C130.703 98.8609 130.851 98.7513 131.011 98.6356C131.622 98.1958 132.298 97.7563 133.02 97.3456C134.743 96.3656 136.456 95.7024 138.08 95.5044Z" fill="#2E186A"/>
<path fill-rule="evenodd" clip-rule="evenodd" d="M180.469 57.4534L180.424 57.4583C179.743 57.5526 177.869 58.5792 175.228 60.2186L174.688 60.556C172.287 62.063 169.926 63.6624 169.143 64.3195L169.1 64.3568C168.398 64.993 166.814 67.4997 164.495 71.5033L164.349 71.7555C164.213 71.9907 164.076 72.2298 163.936 72.4727L163.526 73.1901C162.769 74.5167 161.989 75.9022 161.214 77.2967L160.54 78.5115C160.294 78.957 160.063 79.378 159.848 79.7691L159.395 80.5971C159.269 80.829 159.355 81.1154 159.59 81.2468L172.386 88.402L172.414 88.4163C172.674 88.5421 172.994 88.4314 173.109 88.1695L179.377 73.8946L179.464 73.893C182.112 73.8347 183.883 73.1593 184.682 72.0707C185.452 71.0233 185.082 69.6827 183.937 69.5957L183.907 69.5935C183.758 69.584 183.56 69.5839 183.316 69.5926L183.16 69.5989L183.179 69.593C184.717 69.1013 185.642 68.3527 185.936 67.4406C186.267 66.4109 185.638 65.3329 184.691 65.2759L184.669 65.2745C184.443 65.2622 184.031 65.3069 183.446 65.4031L183.354 65.4184L183.388 65.4009C184.232 64.9553 184.787 64.2853 184.966 63.5298C185.193 62.5705 184.742 61.6611 183.824 61.4283L183.796 61.4219C183.267 61.3109 181.877 61.5733 179.965 62.0893L179.761 62.1448L179.853 62.093C180.45 61.7587 180.96 61.4594 181.367 61.2012C182.481 60.4952 182.863 59.5369 182.473 58.6555C182.14 57.9023 181.286 57.3859 180.469 57.4534ZM181.539 59.0388C181.723 59.4548 181.536 59.9233 180.808 60.3844L180.674 60.4686C180.192 60.7687 179.569 61.1265 178.833 61.5299L178.465 61.7304C178.376 61.7784 178.286 61.8268 178.195 61.8757C177.482 62.2582 176.723 62.6535 175.959 63.0433L175.45 63.3014L174.649 63.703L174.526 63.764C173.964 64.041 174.327 64.8601 174.923 64.6614L175.3 64.5367C179.345 63.2033 182.994 62.231 183.567 62.3744C183.906 62.4605 184.09 62.8305 183.976 63.3122C183.832 63.9176 183.273 64.4737 182.354 64.7718L182.271 64.7981L175.382 67.1614C174.784 67.3666 175.042 68.2194 175.646 68.1028L175.701 68.0904L176.658 67.8624L176.896 67.8063C177.823 67.5887 178.769 67.3712 179.682 67.1682L180.082 67.0796L180.651 66.9556C182.785 66.4944 184.274 66.2255 184.62 66.2514C184.869 66.2665 185.114 66.6881 184.965 67.1514C184.725 67.8995 183.661 68.5866 181.646 68.9659L180.97 69.0901C177.404 69.7551 176.132 70.1917 175.935 70.618C175.777 70.9601 176.06 71.3354 176.441 71.3039L177.358 71.1855C178.039 71.0988 178.746 71.0122 179.443 70.9313L179.8 70.8902L180.6 70.8018C182.248 70.6254 183.423 70.5376 183.857 70.5706C184.101 70.5891 184.217 71.0102 183.853 71.5061C183.234 72.3495 181.627 72.9259 179.041 72.9191L179.007 72.9201C178.816 72.9318 178.647 73.0463 178.572 73.2177L172.398 87.2775L160.521 80.6364L161.356 79.1182C161.463 78.923 161.574 78.7229 161.687 78.5182L162.109 77.7586C163.024 76.114 163.943 74.4821 164.825 72.9458L165.237 72.231L165.65 71.5187C167.769 67.8782 169.289 65.4938 169.81 65.057C171.659 63.5061 179.662 58.5015 180.555 58.4277C180.927 58.3971 181.374 58.6675 181.539 59.0388Z" fill="#2E186A"/>
<path fill-rule="evenodd" clip-rule="evenodd" d="M152.189 119.176C154.907 118.976 157.268 120.94 157.457 123.555C157.664 126.172 155.625 128.445 152.902 128.627C152.253 128.665 151.637 128.601 151.086 128.424C150.819 128.338 150.676 128.061 150.764 127.805C150.853 127.549 151.141 127.411 151.407 127.496C151.827 127.631 152.314 127.682 152.836 127.651C154.992 127.507 156.609 125.705 156.444 123.626C156.294 121.549 154.423 119.993 152.264 120.152C152.051 120.166 151.837 120.196 151.623 120.24C151.349 120.296 151.079 120.128 151.02 119.864C150.962 119.6 151.136 119.34 151.411 119.284C151.671 119.23 151.931 119.194 152.189 119.176Z" fill="#2E186A"/>
<path fill-rule="evenodd" clip-rule="evenodd" d="M133.219 118.148V132.132C133.219 134.838 135.488 137.022 138.297 137.022H146.862C149.672 137.022 151.94 134.838 151.94 132.132V118.148H133.219ZM140.786 128.384C140.904 128.465 140.955 128.547 140.955 128.677C140.955 128.775 140.921 128.84 140.853 128.905C140.786 128.97 140.701 129.003 140.616 129.003C140.549 129.003 140.498 128.987 140.447 128.954L137.062 126.998C136.943 126.917 136.876 126.819 136.876 126.705C136.876 126.591 136.943 126.493 137.062 126.412L140.447 124.456C140.498 124.423 140.549 124.407 140.616 124.407C140.718 124.407 140.786 124.439 140.853 124.505C140.921 124.57 140.955 124.651 140.955 124.733C140.955 124.847 140.904 124.945 140.786 125.026L137.874 126.705L140.786 128.384ZM145.017 123.559L142.292 130.111C142.275 130.144 142.258 130.177 142.224 130.209C142.157 130.274 142.072 130.307 141.987 130.307C141.886 130.307 141.818 130.274 141.75 130.209C141.683 130.144 141.649 130.062 141.649 129.981C141.649 129.932 141.666 129.883 141.683 129.834L144.408 123.282C144.425 123.25 144.442 123.217 144.476 123.184C144.543 123.119 144.628 123.087 144.712 123.087C144.814 123.087 144.882 123.119 144.949 123.184C145.017 123.25 145.051 123.331 145.051 123.413C145.051 123.478 145.034 123.527 145.017 123.559ZM149.621 126.998L146.236 128.954C146.185 128.987 146.134 129.003 146.067 129.003C145.965 129.003 145.897 128.97 145.83 128.905C145.762 128.84 145.728 128.759 145.728 128.677C145.728 128.563 145.779 128.465 145.897 128.384L148.809 126.705L145.897 125.026C145.779 124.945 145.728 124.863 145.728 124.733C145.728 124.635 145.762 124.57 145.83 124.505C145.897 124.439 145.982 124.407 146.067 124.407C146.134 124.407 146.185 124.423 146.236 124.456L149.621 126.412C149.74 126.493 149.807 126.591 149.807 126.705C149.824 126.819 149.757 126.933 149.621 126.998Z" fill="#2E186A"/>
<path fill-rule="evenodd" clip-rule="evenodd" d="M321.492 136.941C321.773 136.941 322 137.16 322 137.43C322 137.69 321.789 137.903 321.522 137.918L321.492 137.919H44.5079C44.2275 137.919 44.0001 137.7 44.0001 137.43C44.0001 137.169 44.2115 136.956 44.4781 136.941L44.5079 136.941H321.492Z" fill="#2E186A"/>
<path fill-rule="evenodd" clip-rule="evenodd" d="M188.501 67.9969L187.57 54.0452L168.884 55.2024L169.527 64.6393C171.186 63.2703 179.344 58.0221 180.529 57.9243C181.714 57.8265 183.136 59.4889 181.104 60.7765C179.073 62.0641 174.774 64.183 174.774 64.183C178.345 62.9769 182.865 61.673 183.711 61.8849C184.998 62.2108 184.913 64.4927 182.459 65.2424L175.569 67.6057C175.569 67.6057 183.593 65.6662 184.676 65.7477C185.759 65.8292 186.707 68.5347 181.663 69.4475C176.619 70.3765 176.416 70.8003 176.416 70.8003C176.416 70.8003 182.628 69.9527 183.914 70.0668C185.201 70.1809 185.234 73.4081 179.056 73.3918L179.022 73.4733L183.779 73.1799C186.555 73.0169 188.687 70.6862 188.501 67.9969Z" fill="#2E186A"/>
<path opacity="0.78" d="M143.904 141.207C122.106 132.917 120.933 99.1107 139.994 85.673C140.324 85.4407 140.653 85.2072 140.983 84.9724V84.9724C157.261 73.3812 184.994 88.2259 180.889 107.783L177.352 124.636C174.362 138.879 159.355 147.083 145.752 141.91L143.904 141.207Z" fill="#FFB7B7"/>
<path opacity="0.78" d="M225.938 97.1917C252.829 111.025 247.216 156.176 219.392 168.021V168.021V168.021C191.389 179.943 154.512 151.861 164.266 123.031L168.108 111.672C174.819 91.8376 197.598 82.6138 216.218 92.1918L225.938 97.1917Z" fill="#FFF082"/>
<g filter="url(#filter0_d_116_1640)">
<path fill-rule="evenodd" clip-rule="evenodd" d="M389 33C343.155 77.732 264.205 107.265 174.5 107.265C93.9229 107.265 22.0237 83.4366 -25 46.1682V251.265H389V33Z" fill="#00E97F"/>
</g>
</g>
<defs>
<filter id="filter0_d_116_1640" x="-139" y="-77" width="642" height="446.265" filterUnits="userSpaceOnUse" color-interpolation-filters="sRGB">
<feFlood flood-opacity="0" result="BackgroundImageFix"/>
<feColorMatrix in="SourceAlpha" type="matrix" values="0 0 0 0 0 0 0 0 0 0 0 0 0 0 0 0 0 0 127 0" result="hardAlpha"/>
<feOffset dy="4"/>
<feGaussianBlur stdDeviation="57"/>
<feComposite in2="hardAlpha" operator="out"/>
<feColorMatrix type="matrix" values="0 0 0 0 0.231373 0 0 0 0 0.34902 0 0 0 0 0.596078 0 0 0 0.27 0"/>
<feBlend mode="normal" in2="BackgroundImageFix" result="effect1_dropShadow_116_1640"/>
<feBlend mode="normal" in="SourceGraphic" in2="effect1_dropShadow_116_1640" result="shape"/>
</filter>
<clipPath id="clip0_116_1640">
<rect width="360" height="800" fill="white" transform="translate(0 -640)"/>
</clipPath>
</defs>
</svg>
