<svg width="273" height="56" viewBox="0 0 273 56" fill="none" xmlns="http://www.w3.org/2000/svg">
<rect width="273" height="56" rx="8" fill="#40A677"/>
<path d="M250.724 34.7575C251.104 35.125 251.716 35.125 252.096 34.7575L258.541 28.525C258.844 28.2325 258.844 27.76 258.541 27.4675L252.096 21.235C251.716 20.8675 251.104 20.8675 250.724 21.235C250.344 21.6025 250.344 22.195 250.724 22.5625L256.339 28L250.716 33.4375C250.344 33.7975 250.344 34.3975 250.724 34.7575V34.7575Z" fill="white"/>
<line x1="55.6195" y1="4.1615e-08" x2="55.6195" y2="56" stroke="white" stroke-width="2"/>
<g clip-path="url(#clip0_98_691)">
<path fill-rule="evenodd" clip-rule="evenodd" d="M32.215 29.6545C33.654 30.5845 34.6623 31.8445 34.6623 33.5245V36.5245H37.8135C38.3912 36.5245 38.8638 36.0745 38.8638 35.5245V33.5245C38.8638 31.3445 35.114 30.0545 32.215 29.6545Z" fill="white"/>
<path d="M24.1587 28.5245C26.4791 28.5245 28.3602 26.7337 28.3602 24.5245C28.3602 22.3154 26.4791 20.5245 24.1587 20.5245C21.8382 20.5245 19.9572 22.3154 19.9572 24.5245C19.9572 26.7337 21.8382 28.5245 24.1587 28.5245Z" fill="white"/>
<path fill-rule="evenodd" clip-rule="evenodd" d="M30.4608 28.5245C32.7822 28.5245 34.6623 26.7345 34.6623 24.5245C34.6623 22.3145 32.7822 20.5245 30.4608 20.5245C29.9672 20.5245 29.505 20.6245 29.0638 20.7645C29.9357 21.7945 30.4608 23.1045 30.4608 24.5245C30.4608 25.9445 29.9357 27.2545 29.0638 28.2845C29.505 28.4245 29.9672 28.5245 30.4608 28.5245Z" fill="white"/>
<path fill-rule="evenodd" clip-rule="evenodd" d="M24.1586 29.5245C21.3541 29.5245 15.7556 30.8645 15.7556 33.5245V35.5245C15.7556 36.0745 16.2283 36.5245 16.806 36.5245H31.5113C32.089 36.5245 32.5616 36.0745 32.5616 35.5245V33.5245C32.5616 30.8645 26.9631 29.5245 24.1586 29.5245Z" fill="white"/>
</g>
<g filter="url(#filter0_d_98_691)">
<path d="M82.6047 22.4386V33.6066H80.3647V26.3426L77.3727 33.6066H75.6767L72.6687 26.3426V33.6066H70.4287V22.4386H72.9727L76.5247 30.7426L80.0767 22.4386H82.6047ZM84.2433 29.1426C84.2433 28.2466 84.4193 27.4519 84.7713 26.7586C85.134 26.0652 85.6193 25.5319 86.2273 25.1586C86.846 24.7852 87.534 24.5986 88.2913 24.5986C88.9527 24.5986 89.5287 24.7319 90.0193 24.9986C90.5207 25.2652 90.9207 25.6012 91.2193 26.0066V24.7426H93.4753V33.6066H91.2193V32.3106C90.9313 32.7266 90.5313 33.0732 90.0193 33.3506C89.518 33.6172 88.9367 33.7506 88.2753 33.7506C87.5287 33.7506 86.846 33.5586 86.2273 33.1746C85.6193 32.7906 85.134 32.2519 84.7713 31.5586C84.4193 30.8546 84.2433 30.0492 84.2433 29.1426ZM91.2193 29.1746C91.2193 28.6306 91.1127 28.1666 90.8993 27.7826C90.686 27.3879 90.398 27.0892 90.0353 26.8866C89.6727 26.6732 89.2833 26.5666 88.8673 26.5666C88.4513 26.5666 88.0673 26.6679 87.7153 26.8706C87.3633 27.0732 87.0753 27.3719 86.8513 27.7666C86.638 28.1506 86.5313 28.6092 86.5313 29.1426C86.5313 29.6759 86.638 30.1452 86.8513 30.5506C87.0753 30.9452 87.3633 31.2492 87.7153 31.4626C88.078 31.6759 88.462 31.7826 88.8673 31.7826C89.2833 31.7826 89.6727 31.6812 90.0353 31.4786C90.398 31.2652 90.686 30.9666 90.8993 30.5826C91.1127 30.1879 91.2193 29.7186 91.2193 29.1746ZM99.0551 33.7506C98.3297 33.7506 97.6791 33.6226 97.1031 33.3666C96.5271 33.0999 96.0684 32.7426 95.7271 32.2946C95.3964 31.8466 95.2151 31.3506 95.1831 30.8066H97.4391C97.4817 31.1479 97.6471 31.4306 97.9351 31.6546C98.2337 31.8786 98.6017 31.9906 99.0391 31.9906C99.4657 31.9906 99.7964 31.9052 100.031 31.7346C100.276 31.5639 100.399 31.3452 100.399 31.0786C100.399 30.7906 100.25 30.5772 99.9511 30.4386C99.6631 30.2892 99.1991 30.1292 98.5591 29.9586C97.8977 29.7986 97.3537 29.6332 96.9271 29.4626C96.5111 29.2919 96.1484 29.0306 95.8391 28.6786C95.5404 28.3266 95.3911 27.8519 95.3911 27.2546C95.3911 26.7639 95.5297 26.3159 95.8071 25.9106C96.0951 25.5052 96.5004 25.1852 97.0231 24.9506C97.5564 24.7159 98.1804 24.5986 98.8951 24.5986C99.9511 24.5986 100.794 24.8652 101.423 25.3986C102.052 25.9212 102.399 26.6306 102.463 27.5266H100.319C100.287 27.1746 100.138 26.8972 99.8711 26.6946C99.6151 26.4812 99.2684 26.3746 98.8311 26.3746C98.4257 26.3746 98.1111 26.4492 97.8871 26.5986C97.6737 26.7479 97.5671 26.9559 97.5671 27.2226C97.5671 27.5212 97.7164 27.7506 98.0151 27.9106C98.3137 28.0599 98.7777 28.2146 99.4071 28.3746C100.047 28.5346 100.575 28.6999 100.991 28.8706C101.407 29.0412 101.764 29.3079 102.063 29.6706C102.372 30.0226 102.532 30.4919 102.543 31.0786C102.543 31.5906 102.399 32.0492 102.111 32.4546C101.834 32.8599 101.428 33.1799 100.895 33.4146C100.372 33.6386 99.7591 33.7506 99.0551 33.7506ZM112.75 24.7426V33.6066H110.494V32.4866C110.206 32.8706 109.827 33.1746 109.358 33.3986C108.899 33.6119 108.398 33.7186 107.854 33.7186C107.16 33.7186 106.547 33.5746 106.014 33.2866C105.48 32.9879 105.059 32.5559 104.75 31.9906C104.451 31.4146 104.302 30.7319 104.302 29.9426V24.7426H106.542V29.6226C106.542 30.3266 106.718 30.8706 107.07 31.2546C107.422 31.6279 107.902 31.8146 108.51 31.8146C109.128 31.8146 109.614 31.6279 109.966 31.2546C110.318 30.8706 110.494 30.3266 110.494 29.6226V24.7426H112.75ZM120.208 33.6066L117.2 29.8306V33.6066H114.96V21.7666H117.2V28.5026L120.176 24.7426H123.088L119.184 29.1906L123.12 33.6066H120.208ZM131.508 33.7506C130.783 33.7506 130.132 33.6226 129.556 33.3666C128.98 33.0999 128.522 32.7426 128.18 32.2946C127.85 31.8466 127.668 31.3506 127.636 30.8066H129.892C129.935 31.1479 130.1 31.4306 130.388 31.6546C130.687 31.8786 131.055 31.9906 131.492 31.9906C131.919 31.9906 132.25 31.9052 132.484 31.7346C132.73 31.5639 132.852 31.3452 132.852 31.0786C132.852 30.7906 132.703 30.5772 132.404 30.4386C132.116 30.2892 131.652 30.1292 131.012 29.9586C130.351 29.7986 129.807 29.6332 129.38 29.4626C128.964 29.2919 128.602 29.0306 128.292 28.6786C127.994 28.3266 127.844 27.8519 127.844 27.2546C127.844 26.7639 127.983 26.3159 128.26 25.9106C128.548 25.5052 128.954 25.1852 129.476 24.9506C130.01 24.7159 130.634 24.5986 131.348 24.5986C132.404 24.5986 133.247 24.8652 133.876 25.3986C134.506 25.9212 134.852 26.6306 134.916 27.5266H132.772C132.74 27.1746 132.591 26.8972 132.324 26.6946C132.068 26.4812 131.722 26.3746 131.284 26.3746C130.879 26.3746 130.564 26.4492 130.34 26.5986C130.127 26.7479 130.02 26.9559 130.02 27.2226C130.02 27.5212 130.17 27.7506 130.468 27.9106C130.767 28.0599 131.231 28.2146 131.86 28.3746C132.5 28.5346 133.028 28.6999 133.444 28.8706C133.86 29.0412 134.218 29.3079 134.516 29.6706C134.826 30.0226 134.986 30.4919 134.996 31.0786C134.996 31.5906 134.852 32.0492 134.564 32.4546C134.287 32.8599 133.882 33.1799 133.348 33.4146C132.826 33.6386 132.212 33.7506 131.508 33.7506ZM145.075 28.9826C145.075 29.3026 145.054 29.5906 145.011 29.8466H138.531C138.584 30.4866 138.808 30.9879 139.203 31.3506C139.598 31.7132 140.083 31.8946 140.659 31.8946C141.491 31.8946 142.083 31.5372 142.435 30.8226H144.851C144.595 31.6759 144.104 32.3799 143.379 32.9346C142.654 33.4786 141.763 33.7506 140.707 33.7506C139.854 33.7506 139.086 33.5639 138.403 33.1906C137.731 32.8066 137.203 32.2679 136.819 31.5746C136.446 30.8812 136.259 30.0812 136.259 29.1746C136.259 28.2572 136.446 27.4519 136.819 26.7586C137.192 26.0652 137.715 25.5319 138.387 25.1586C139.059 24.7852 139.832 24.5986 140.707 24.5986C141.55 24.5986 142.302 24.7799 142.963 25.1426C143.635 25.5052 144.152 26.0226 144.515 26.6946C144.888 27.3559 145.075 28.1186 145.075 28.9826ZM142.755 28.3426C142.744 27.7666 142.536 27.3079 142.131 26.9666C141.726 26.6146 141.23 26.4386 140.643 26.4386C140.088 26.4386 139.619 26.6092 139.235 26.9506C138.862 27.2812 138.632 27.7452 138.547 28.3426H142.755ZM148.95 26.0386C149.238 25.6119 149.633 25.2652 150.134 24.9986C150.646 24.7319 151.227 24.5986 151.878 24.5986C152.635 24.5986 153.318 24.7852 153.926 25.1586C154.545 25.5319 155.03 26.0652 155.382 26.7586C155.745 27.4412 155.926 28.2359 155.926 29.1426C155.926 30.0492 155.745 30.8546 155.382 31.5586C155.03 32.2519 154.545 32.7906 153.926 33.1746C153.318 33.5586 152.635 33.7506 151.878 33.7506C151.217 33.7506 150.635 33.6226 150.134 33.3666C149.643 33.0999 149.249 32.7586 148.95 32.3426V33.6066H146.71V21.7666H148.95V26.0386ZM153.638 29.1426C153.638 28.6092 153.526 28.1506 153.302 27.7666C153.089 27.3719 152.801 27.0732 152.438 26.8706C152.086 26.6679 151.702 26.5666 151.286 26.5666C150.881 26.5666 150.497 26.6732 150.134 26.8866C149.782 27.0892 149.494 27.3879 149.27 27.7826C149.057 28.1772 148.95 28.6412 148.95 29.1746C148.95 29.7079 149.057 30.1719 149.27 30.5666C149.494 30.9612 149.782 31.2652 150.134 31.4786C150.497 31.6812 150.881 31.7826 151.286 31.7826C151.702 31.7826 152.086 31.6759 152.438 31.4626C152.801 31.2492 153.089 30.9452 153.302 30.5506C153.526 30.1559 153.638 29.6866 153.638 29.1426ZM156.978 29.1426C156.978 28.2466 157.154 27.4519 157.506 26.7586C157.868 26.0652 158.354 25.5319 158.962 25.1586C159.58 24.7852 160.268 24.5986 161.026 24.5986C161.687 24.5986 162.263 24.7319 162.754 24.9986C163.255 25.2652 163.655 25.6012 163.954 26.0066V24.7426H166.21V33.6066H163.954V32.3106C163.666 32.7266 163.266 33.0732 162.754 33.3506C162.252 33.6172 161.671 33.7506 161.01 33.7506C160.263 33.7506 159.58 33.5586 158.962 33.1746C158.354 32.7906 157.868 32.2519 157.506 31.5586C157.154 30.8546 156.978 30.0492 156.978 29.1426ZM163.954 29.1746C163.954 28.6306 163.847 28.1666 163.634 27.7826C163.42 27.3879 163.132 27.0892 162.77 26.8866C162.407 26.6732 162.018 26.5666 161.602 26.5666C161.186 26.5666 160.802 26.6679 160.45 26.8706C160.098 27.0732 159.81 27.3719 159.586 27.7666C159.372 28.1506 159.266 28.6092 159.266 29.1426C159.266 29.6759 159.372 30.1452 159.586 30.5506C159.81 30.9452 160.098 31.2492 160.45 31.4626C160.812 31.6759 161.196 31.7826 161.602 31.7826C162.018 31.7826 162.407 31.6812 162.77 31.4786C163.132 31.2652 163.42 30.9666 163.634 30.5826C163.847 30.1879 163.954 29.7186 163.954 29.1746ZM171.869 24.5986C172.531 24.5986 173.112 24.7319 173.613 24.9986C174.115 25.2546 174.509 25.5906 174.797 26.0066V24.7426H177.053V33.6706C177.053 34.4919 176.888 35.2226 176.557 35.8626C176.227 36.5132 175.731 37.0252 175.069 37.3986C174.408 37.7826 173.608 37.9746 172.669 37.9746C171.411 37.9746 170.376 37.6812 169.565 37.0946C168.765 36.5079 168.312 35.7079 168.205 34.6946H170.429C170.547 35.0999 170.797 35.4199 171.181 35.6546C171.576 35.8999 172.051 36.0226 172.605 36.0226C173.256 36.0226 173.784 35.8252 174.189 35.4306C174.595 35.0466 174.797 34.4599 174.797 33.6706V32.2946C174.509 32.7106 174.109 33.0572 173.597 33.3346C173.096 33.6119 172.52 33.7506 171.869 33.7506C171.123 33.7506 170.44 33.5586 169.821 33.1746C169.203 32.7906 168.712 32.2519 168.349 31.5586C167.997 30.8546 167.821 30.0492 167.821 29.1426C167.821 28.2466 167.997 27.4519 168.349 26.7586C168.712 26.0652 169.197 25.5319 169.805 25.1586C170.424 24.7852 171.112 24.5986 171.869 24.5986ZM174.797 29.1746C174.797 28.6306 174.691 28.1666 174.477 27.7826C174.264 27.3879 173.976 27.0892 173.613 26.8866C173.251 26.6732 172.861 26.5666 172.445 26.5666C172.029 26.5666 171.645 26.6679 171.293 26.8706C170.941 27.0732 170.653 27.3719 170.429 27.7666C170.216 28.1506 170.109 28.6092 170.109 29.1426C170.109 29.6759 170.216 30.1452 170.429 30.5506C170.653 30.9452 170.941 31.2492 171.293 31.4626C171.656 31.6759 172.04 31.7826 172.445 31.7826C172.861 31.7826 173.251 31.6812 173.613 31.4786C173.976 31.2652 174.264 30.9666 174.477 30.5826C174.691 30.1879 174.797 29.7186 174.797 29.1746ZM178.665 29.1426C178.665 28.2466 178.841 27.4519 179.193 26.7586C179.556 26.0652 180.041 25.5319 180.649 25.1586C181.268 24.7852 181.956 24.5986 182.713 24.5986C183.375 24.5986 183.951 24.7319 184.441 24.9986C184.943 25.2652 185.343 25.6012 185.641 26.0066V24.7426H187.897V33.6066H185.641V32.3106C185.353 32.7266 184.953 33.0732 184.441 33.3506C183.94 33.6172 183.359 33.7506 182.697 33.7506C181.951 33.7506 181.268 33.5586 180.649 33.1746C180.041 32.7906 179.556 32.2519 179.193 31.5586C178.841 30.8546 178.665 30.0492 178.665 29.1426ZM185.641 29.1746C185.641 28.6306 185.535 28.1666 185.321 27.7826C185.108 27.3879 184.82 27.0892 184.457 26.8866C184.095 26.6732 183.705 26.5666 183.289 26.5666C182.873 26.5666 182.489 26.6679 182.137 26.8706C181.785 27.0732 181.497 27.3719 181.273 27.7666C181.06 28.1506 180.953 28.6092 180.953 29.1426C180.953 29.6759 181.06 30.1452 181.273 30.5506C181.497 30.9452 181.785 31.2492 182.137 31.4626C182.5 31.6759 182.884 31.7826 183.289 31.7826C183.705 31.7826 184.095 31.6812 184.457 31.4786C184.82 31.2652 185.108 30.9666 185.321 30.5826C185.535 30.1879 185.641 29.7186 185.641 29.1746ZM191.221 23.6866C190.826 23.6866 190.496 23.5639 190.229 23.3186C189.973 23.0626 189.845 22.7479 189.845 22.3746C189.845 22.0012 189.973 21.6919 190.229 21.4466C190.496 21.1906 190.826 21.0626 191.221 21.0626C191.616 21.0626 191.941 21.1906 192.197 21.4466C192.464 21.6919 192.597 22.0012 192.597 22.3746C192.597 22.7479 192.464 23.0626 192.197 23.3186C191.941 23.5639 191.616 23.6866 191.221 23.6866ZM192.325 24.7426V33.6066H190.085V24.7426H192.325ZM200.559 22.4386V29.3506C200.559 30.1079 200.756 30.6892 201.151 31.0946C201.545 31.4892 202.1 31.6866 202.815 31.6866C203.54 31.6866 204.1 31.4892 204.495 31.0946C204.889 30.6892 205.087 30.1079 205.087 29.3506V22.4386H207.343V29.3346C207.343 30.2839 207.135 31.0892 206.719 31.7506C206.313 32.4012 205.764 32.8919 205.071 33.2226C204.388 33.5532 203.625 33.7186 202.783 33.7186C201.951 33.7186 201.193 33.5532 200.511 33.2226C199.839 32.8919 199.305 32.4012 198.911 31.7506C198.516 31.0892 198.319 30.2839 198.319 29.3346V22.4386H200.559ZM212.899 33.7506C212.173 33.7506 211.523 33.6226 210.947 33.3666C210.371 33.0999 209.912 32.7426 209.571 32.2946C209.24 31.8466 209.059 31.3506 209.027 30.8066H211.283C211.325 31.1479 211.491 31.4306 211.779 31.6546C212.077 31.8786 212.445 31.9906 212.883 31.9906C213.309 31.9906 213.64 31.9052 213.875 31.7346C214.12 31.5639 214.243 31.3452 214.243 31.0786C214.243 30.7906 214.093 30.5772 213.795 30.4386C213.507 30.2892 213.043 30.1292 212.403 29.9586C211.741 29.7986 211.197 29.6332 210.771 29.4626C210.355 29.2919 209.992 29.0306 209.683 28.6786C209.384 28.3266 209.235 27.8519 209.235 27.2546C209.235 26.7639 209.373 26.3159 209.651 25.9106C209.939 25.5052 210.344 25.1852 210.867 24.9506C211.4 24.7159 212.024 24.5986 212.739 24.5986C213.795 24.5986 214.637 24.8652 215.267 25.3986C215.896 25.9212 216.243 26.6306 216.307 27.5266H214.163C214.131 27.1746 213.981 26.8972 213.715 26.6946C213.459 26.4812 213.112 26.3746 212.675 26.3746C212.269 26.3746 211.955 26.4492 211.731 26.5986C211.517 26.7479 211.411 26.9559 211.411 27.2226C211.411 27.5212 211.56 27.7506 211.859 27.9106C212.157 28.0599 212.621 28.2146 213.251 28.3746C213.891 28.5346 214.419 28.6999 214.835 28.8706C215.251 29.0412 215.608 29.3079 215.907 29.6706C216.216 30.0226 216.376 30.4919 216.387 31.0786C216.387 31.5906 216.243 32.0492 215.955 32.4546C215.677 32.8599 215.272 33.1799 214.739 33.4146C214.216 33.6386 213.603 33.7506 212.899 33.7506ZM226.466 28.9826C226.466 29.3026 226.444 29.5906 226.402 29.8466H219.922C219.975 30.4866 220.199 30.9879 220.594 31.3506C220.988 31.7132 221.474 31.8946 222.05 31.8946C222.882 31.8946 223.474 31.5372 223.826 30.8226H226.242C225.986 31.6759 225.495 32.3799 224.77 32.9346C224.044 33.4786 223.154 33.7506 222.098 33.7506C221.244 33.7506 220.476 33.5639 219.794 33.1906C219.122 32.8066 218.594 32.2679 218.21 31.5746C217.836 30.8812 217.65 30.0812 217.65 29.1746C217.65 28.2572 217.836 27.4519 218.21 26.7586C218.583 26.0652 219.106 25.5319 219.778 25.1586C220.45 24.7852 221.223 24.5986 222.098 24.5986C222.94 24.5986 223.692 24.7799 224.354 25.1426C225.026 25.5052 225.543 26.0226 225.906 26.6946C226.279 27.3559 226.466 28.1186 226.466 28.9826ZM224.146 28.3426C224.135 27.7666 223.927 27.3079 223.522 26.9666C223.116 26.6146 222.62 26.4386 222.034 26.4386C221.479 26.4386 221.01 26.6092 220.626 26.9506C220.252 27.2812 220.023 27.7452 219.938 28.3426H224.146ZM230.341 26.1186C230.629 25.6492 231.002 25.2812 231.461 25.0146C231.93 24.7479 232.463 24.6146 233.061 24.6146V26.9666H232.469C231.765 26.9666 231.231 27.1319 230.869 27.4626C230.517 27.7932 230.341 28.3692 230.341 29.1906V33.6066H228.101V24.7426H230.341V26.1186Z" fill="white"/>
</g>
<defs>
<filter id="filter0_d_98_691" x="69.4287" y="21.0626" width="164.632" height="19.912" filterUnits="userSpaceOnUse" color-interpolation-filters="sRGB">
<feFlood flood-opacity="0" result="BackgroundImageFix"/>
<feColorMatrix in="SourceAlpha" type="matrix" values="0 0 0 0 0 0 0 0 0 0 0 0 0 0 0 0 0 0 127 0" result="hardAlpha"/>
<feOffset dy="2"/>
<feGaussianBlur stdDeviation="0.5"/>
<feComposite in2="hardAlpha" operator="out"/>
<feColorMatrix type="matrix" values="0 0 0 0 0 0 0 0 0 0 0 0 0 0 0 0 0 0 0.1 0"/>
<feBlend mode="normal" in2="BackgroundImageFix" result="effect1_dropShadow_98_691"/>
<feBlend mode="normal" in="SourceGraphic" in2="effect1_dropShadow_98_691" result="shape"/>
</filter>
<clipPath id="clip0_98_691">
<rect width="25.209" height="24" fill="white" transform="translate(14.7052 16.5245)"/>
</clipPath>
</defs>
</svg>
