<svg width="24" height="25" viewBox="0 0 24 25" fill="none" xmlns="http://www.w3.org/2000/svg">
<path d="M20.625 3.125H3.375C2.96016 3.125 2.625 3.46016 2.625 3.875V21.125C2.625 21.5398 2.96016 21.875 3.375 21.875H20.625C21.0398 21.875 21.375 21.5398 21.375 21.125V3.875C21.375 3.46016 21.0398 3.125 20.625 3.125ZM19.6875 14H12.375V11H19.6875V14ZM19.6875 20.1875H4.3125V4.8125H19.6875V9.5H11.625C11.2102 9.5 10.875 9.83516 10.875 10.25V14.75C10.875 15.1648 11.2102 15.5 11.625 15.5H19.6875V20.1875ZM13.5938 12.5C13.5938 12.7486 13.6925 12.9871 13.8683 13.1629C14.0442 13.3387 14.2826 13.4375 14.5312 13.4375C14.7799 13.4375 15.0183 13.3387 15.1942 13.1629C15.37 12.9871 15.4688 12.7486 15.4688 12.5C15.4688 12.2514 15.37 12.0129 15.1942 11.8371C15.0183 11.6613 14.7799 11.5625 14.5312 11.5625C14.2826 11.5625 14.0442 11.6613 13.8683 11.8371C13.6925 12.0129 13.5938 12.2514 13.5938 12.5Z" fill="#00C77D"/>
</svg>
