<svg width="16" height="16" viewBox="0 0 16 16" fill="none" xmlns="http://www.w3.org/2000/svg">
<g clip-path="url(#clip0_43_302)">
<path d="M13.3334 2H4.00002C3.26669 2 2.66669 2.6 2.66669 3.33333V8.66667C2.66669 10.14 3.86002 11.3333 5.33335 11.3333H9.33335C10.8067 11.3333 12 10.14 12 8.66667V6.66667H13.3334C14.0734 6.66667 14.6667 6.06667 14.6667 5.33333V3.33333C14.6667 2.6 14.0667 2 13.3334 2ZM13.3334 5.33333H12V3.33333H13.3334V5.33333ZM3.33335 12.6667H12.6667C13.0334 12.6667 13.3334 12.9667 13.3334 13.3333C13.3334 13.7 13.0334 14 12.6667 14H3.33335C2.96669 14 2.66669 13.7 2.66669 13.3333C2.66669 12.9667 2.96669 12.6667 3.33335 12.6667Z" fill="black"/>
</g>
<defs>
<clipPath id="clip0_43_302">
<rect width="16" height="16" fill="white"/>
</clipPath>
</defs>
</svg>
