<svg width="15" height="15" viewBox="0 0 15 15" fill="none" xmlns="http://www.w3.org/2000/svg">
<path d="M7.70511 0.30957C3.74379 0.30957 0.528809 3.53858 0.528809 7.51718C0.528809 11.4958 3.74379 14.7248 7.70511 14.7248C11.6664 14.7248 14.8814 11.4958 14.8814 7.51718C14.8814 3.53858 11.6664 0.30957 7.70511 0.30957ZM8.71697 11.9066V12.3247C8.71697 12.8508 8.28639 13.2833 7.76252 13.2833H7.75535C7.23148 13.2833 6.8009 12.8508 6.8009 12.3247V11.8922C5.84645 11.6904 4.99965 11.1642 4.64083 10.2777C4.47578 9.88128 4.78436 9.44161 5.21494 9.44161H5.38717C5.65269 9.44161 5.86798 9.6218 5.96845 9.87407C6.17656 10.4146 6.72196 10.7894 7.7697 10.7894C9.17626 10.7894 9.49201 10.0831 9.49201 9.64343C9.49201 9.04519 9.17626 8.483 7.57594 8.101C5.79622 7.66854 4.57624 6.93336 4.57624 5.4558C4.57624 4.2161 5.57375 3.40884 6.80808 3.14216V2.7097C6.80808 2.18355 7.23865 1.75109 7.76252 1.75109H7.7697C8.29357 1.75109 8.72415 2.18355 8.72415 2.7097V3.15658C9.71448 3.40163 10.3388 4.02149 10.6115 4.7855C10.755 5.18191 10.4536 5.59996 10.0302 5.59996H9.84365C9.57813 5.59996 9.36284 5.41256 9.29108 5.15308C9.12602 4.60531 8.67391 4.25213 7.7697 4.25213C6.69325 4.25213 6.04739 4.74225 6.04739 5.43418C6.04739 6.03962 6.51385 6.43604 7.96346 6.81083C9.41307 7.18563 10.9632 7.81269 10.9632 9.62901C10.9488 10.948 9.96565 11.6688 8.71697 11.9066V11.9066Z" fill="#F8AB5D"/>
</svg>
