<svg width="28" height="27" viewBox="0 0 28 27" fill="none" xmlns="http://www.w3.org/2000/svg">
<path d="M14 0C6.272 0 0 6.048 0 13.5C0 20.952 6.272 27 14 27C21.728 27 28 20.952 28 13.5C28 6.048 21.728 0 14 0ZM15.974 21.7215V22.5045C15.974 23.49 15.134 24.3 14.112 24.3H14.098C13.076 24.3 12.236 23.49 12.236 22.5045V21.6945C10.374 21.3165 8.722 20.331 8.022 18.6705C7.7 17.928 8.302 17.1045 9.142 17.1045H9.478C9.996 17.1045 10.416 17.442 10.612 17.9145C11.018 18.927 12.082 19.629 14.126 19.629C16.87 19.629 17.486 18.306 17.486 17.4825C17.486 16.362 16.87 15.309 13.748 14.5935C10.276 13.7835 7.896 12.4065 7.896 9.639C7.896 7.317 9.842 5.805 12.25 5.3055V4.4955C12.25 3.51 13.09 2.7 14.112 2.7H14.126C15.148 2.7 15.988 3.51 15.988 4.4955V5.3325C17.92 5.7915 19.138 6.9525 19.67 8.3835C19.95 9.126 19.362 9.909 18.536 9.909H18.172C17.654 9.909 17.234 9.558 17.094 9.072C16.772 8.046 15.89 7.3845 14.126 7.3845C12.026 7.3845 10.766 8.3025 10.766 9.5985C10.766 10.7325 11.676 11.475 14.504 12.177C17.332 12.879 20.356 14.0535 20.356 17.4555C20.328 19.926 18.41 21.276 15.974 21.7215Z" fill="#F8AB5D"/>
</svg>
