<svg width="25" height="25" viewBox="0 0 25 25" fill="none" xmlns="http://www.w3.org/2000/svg">
<g clip-path="url(#clip0_20_1391)">
<path d="M12.4998 6.77085C15.3748 6.77085 17.7082 9.10419 17.7082 11.9792C17.7082 12.5104 17.604 13.0209 17.4582 13.5L20.6457 16.6875C22.0936 15.4063 23.2394 13.8021 23.9582 11.9688C22.1561 7.40627 17.7082 4.16669 12.4998 4.16669C11.1769 4.16669 9.90609 4.37502 8.70817 4.76044L10.9686 7.02085C11.4582 6.87502 11.9686 6.77085 12.4998 6.77085ZM2.82275 3.29169C2.4165 3.69794 2.4165 4.35419 2.82275 4.76044L4.87484 6.81252C3.18734 8.15627 1.84359 9.9271 1.0415 11.9792C2.84359 16.5521 7.2915 19.7917 12.4998 19.7917C14.0832 19.7917 15.5936 19.4792 16.9894 18.9375L19.8228 21.7709C20.229 22.1771 20.8853 22.1771 21.2915 21.7709C21.6978 21.3646 21.6978 20.7084 21.2915 20.3021L4.30192 3.29169C3.89567 2.88544 3.229 2.88544 2.82275 3.29169ZM12.4998 17.1875C9.62484 17.1875 7.2915 14.8542 7.2915 11.9792C7.2915 11.1771 7.479 10.4167 7.80192 9.75002L9.43734 11.3854C9.40609 11.5729 9.37484 11.7709 9.37484 11.9792C9.37484 13.7084 10.7707 15.1042 12.4998 15.1042C12.7082 15.1042 12.8957 15.0729 13.0936 15.0313L14.729 16.6667C14.0519 17 13.3019 17.1875 12.4998 17.1875ZM15.5936 11.6354C15.4373 10.1771 14.2915 9.04169 12.8436 8.88544L15.5936 11.6354Z" fill="#CCCCCC"/>
</g>
<defs>
<clipPath id="clip0_20_1391">
<rect width="25" height="25" fill="white"/>
</clipPath>
</defs>
</svg>
