<svg width="24" height="25" viewBox="0 0 24 25" fill="none" xmlns="http://www.w3.org/2000/svg">
<path d="M19.8727 14.375H3.56251C3.45939 14.375 3.37501 14.4594 3.37501 14.5625V15.9688C3.37501 16.0719 3.45939 16.1562 3.56251 16.1562H17.7469L14.3649 20.4453C14.2688 20.5672 14.3555 20.75 14.5125 20.75H16.2117C16.3266 20.75 16.4344 20.6984 16.507 20.607L20.4633 15.5891C20.85 15.0969 20.5008 14.375 19.8727 14.375ZM20.4375 8.84375H6.25314L9.63517 4.55469C9.73126 4.43281 9.64454 4.25 9.48751 4.25H7.78829C7.67345 4.25 7.56564 4.30156 7.49298 4.39297L3.53673 9.41094C3.15001 9.90313 3.49923 10.625 4.12501 10.625H20.4375C20.5406 10.625 20.625 10.5406 20.625 10.4375V9.03125C20.625 8.92812 20.5406 8.84375 20.4375 8.84375Z" fill="#C4C4C4"/>
</svg>
