<svg width="17" height="16" viewBox="0 0 17 16" fill="none" xmlns="http://www.w3.org/2000/svg">
<path d="M15.0634 13.7377L12.7718 11.4972L12.7181 11.4155C12.6183 11.3161 12.4817 11.2601 12.3392 11.2601C12.1966 11.2601 12.0601 11.3161 11.9602 11.4155C10.0127 13.2022 7.01183 13.2993 4.94774 11.6425C2.88364 9.9856 2.39685 7.08889 3.81019 4.87343C5.22353 2.65796 8.09845 1.81121 10.5283 2.89474C12.9582 3.97826 14.1889 6.65584 13.4044 9.15171C13.3479 9.33202 13.3941 9.5281 13.5256 9.66609C13.657 9.80408 13.8538 9.86302 14.0418 9.82071C14.2297 9.77839 14.3803 9.64125 14.4368 9.46094C15.3747 6.49908 13.9582 3.31168 11.1038 1.96068C8.24939 0.609687 4.81363 1.50053 3.0191 4.05692C1.22458 6.61332 1.60985 10.0681 3.92569 12.1863C6.24152 14.3046 9.79292 14.4506 12.2825 12.5299L14.3115 14.5137C14.5211 14.7176 14.8598 14.7176 15.0694 14.5137C15.2787 14.3068 15.2787 13.9737 15.0694 13.7668L15.0634 13.7377Z" fill="#7F7F7F"/>
</svg>
