<svg width="24" height="24" viewBox="0 0 24 24" fill="none" xmlns="http://www.w3.org/2000/svg">
<path d="M21.6749 14.665L20.1398 13.3525C20.2124 12.9071 20.2499 12.4525 20.2499 11.9978C20.2499 11.5431 20.2124 11.0884 20.1398 10.6431L21.6749 9.33058C21.7907 9.23145 21.8736 9.09943 21.9125 8.95206C21.9514 8.80469 21.9446 8.64896 21.8929 8.50557L21.8718 8.44464C21.4492 7.26345 20.8163 6.16847 20.0038 5.2126L19.9616 5.16338C19.8631 5.04749 19.7317 4.96418 19.5848 4.92443C19.438 4.88468 19.2825 4.89037 19.139 4.94073L17.2335 5.61807C16.5304 5.04151 15.7452 4.58682 14.8968 4.26807L14.5288 2.27588C14.5011 2.12598 14.4284 1.98807 14.3204 1.88048C14.2123 1.77289 14.0742 1.70072 13.9242 1.67354L13.8609 1.66182C12.6398 1.4415 11.3554 1.4415 10.1343 1.66182L10.071 1.67354C9.92104 1.70072 9.78286 1.77289 9.67485 1.88048C9.56684 1.98807 9.49413 2.12598 9.46636 2.27588L9.09605 4.27744C8.25439 4.59626 7.47059 5.05071 6.77575 5.62276L4.85623 4.94073C4.71271 4.88997 4.55715 4.88408 4.4102 4.92385C4.26326 4.96362 4.1319 5.04717 4.03358 5.16338L3.99139 5.2126C3.17986 6.16914 2.54712 7.26394 2.12343 8.44464L2.10234 8.50557C1.99687 8.79854 2.08359 9.12667 2.3203 9.33058L3.8742 10.6571C3.80155 11.0978 3.76639 11.5478 3.76639 11.9954C3.76639 12.4454 3.80155 12.8954 3.8742 13.3337L2.3203 14.6603C2.20451 14.7594 2.12164 14.8914 2.0827 15.0388C2.04377 15.1862 2.05062 15.3419 2.10234 15.4853L2.12343 15.5462C2.54765 16.7275 3.17577 17.8173 3.99139 18.7782L4.03358 18.8275C4.13214 18.9434 4.26351 19.0267 4.41036 19.0664C4.55722 19.1062 4.71267 19.1005 4.85623 19.0501L6.77575 18.3681C7.47419 18.9423 8.25465 19.397 9.09605 19.7134L9.46636 21.715C9.49413 21.8649 9.56684 22.0028 9.67485 22.1104C9.78286 22.218 9.92104 22.2901 10.071 22.3173L10.1343 22.329C11.3666 22.5505 12.6286 22.5505 13.8609 22.329L13.9242 22.3173C14.0742 22.2901 14.2123 22.218 14.3204 22.1104C14.4284 22.0028 14.5011 21.8649 14.5288 21.715L14.8968 19.7228C15.7449 19.4049 16.5345 18.9487 17.2335 18.3728L19.139 19.0501C19.2825 19.1009 19.4381 19.1068 19.585 19.067C19.7319 19.0272 19.8633 18.9437 19.9616 18.8275L20.0038 18.7782C20.8194 17.815 21.4476 16.7275 21.8718 15.5462L21.8929 15.4853C21.9983 15.197 21.9116 14.8689 21.6749 14.665ZM18.4757 10.9196C18.5343 11.2735 18.5648 11.6368 18.5648 12.0001C18.5648 12.3634 18.5343 12.7267 18.4757 13.0806L18.321 14.0204L20.0718 15.5181C19.8064 16.1295 19.4713 16.7084 19.0734 17.2431L16.8984 16.472L16.1624 17.0767C15.6023 17.5361 14.9788 17.897 14.3038 18.1501L13.4109 18.4853L12.9913 20.7587C12.3294 20.8337 11.6611 20.8337 10.9992 20.7587L10.5796 18.4806L9.69371 18.1407C9.02574 17.8876 8.40465 17.5267 7.84918 17.0696L7.11325 16.4626L4.9242 17.2407C4.52576 16.704 4.19295 16.1251 3.92577 15.5157L5.69529 14.004L5.54295 13.0665C5.4867 12.7173 5.45623 12.3564 5.45623 12.0001C5.45623 11.6415 5.48435 11.2829 5.54295 10.9337L5.69529 9.9962L3.92577 8.48448C4.19061 7.87276 4.52576 7.2962 4.9242 6.75948L7.11325 7.5376L7.84918 6.93057C8.40465 6.47354 9.02574 6.1126 9.69371 5.85948L10.582 5.52432L11.0015 3.24619C11.6601 3.17119 12.3328 3.17119 12.9937 3.24619L13.4132 5.51963L14.3062 5.85479C14.9788 6.10792 15.6046 6.46885 16.1648 6.92823L16.9007 7.53292L19.0757 6.76182C19.4741 7.29854 19.8069 7.87745 20.0741 8.48682L18.3234 9.98448L18.4757 10.9196ZM11.9999 7.64073C9.72183 7.64073 7.87497 9.48761 7.87497 11.7657C7.87497 14.0439 9.72183 15.8907 11.9999 15.8907C14.2781 15.8907 16.1249 14.0439 16.1249 11.7657C16.1249 9.48761 14.2781 7.64073 11.9999 7.64073ZM13.8562 13.622C13.6127 13.8662 13.3234 14.0598 13.0048 14.1917C12.6863 14.3236 12.3448 14.3913 11.9999 14.3907C11.2992 14.3907 10.6406 14.1165 10.1437 13.622C9.89954 13.3785 9.70593 13.0892 9.574 12.7706C9.44206 12.4521 9.37442 12.1105 9.37496 11.7657C9.37496 11.065 9.64918 10.4064 10.1437 9.90948C10.6406 9.41261 11.2992 9.14073 11.9999 9.14073C12.7007 9.14073 13.3593 9.41261 13.8562 9.90948C14.1004 10.1529 14.294 10.4423 14.4259 10.7609C14.5578 11.0794 14.6255 11.4209 14.6249 11.7657C14.6249 12.4665 14.3507 13.1251 13.8562 13.622Z" fill="#121212" fill-opacity="0.8"/>
</svg>
