<svg width="20" height="20" viewBox="0 0 20 20" fill="none" xmlns="http://www.w3.org/2000/svg">
<g clip-path="url(#clip0_456_3545)">
<path d="M5.8335 14.9998C4.91683 14.9998 4.17516 15.7498 4.17516 16.6665C4.17516 17.5832 4.91683 18.3332 5.8335 18.3332C6.75016 18.3332 7.50016 17.5832 7.50016 16.6665C7.50016 15.7498 6.75016 14.9998 5.8335 14.9998ZM0.833496 2.49984C0.833496 2.95817 1.2085 3.33317 1.66683 3.33317H2.50016L5.50016 9.65817L4.37516 11.6915C3.76683 12.8082 4.56683 14.1665 5.8335 14.1665H15.0002C15.4585 14.1665 15.8335 13.7915 15.8335 13.3332C15.8335 12.8748 15.4585 12.4998 15.0002 12.4998H5.8335L6.75016 10.8332H12.9585C13.5835 10.8332 14.1335 10.4915 14.4168 9.97484L17.4002 4.5665C17.7085 4.0165 17.3085 3.33317 16.6752 3.33317H4.34183L3.7835 2.1415C3.65016 1.84984 3.35016 1.6665 3.0335 1.6665H1.66683C1.2085 1.6665 0.833496 2.0415 0.833496 2.49984ZM14.1668 14.9998C13.2502 14.9998 12.5085 15.7498 12.5085 16.6665C12.5085 17.5832 13.2502 18.3332 14.1668 18.3332C15.0835 18.3332 15.8335 17.5832 15.8335 16.6665C15.8335 15.7498 15.0835 14.9998 14.1668 14.9998Z" fill="#323232"/>
</g>
<defs>
<clipPath id="clip0_456_3545">
<rect width="20" height="20" fill="white"/>
</clipPath>
</defs>
</svg>
