<svg width="52" height="52" viewBox="0 0 52 52" fill="none" xmlns="http://www.w3.org/2000/svg">
<circle cx="26" cy="26" r="26" fill="#00C77D"/>
<g clip-path="url(#clip0_209_1085)">
<path d="M22.4584 18.2083V22.4583H18.2084V18.2083H22.4584ZM24.5834 16.0833H16.0834V24.5833H24.5834V16.0833ZM22.4584 29.5417V33.7917H18.2084V29.5417H22.4584ZM24.5834 27.4167H16.0834V35.9167H24.5834V27.4167ZM33.7917 18.2083V22.4583H29.5417V18.2083H33.7917ZM35.9167 16.0833H27.4167V24.5833H35.9167V16.0833ZM27.4167 27.4167H29.5417V29.5417H27.4167V27.4167ZM29.5417 29.5417H31.6667V31.6667H29.5417V29.5417ZM31.6667 27.4167H33.7917V29.5417H31.6667V27.4167ZM27.4167 31.6667H29.5417V33.7917H27.4167V31.6667ZM29.5417 33.7917H31.6667V35.9167H29.5417V33.7917ZM31.6667 31.6667H33.7917V33.7917H31.6667V31.6667ZM33.7917 29.5417H35.9167V31.6667H33.7917V29.5417ZM33.7917 33.7917H35.9167V35.9167H33.7917V33.7917ZM38.75 18.9167C37.9709 18.9167 37.3334 18.2792 37.3334 17.5V14.6667H34.5C33.7209 14.6667 33.0834 14.0292 33.0834 13.25C33.0834 12.4708 33.7209 11.8333 34.5 11.8333H38.75C39.5292 11.8333 40.1667 12.4708 40.1667 13.25V17.5C40.1667 18.2792 39.5292 18.9167 38.75 18.9167ZM40.1667 38.75V34.5C40.1667 33.7208 39.5292 33.0833 38.75 33.0833C37.9709 33.0833 37.3334 33.7208 37.3334 34.5V37.3333H34.5C33.7209 37.3333 33.0834 37.9708 33.0834 38.75C33.0834 39.5292 33.7209 40.1667 34.5 40.1667H38.75C39.5292 40.1667 40.1667 39.5292 40.1667 38.75ZM13.25 40.1667H17.5C18.2792 40.1667 18.9167 39.5292 18.9167 38.75C18.9167 37.9708 18.2792 37.3333 17.5 37.3333H14.6667V34.5C14.6667 33.7208 14.0292 33.0833 13.25 33.0833C12.4709 33.0833 11.8334 33.7208 11.8334 34.5V38.75C11.8334 39.5292 12.4709 40.1667 13.25 40.1667ZM11.8334 13.25V17.5C11.8334 18.2792 12.4709 18.9167 13.25 18.9167C14.0292 18.9167 14.6667 18.2792 14.6667 17.5V14.6667H17.5C18.2792 14.6667 18.9167 14.0292 18.9167 13.25C18.9167 12.4708 18.2792 11.8333 17.5 11.8333H13.25C12.4709 11.8333 11.8334 12.4708 11.8334 13.25Z" fill="white"/>
</g>
<defs>
<clipPath id="clip0_209_1085">
<rect width="34" height="34" fill="white" transform="translate(9 9)"/>
</clipPath>
</defs>
</svg>
