<svg width="52" height="52" viewBox="0 0 52 52" fill="none" xmlns="http://www.w3.org/2000/svg">
<path d="M45.9953 42.584C48.6643 39.3753 50.5206 35.5716 51.4072 31.4946C52.2938 27.4176 52.1845 23.1872 51.0888 19.1612C49.993 15.1353 47.9429 11.4323 45.1119 8.36542C42.2809 5.29858 38.7522 2.95814 34.8245 1.54208C30.8968 0.126033 26.6855 -0.32397 22.5469 0.230143C18.4083 0.784255 14.4641 2.32618 11.0481 4.72548C7.63203 7.12479 4.84456 10.3109 2.9215 14.0142C0.99844 17.7176 -0.00364742 21.8293 9.97561e-06 26.0014C0.00141344 32.0666 2.14049 37.9375 6.0419 42.584L6.00473 42.6155C6.13482 42.7715 6.2835 42.9052 6.41731 43.0593C6.58457 43.2506 6.76484 43.4307 6.93768 43.6164C7.45805 44.1809 7.99329 44.7232 8.55455 45.232C8.72553 45.3879 8.90208 45.5328 9.07492 45.6813C9.66963 46.1939 10.2811 46.6804 10.9148 47.1335C10.9966 47.1892 11.0709 47.2616 11.1527 47.3192V47.2969C15.5054 50.3574 20.698 52 26.0205 52C31.3429 52 36.5355 50.3574 40.8882 47.2969V47.3192C40.97 47.2616 41.0425 47.1892 41.1261 47.1335C41.758 46.6785 42.3713 46.1939 42.966 45.6813C43.1388 45.5328 43.3154 45.3861 43.4864 45.232C44.0476 44.7213 44.5829 44.1809 45.1032 43.6164C45.2761 43.4307 45.4545 43.2506 45.6236 43.0593C45.7555 42.9052 45.9061 42.7715 46.0362 42.6137L45.9953 42.584ZM26.0186 11.1459C27.6727 11.1459 29.2896 11.6359 30.6649 12.5541C32.0402 13.4723 33.1121 14.7774 33.7451 16.3043C34.3781 17.8312 34.5437 19.5114 34.221 21.1323C33.8983 22.7533 33.1018 24.2422 31.9322 25.4109C30.7626 26.5795 29.2724 27.3754 27.6502 27.6978C26.0279 28.0202 24.3463 27.8548 22.8182 27.2223C21.29 26.5898 19.9839 25.5188 19.0649 24.1446C18.146 22.7704 17.6555 21.1548 17.6555 19.5021C17.6555 17.2859 18.5366 15.1605 20.105 13.5934C21.6734 12.0263 23.8006 11.1459 26.0186 11.1459ZM11.1638 42.584C11.1961 40.1457 12.1878 37.8182 13.9243 36.105C15.6609 34.3917 18.0027 33.4305 20.4432 33.4292H31.594C34.0344 33.4305 36.3763 34.3917 38.1129 36.105C39.8494 37.8182 40.8411 40.1457 40.8733 42.584C36.7974 46.2539 31.5053 48.2849 26.0186 48.2849C20.5319 48.2849 15.2398 46.2539 11.1638 42.584Z" fill="#C4C4C4"/>
</svg>
